<svg width="28" height="29" viewBox="0 0 28 29" fill="none" xmlns="http://www.w3.org/2000/svg">
<path fill-rule="evenodd" clip-rule="evenodd" d="M16.6649 17.7035C16.0186 17.912 15.3392 18.0467 14.6365 18.0977V27.5071H16.6649V17.7035ZM17.9376 28.7798H16.6649H14.6365H13.3638H11.3354H10.0626H8.0341H6.7614H0.556824V27.5071H6.7614V14.2247C5.8564 12.8555 5.3296 11.2144 5.3296 9.45028C5.3296 4.66167 9.2114 0.779785 14 0.779785C18.7886 0.779785 22.6705 4.66167 22.6705 9.45028C22.6705 11.2143 22.1437 12.8553 21.2388 14.2245V27.5071H27.4432V28.7798H21.2388H19.966H17.9376ZM19.966 27.5071H17.9376V17.1771C18.6825 16.7967 19.3651 16.3119 19.966 15.7418V27.5071ZM8.0341 27.5071H10.0626V17.1772C9.3177 16.7969 8.6351 16.312 8.0341 15.7419V27.5071ZM11.3354 27.5071H13.3638V18.0977C12.6611 18.0468 11.9817 17.9121 11.3354 17.7036V27.5071Z" fill="#3E31FA"/>
</svg>
