<svg width="20" height="30" viewBox="0 0 20 30" fill="none" xmlns="http://www.w3.org/2000/svg">
<path fill-rule="evenodd" clip-rule="evenodd" d="M18.6921 1.41517C18.2278 0.725686 17.2197 0.286686 16.4636 0.460406C15.3925 0.705486 14.7488 1.49193 14.6981 2.61906C14.6666 3.28026 14.8145 3.90106 14.9802 4.50166C14.8994 4.48281 14.8214 4.46799 14.7515 4.45587C13.3243 4.20809 11.808 4.0667 10.2452 4.03168C9.9904 4.0263 9.7356 4.0236 9.4809 4.0236C7.8181 4.0236 6.4579 4.16096 5.1992 4.45587C5.1499 4.46799 5.0855 4.48281 5.0184 4.50435C5.1143 4.16231 5.2088 3.81218 5.2622 3.44859C5.406 2.50325 5.2362 1.74779 4.7444 1.14046C4.3801 0.690676 3.8158 0.432127 3.1939 0.432127C2.4502 0.432127 1.7516 0.788976 1.3284 1.38554C0.718897 2.24335 0.428497 3.26949 0.466897 4.43702C0.512097 5.86846 0.675097 7.14376 0.962697 8.33416C1.412 10.1899 1.9831 12.0833 2.6584 13.9618C2.8323 14.4439 2.9981 14.93 3.1638 15.4148C3.3049 15.8296 3.446 16.243 3.5925 16.6564L4.1459 18.2145V18.2051C4.5732 19.5059 5.1526 20.8418 5.8224 21.709C5.9361 21.8558 6.0566 21.9972 6.1785 22.1399C6.4716 22.4847 6.7483 22.8092 6.8935 23.1957C6.9757 23.4098 7.1551 23.8879 7.614 24.133C7.5784 24.2905 7.5222 24.37 7.2935 24.4252C7.0099 24.4939 6.7278 24.5585 6.4429 24.6218C5.6252 24.7995 4.9924 25.3274 4.5061 26.2377C4.0925 27.0121 4.3445 27.9385 5.1047 28.4408C5.4266 28.6523 5.7841 28.8219 6.1963 28.9593C7.3181 29.335 8.5166 29.5168 9.8617 29.5168C10.5068 29.5168 11.1848 29.4751 11.9368 29.3902C13.0818 29.2609 14.0228 28.9647 14.8131 28.4853C15.6788 27.9614 15.9459 27.0094 15.4637 26.1677C15.1391 25.5994 14.5803 24.8184 13.4873 24.6029C13.2681 24.5598 13.0517 24.5019 12.8353 24.4427L12.5326 24.3619C12.4819 24.3498 12.4559 24.3323 12.3915 24.1316C12.4093 24.1222 12.4271 24.1128 12.4449 24.102C12.6052 24.0104 12.6887 23.8798 12.7408 23.7828C13.0298 23.5229 13.1832 23.2119 13.3202 22.9331C13.4065 22.7621 13.4859 22.6005 13.6133 22.4456C14.2831 21.6323 14.9775 20.7893 15.4364 19.7497C15.9678 18.5485 16.3431 17.2678 16.5321 16.2444C17.0841 14.7536 17.6334 13.1363 18.2086 11.2995C19.0017 8.76646 19.4071 6.78286 19.5222 4.86929C19.6044 3.49707 19.3332 2.36724 18.6921 1.41517ZM15.587 6.59456C15.6938 6.59456 15.7897 6.54746 15.8733 6.45316C16.2965 5.97786 16.213 5.37456 16.1458 4.89109L16.1198 4.70391C16.0842 4.40496 16.0253 4.1087 15.9664 3.81244C15.902 3.49598 15.8418 3.19568 15.8089 2.89134C15.7514 2.33922 15.9322 1.97428 16.3486 1.80595C16.7197 1.65647 17.1964 1.81672 17.5361 2.20321C18.1401 2.89269 18.2346 3.75319 18.2483 4.58137C18.2744 6.34146 17.9662 8.16616 17.2827 10.3262C17.2279 10.4958 17.169 10.6642 17.1142 10.8325L17.1361 10.5295C17.1663 10.1309 17.1964 9.73226 17.232 9.33496C17.258 9.05356 17.1854 8.67106 16.6978 8.44626C16.2732 8.24956 15.8541 8.03146 15.4514 7.79576C15.2966 7.70556 15.1747 7.60596 15.0912 7.44566C15.2898 7.21406 15.4418 6.89356 15.5528 6.58916C15.5651 6.59056 15.5747 6.59456 15.587 6.59456ZM4.0454 3.77305C3.9769 4.0545 3.9057 4.34403 3.8755 4.64837C3.8454 4.97556 3.8344 5.32166 3.8427 5.73776C3.8495 6.08256 3.9522 6.33296 4.1454 6.48116C4.2289 6.54446 4.3166 6.57676 4.4056 6.57676C4.4138 6.57676 4.4179 6.57406 4.4248 6.57406C4.5289 6.89726 4.6782 7.25676 4.8741 7.51666C4.8056 7.60966 4.7015 7.70926 4.5357 7.80356L4.4262 7.86546C4.07 8.06886 3.7317 8.26006 3.3824 8.40546C2.7168 8.68156 2.762 9.25116 2.777 9.43836L2.8154 9.94876C2.8387 10.2437 2.862 10.544 2.8866 10.8429C2.5469 9.79786 2.2387 8.73406 2.047 7.65266C1.7785 6.12836 1.5827 4.75206 1.9086 3.34886C2.0607 2.69575 2.3223 2.2554 2.7332 1.96318C3.0633 1.72886 3.3824 1.68442 3.7016 1.83255C4.0344 1.98742 4.196 2.26078 4.2097 2.69171C4.2221 3.05126 4.1358 3.40273 4.0454 3.77305Z" fill="#3E31FA"/>
</svg>
