<svg width="12" height="33" viewBox="0 0 12 33" fill="none" xmlns="http://www.w3.org/2000/svg">
<path fill-rule="evenodd" clip-rule="evenodd" d="M6 32.442C2.6874 32.442 0 31.7758 0 31.3097C0 31.2788 0.0132004 31.2494 0.0368004 31.2185L1.7931 26.7631C1.7931 26.6645 1.9667 26.5704 2.2726 26.4896C3.0169 24.7324 6.9914 14.2539 0.5222 4.17545L0.962 3.72696C0.962 3.72696 1.4533 4.37984 2.0785 5.60179C2.0226 5.33123 1.9931 5.05037 1.9931 4.76216C1.9931 2.50649 3.7862 0.677246 5.9941 0.677246C8.0049 0.677246 9.6715 2.19475 9.9524 4.17104L9.973 4.18574C10.0275 4.07252 10.0583 4.0137 10.0583 4.0137L10.657 3.40346C11.2013 3.6902 11.4013 4.16369 11.4013 4.16369C4.6158 15.0759 9.0375 24.7309 10.0069 26.5822C10.1363 26.6395 10.2069 26.6998 10.2069 26.7631L11.9647 31.2185C11.9868 31.2494 12 31.2788 12 31.3097C12 31.7758 9.314 32.442 6 32.442ZM5.7651 8.8433C4.581 8.7742 3.5351 8.1801 2.8453 7.2846C4.403 11.1078 5.921 17.8072 2.96 26.3564C3.5086 26.2755 4.2176 26.2167 5.0134 26.1902C5.362 24.011 5.9754 18.6615 5.7651 8.8433Z" fill="#3E31FA"/>
</svg>
