<svg width="16" height="32" viewBox="0 0 16 32" fill="none" xmlns="http://www.w3.org/2000/svg">
<path d="M10.7301 25.274C10.7301 25.274 10.0586 24.027 10.0586 22.7025C10.0586 21.378 10.8408 20.2417 10.8408 20.2417C10.8408 20.2417 15.6 16.5008 15.6 9.78989C15.6 4.82036 13.8476 2.58832 13.8476 2.58832V0.61084H2.15239V2.58463C2.15239 2.58463 0.399994 4.81667 0.399994 9.78619C0.399994 16.4971 5.15919 20.238 5.15919 20.238C5.15919 20.238 5.94139 21.3743 5.94139 22.6988C5.94139 24.0233 5.26989 25.2703 5.26989 25.2703C5.26989 25.2703 4.76809 25.4031 4.62429 25.5876C4.48039 25.772 3.91589 30.5718 3.91589 30.5718C3.91589 30.5718 4.71649 31.7081 8.00369 31.7081C11.2909 31.7081 12.0915 30.5718 12.0915 30.5718C12.0915 30.5718 11.527 25.772 11.3831 25.5876C11.2392 25.4031 10.7375 25.2703 10.7375 25.2703L10.7301 25.274ZM2.15239 14.3019C1.14149 10.1625 2.40699 8.63509 2.40699 8.63509C2.40699 8.63509 2.82389 12.2175 3.64289 14.6745C4.46189 17.1353 6.35819 19.7769 6.35819 19.7769C6.35819 19.7769 3.16699 18.4413 2.15609 14.3019H2.15239ZM12.3571 14.6782C13.1761 12.2175 13.593 8.63879 13.593 8.63879C13.593 8.63879 14.8584 10.1662 13.8476 14.3056C12.8367 18.445 9.64539 19.7806 9.64539 19.7806C9.64539 19.7806 11.5417 17.139 12.3608 14.6782H12.3571Z" fill="#3E31FA"/>
</svg>
