<svg width="24" height="31" viewBox="0 0 24 31" fill="none" xmlns="http://www.w3.org/2000/svg">
<path fill-rule="evenodd" clip-rule="evenodd" d="M18.3345 1.23834C18.281 1.01286 18.2359 0.824022 18.1922 0.638002C17.6214 0.611222 17.0788 0.585852 16.5362 0.559082C15.0239 0.559082 8.9747 0.559082 7.4624 0.559082C6.9212 0.585852 6.3786 0.611222 5.8078 0.638002C5.7627 0.824022 5.7176 1.01286 5.664 1.23834C3.9502 1.23834 2.2336 1.23834 0.5 1.23834C0.70295 1.92746 0.91295 2.57149 1.07926 3.22679C1.51759 4.96157 1.88826 6.71606 2.3731 8.43676C3.1976 11.3652 5.0383 13.5989 7.2623 15.5366C7.8754 16.0707 8.5519 16.5301 9.22 16.9952C9.4384 17.1474 9.5737 17.2855 9.5441 17.5687C9.5202 17.7942 9.5624 18.0282 9.5328 18.2522C9.4793 18.6736 9.5808 18.9526 10.0896 18.9442C9.7414 20.011 9.1636 20.7832 8.0868 21.0919C7.5287 21.2511 6.9776 21.4414 6.4293 21.6372C5.7345 21.8867 5.3737 22.4011 5.3469 23.1423C5.3004 24.4233 5.2539 25.7043 5.2088 26.9853C5.1989 27.2517 5.2426 27.5223 4.941 27.6928C4.8508 27.7421 4.841 27.938 4.7846 28.093C4.4816 28.1395 4.1658 28.2142 3.8473 28.2283C3.5161 28.2438 3.3047 28.3284 3.3893 28.7328C3.2117 28.7906 3.0538 28.8413 2.8734 28.9005C2.8734 29.2176 2.8734 29.5389 2.8734 29.9321C3.7952 30.1125 6.6844 31.0003 11.9993 31.0003C17.3156 31.0003 20.2034 30.1125 21.1266 29.9321C21.1266 29.5389 21.1266 29.2176 21.1266 28.9005C20.9462 28.8413 20.7883 28.7906 20.6107 28.7328C20.6953 28.3284 20.4839 28.2438 20.1513 28.2283C19.8327 28.2142 19.5184 28.1395 19.214 28.093C19.159 27.938 19.1478 27.7421 19.059 27.6928C18.7574 27.5223 18.7997 27.2517 18.7912 26.9853C18.7447 25.7043 18.6996 24.4233 18.6531 23.1423C18.6249 22.4011 18.2655 21.8867 17.5692 21.6372C17.0224 21.4414 16.4713 21.2511 15.9132 21.0919C14.835 20.7832 14.2586 20.011 13.9104 18.9442C14.4178 18.9526 14.5207 18.6736 14.4657 18.2522C14.4376 18.0282 14.4798 17.7942 14.4559 17.5687C14.4263 17.2855 14.5602 17.1474 14.78 16.9952C15.4467 16.5301 16.1246 16.0707 16.7377 15.5366C18.9603 13.5989 20.8024 11.3652 21.6269 8.43676C22.1117 6.71606 22.4824 4.96157 22.9207 3.22679C23.0856 2.57149 23.297 1.92746 23.5 1.23834C21.765 1.23834 20.0498 1.23834 18.3345 1.23834ZM9.5323 16.479C9.2025 16.2676 8.9319 16.1464 8.7233 15.9548C6.7516 14.1551 5.2153 12.0272 4.3359 9.48066C3.6438 7.46966 2.9913 5.43045 2.9279 3.26444C2.9251 3.17988 2.9279 3.09533 2.9279 2.96991C3.8172 2.96991 4.6643 2.96991 5.5592 2.96991C5.5592 3.18693 5.579 3.38282 5.5564 3.57447C5.4169 4.77093 5.679 5.92646 5.8932 7.08636C6.0525 7.95446 6.5486 8.64916 7.0786 9.31716C8.0229 10.508 8.7318 11.8228 9.0729 13.3195C9.18 13.7887 9.2053 14.2778 9.2786 14.7555C9.3406 15.1599 9.2138 15.601 9.5225 15.966C9.5887 16.0435 9.5323 16.2282 9.5323 16.479ZM21.0714 3.26444C21.0066 5.43045 20.3554 7.46966 19.662 9.48066C18.7839 12.0272 17.2463 14.1551 15.276 15.9548C15.0674 16.1464 14.7968 16.2676 14.467 16.479C14.467 16.2282 14.4106 16.0435 14.4754 15.966C14.7855 15.601 14.6586 15.1599 14.7206 14.7555C14.7925 14.2778 14.8193 13.7887 14.9264 13.3195C15.2675 11.8228 15.975 10.508 16.9193 9.31716C17.4507 8.64916 17.9468 7.95446 18.106 7.08636C18.3188 5.92646 18.5824 4.77093 18.4429 3.57447C18.4203 3.38282 18.4401 3.18693 18.4401 2.96991C19.3336 2.96991 20.1821 2.96991 21.0714 2.96991C21.0714 3.09533 21.0742 3.17988 21.0714 3.26444Z" fill="#3E31FA"/>
</svg>
