<svg width="20" height="33" viewBox="0 0 20 33" fill="none" xmlns="http://www.w3.org/2000/svg">
<path fill-rule="evenodd" clip-rule="evenodd" d="M11.1499 15.6094C13.3021 15.6094 15.2839 12.0711 15.2839 12.0711C17.6994 12.0711 19.5 9.07063 19.5 0.248047H15.2002V2.24645L15.054 2.36145C15.054 2.36145 12.0023 1.79688 10.0008 1.79688C7.9977 1.79688 4.9475 2.36145 4.9475 2.36145L4.8014 2.24645V0.248047H0.5C0.5 9.07063 2.3006 12.0711 4.7177 12.0711C4.7177 12.0711 6.6979 15.6094 8.8516 15.6094V16.9013C8.8516 16.9013 9.0312 17.5555 9.0312 18.2739C9.0312 20.7249 4.0495 22.7308 4.0495 23.8524C4.0495 24.9756 4.0495 28.6408 4.0495 28.6408C4.0495 28.6408 3.089 28.7902 3.089 29.9731C3.089 31.156 6.2793 32.5122 10.0008 32.5122C13.7222 32.5122 16.911 31.156 16.911 29.9731C16.911 28.7902 15.9505 28.6408 15.9505 28.6408C15.9505 28.6408 15.9505 24.9756 15.9505 23.8524C15.9505 22.7308 10.9688 20.7249 10.9688 18.2739C10.9688 17.5555 11.1499 16.9013 11.1499 16.9013V15.6094ZM15.2834 3.36496L15.3017 3.36794L15.7842 2.99007L16.1479 2.70629V1.1933H18.5437C18.4417 7.60673 17.294 11.1225 15.2834 11.124V3.36496ZM4.7164 11.124C2.7057 11.1225 1.5581 7.60673 1.4561 1.1933H3.8518V2.70629L4.2156 2.99007L4.3617 3.10358L4.6981 3.36794L4.7164 3.36496V11.124Z" fill="#3E31FA"/>
</svg>
