<svg width="18" height="31" viewBox="0 0 18 31" fill="none" xmlns="http://www.w3.org/2000/svg">
<path d="M16.9156 29.9006C16.9156 29.9006 17.0326 29.625 17.0493 29.5594C17.066 29.4938 16.8187 28.116 16.8187 28.116C16.8087 28.1095 16.7752 28.1029 16.7251 28.1062V23.5859H16.7318L16.7251 23.576V23.5465H16.7084L15.2011 20.8435H13.647V19.5444H12.8215C12.8081 18.9966 12.4505 18.557 12.153 18.2815C11.9391 18.0814 11.7586 17.9633 11.7586 17.9633H11.6718C9.97063 17.7599 10.0441 16.1164 10.0942 15.6769C10.776 15.4144 11.2406 14.9158 11.2406 14.3418C11.2406 13.8399 10.8863 13.3937 10.3416 13.1149C13.0387 12.7967 14.2018 11.7568 14.6931 10.8252C16.7385 8.87993 17.7244 8.87673 17.8414 8.71593C17.925 7.53173 16.6449 7.74173 16.6449 7.74173L14.9872 8.95873C14.9872 8.95873 14.9939 8.98493 14.9805 9.05383C14.7399 8.55523 14.1182 8.22393 14.0815 8.20423C14.0781 6.83633 13.9311 2.98514 16.2472 1.03004C15.7659 0.987388 1.75553 0.944748 1.71213 0.987388C1.71213 0.987388 4.27223 2.99498 3.93133 8.24353H3.92463C3.92463 8.24353 3.39323 8.31903 2.98883 9.01773C2.98213 8.97183 2.98213 8.94883 2.98883 8.95873L1.32773 7.74173C1.32773 7.74173 0.0510279 7.53173 0.134628 8.71593C0.251628 8.87673 1.28093 8.87673 3.41993 10.9564C3.42333 10.9663 3.42333 10.9564 3.41993 10.9302C4.29893 12.5048 6.28423 12.9542 7.65453 13.1149C7.10973 13.3937 6.75883 13.8366 6.75883 14.3385C6.75883 14.906 7.21003 15.398 7.87843 15.6638C7.91523 16.1394 7.94523 17.9502 6.30763 17.9535C6.15053 17.9535 6.32093 17.9535 6.68193 17.96H6.28753C6.28753 17.96 6.11043 18.065 5.89653 18.2552C5.58903 18.5275 5.20133 18.9802 5.19463 19.5444H4.35243V20.8435H2.76823L1.30103 23.5465V23.553V28.1062C1.23423 28.1029 1.19403 28.1062 1.18073 28.116C1.18073 28.116 0.933428 29.4971 0.950128 29.5594C0.966828 29.625 1.08383 29.9006 1.08383 29.9006C1.08383 29.9006 -0.176172 30.0941 0.020928 30.7108C0.244928 31.0159 1.03363 31.0192 1.23083 30.8748C1.96943 30.163 2.68803 29.6513 2.96873 29.461H15.0306C15.308 29.6513 16.0299 30.163 16.7686 30.8748C16.9691 31.0225 17.7578 31.0192 17.9784 30.7108C18.179 30.0941 16.9156 29.9006 16.9156 29.9006Z" fill="#3E31FA"/>
</svg>
