<svg width="113" height="93" viewBox="0 0 113 93" fill="none" xmlns="http://www.w3.org/2000/svg">
<g clip-path="url(#clip0_1_110)">
<path d="M36.6367 29.881C32.5864 29.881 29.3031 33.1631 29.3031 37.2134V51.9885C29.3031 56.0398 32.5864 59.323 36.6367 59.323H77.1709C81.2212 59.323 84.5031 56.0409 84.5031 51.9885V22.4928C84.5031 18.4438 81.2212 15.1617 77.1709 15.1617H29.3031V22.5213H74.7662C76.0795 22.5213 77.1436 23.5855 77.1436 24.8987V49.585C77.1436 50.8971 76.0795 51.9623 74.7662 51.9623H39.0402C37.728 51.9623 36.664 50.896 36.664 49.585V39.6181C36.664 38.3059 37.728 37.2419 39.0402 37.2419H69.7828V29.8822L36.6367 29.881Z" fill="#14142B"/>
<path d="M70.6206 73.8956C70.6206 76.5882 68.7861 78.0836 66.2813 78.0836C63.772 78.0836 61.9409 76.5882 61.9409 73.8956C61.9409 71.2053 63.772 69.7076 66.2813 69.7076C68.7861 69.7076 70.6206 71.2053 70.6206 73.8956ZM52.7058 77.8355H54.5938L55.0797 76.7884C55.6646 77.7137 56.608 78.0836 57.6676 78.0836C60.1917 78.0836 61.1329 76.1171 61.1329 73.8956C61.1329 71.6798 60.1929 69.7076 57.6676 69.7076C56.9142 69.7076 56.1233 70.1617 55.5019 70.8685V66.6828H51.3277V68.0279H52.1015C52.5885 68.0279 52.7058 68.2771 52.7058 68.7528V77.8355ZM43.267 77.8355H45.1549L45.6409 76.7884C46.227 77.7137 47.1704 78.0836 48.2287 78.0836C50.753 78.0836 51.6941 76.1171 51.6941 73.8956C51.6941 71.6798 50.7541 69.7076 48.2287 69.7076C47.4766 69.7076 46.6844 70.1617 46.0608 70.8685V66.6828H41.8888V68.0279H42.6627C43.1497 68.0279 43.267 68.2771 43.267 68.7528V77.8355ZM35.3964 69.1853H35.4305L36.6392 72.8065H34.198L35.3964 69.1853ZM34.388 66.6816L31.5794 75.0894C31.238 76.116 31.007 76.3526 30.4187 76.3526H29.8451V77.8343H34.7898V76.3526H34.3061C33.8498 76.3526 33.2592 76.3014 33.2592 76.0294C33.2592 75.7938 33.3274 75.5445 33.5107 74.9585L33.7156 74.2849H37.1467L37.4983 75.4934C37.5655 75.7461 37.5826 75.9315 37.5826 76.1035C37.5826 76.2866 37.1625 76.3537 36.6573 76.3537H36.1543V77.8355H42.2917V76.3537H41.7204C41.1355 76.3537 40.8988 76.116 40.5641 75.0906L37.7532 66.6828L34.388 66.6816ZM48.7193 73.8956C48.7193 75.614 48.3358 76.6393 47.3901 76.6393C46.4489 76.6393 46.062 75.614 46.062 73.8956C46.062 72.1817 46.4489 71.1563 47.3901 71.1563C48.3358 71.1563 48.7193 72.1817 48.7193 73.8956ZM66.2813 71.0539C65.273 71.0539 64.9191 71.9108 64.9191 73.8956C64.9191 75.8792 65.273 76.7372 66.2813 76.7372C67.2895 76.7372 67.6413 75.8792 67.6413 73.8956C67.6401 71.9108 67.2885 71.0539 66.2813 71.0539ZM82.6131 74.0322V75.3432C82.6131 76.1171 82.4458 76.5745 81.8063 76.5745C81.4204 76.5745 81.2361 76.2866 81.2361 75.9327V71.3065H83.3005V69.9603H81.2361V66.8353H79.5678C79.4312 68.2294 78.9954 69.9603 77.3134 69.9603H74.6914V66.8353H73.0275C72.892 68.2294 72.4529 69.9603 70.7742 69.9603V71.3065H71.8997V75.5276C71.8997 77.2437 72.858 78.0836 74.5877 78.0836C76.6111 78.0836 77.4124 77.1777 77.4124 75.5276V74.0322H76.0718V75.3432C76.0718 76.1171 75.9022 76.5745 75.2649 76.5745C74.8745 76.5745 74.6902 76.2866 74.6902 75.9327V71.3065H78.4457V75.5276C78.4457 77.2437 79.4005 78.0836 81.1337 78.0836C83.1503 78.0836 83.9605 77.1777 83.9605 75.5276V74.0322H82.6131ZM58.1569 73.8956C58.1569 75.614 57.7746 76.6393 56.8265 76.6393C55.8866 76.6393 55.5007 75.614 55.5007 73.8956C55.5007 72.1817 55.8866 71.1563 56.8265 71.1563C57.7746 71.1563 58.1569 72.1817 58.1569 73.8956Z" fill="#14142B"/>
</g>
<defs>
<clipPath id="clip0_1_110">
<rect width="112.13" height="92" fill="white" transform="translate(0.730042 0.359985)"/>
</clipPath>
</defs>
</svg>
