<svg width="49" height="40" viewBox="0 0 49 40" fill="none" xmlns="http://www.w3.org/2000/svg">
<g clip-path="url(#clip0_1_1524)">
<mask id="mask0_1_1524" style="mask-type:luminance" maskUnits="userSpaceOnUse" x="0" y="0" width="49" height="40">
<path d="M48.59 0H0.589966V40H48.59V0Z" fill="white"/>
</mask>
<g mask="url(#mask0_1_1524)">
<mask id="mask1_1_1524" style="mask-type:luminance" maskUnits="userSpaceOnUse" x="0" y="2" width="49" height="37">
<path d="M48.59 2H0.589966V38.2682H48.59V2Z" fill="white"/>
</mask>
<g mask="url(#mask1_1_1524)">
<path d="M37.8535 29.3494C38.1048 28.8852 38.3031 27.7053 37.4441 27.7693C36.4488 27.8442 36.638 30.4909 36.638 30.4909C36.9707 30.1299 37.4706 30.0559 37.8535 29.3494Z" fill="#14142B"/>
<path d="M28.0994 31.6972C28.0994 32.0656 28.3461 32.4247 28.6916 32.4247C29.3075 32.4247 29.4483 32.2227 29.5872 32.0994L29.5844 29.6858C29.271 30.0678 28.0994 30.2661 28.0994 31.6972Z" fill="#14142B"/>
<path d="M30.6856 17.1415C31.3601 17.6835 31.68 17.1013 31.2276 16.4799C31.0485 16.234 30.3548 16.3044 30.1501 16.5219C30.1501 16.5219 30.5129 17.0035 30.6856 17.1415Z" fill="#14142B"/>
<path d="M24.8377 14.0433C24.5087 13.4676 23.4677 12.3992 23.4677 12.3992C23.4677 12.3992 21.6445 14.2746 21.5842 14.3385C21.2945 14.6419 21.2442 14.7169 20.9737 14.8796H24.2802C25.1758 14.8796 24.9976 14.323 24.8377 14.0433Z" fill="#14142B"/>
<path d="M0.589966 2V38.2682H48.5899V2H0.589966ZM26.4141 14.4355C26.4169 14.2911 26.4141 10.2608 26.4141 10.0926C26.4141 9.38984 26.7888 8.82228 26.8957 8.7108C27.0283 8.5728 28.4494 7.2906 28.5453 7.19372L28.9438 7.2056C28.8542 7.30064 28.3461 7.72468 28.1926 7.89652C28.0418 8.06468 27.7502 8.41196 27.7502 9.03796C27.7502 9.20612 27.7475 13.0244 27.7475 13.2108C27.7475 14.0032 27.3299 14.5077 27.1544 14.7069C27.02 14.8604 25.7323 16.0019 25.609 16.1198L25.2306 16.1134C25.2891 16.0494 25.9581 15.4417 26.0668 15.3329C26.2213 15.1794 26.4086 14.7426 26.4141 14.4355ZM19.6293 14.4218C19.7801 14.5963 19.9327 14.8001 20.3029 14.7946C20.5916 14.7901 20.8951 14.5634 20.9764 14.4821C21.0605 14.3971 23.1972 12.1635 23.1972 12.1635C23.1972 12.1635 22.1965 11.2359 21.5375 10.7945C21.2158 10.5788 20.789 10.8512 20.7241 11.1354C20.5222 12.0237 20.7241 13.3562 20.7241 13.3562C20.7241 13.3562 20.0707 12.7046 19.9135 12.5474C19.5873 12.2202 19.5991 11.4808 19.9875 11.0915C20.0488 11.0294 20.641 10.3595 21.3941 10.3595H22.5657C23.3525 10.3595 24.2125 11.1427 24.2125 11.1427C24.2125 11.1427 24.3386 11.0047 24.3386 10.8704C24.3386 10.4673 24.3231 9.38068 24.3231 9.38068C23.7318 8.78848 23.6514 8.17892 23.9347 7.8956C24.4639 7.36644 24.6567 7.18 24.6567 7.18C24.6567 7.18 24.6503 7.8234 25.2681 8.44028C25.4801 8.65232 25.9371 9.22716 25.6629 9.50132C25.4207 9.74352 25.046 10.1274 25.046 10.1274C25.0268 9.98844 24.6759 9.65576 24.6759 9.65576C24.6759 9.65576 24.6795 10.6766 24.6759 10.8027C24.664 11.2633 24.4903 11.3949 24.4903 11.3949C24.4903 11.3949 25.3421 12.2403 25.3421 13.3251C25.3421 13.8515 25.3439 14.3359 25.3439 14.44C25.3439 14.6621 25.2882 14.8348 25.1328 15.0058C25.0561 15.0908 24.2673 15.884 24.1467 15.9919C23.9183 16.1975 23.6779 16.2322 23.4969 16.2322H20.5615C20.0991 16.2322 19.6229 15.8712 19.6229 15.5102C19.6229 15.4198 19.6293 14.4218 19.6293 14.4218ZM18.4741 12.6369C18.5363 12.6634 18.8771 12.8005 18.8771 14.111C18.8771 14.111 18.8543 15.6345 18.8543 15.7159C18.8543 16.3803 19.3825 17.1416 20.1447 17.1416C20.301 17.1416 26.4077 17.1352 26.4077 17.1352C26.4132 16.967 26.5813 16.3282 26.882 15.99C27.0529 15.8 28.3964 14.5708 28.5499 14.4528L28.9475 14.4483C28.8881 14.5031 28.2392 15.0853 28.0939 15.2388C27.9175 15.4243 27.7493 15.8794 27.7493 16.2798V17.1342H28.6166C28.9539 17.1342 29.398 16.8272 29.4949 16.6654C29.5003 16.6535 29.4949 15.8173 29.4949 15.8173C29.4949 15.8173 29.7179 16.1362 29.9582 16.3044C30.0487 16.1902 30.8374 15.2333 31.4991 15.2278C32.6021 15.2187 32.3536 16.6115 31.9021 17.0566C31.7559 17.2 31.1043 17.7977 30.9023 17.9896C30.3814 18.4859 29.4894 18.2483 29.4894 16.9661C29.4894 16.9661 28.5316 17.8754 28.3881 17.9951C28.2437 18.1158 27.7502 18.6385 27.7502 18.6385V20.8913C27.7502 21.9715 27.3947 22.3344 27.0995 22.6588C26.9853 22.7849 25.7689 23.8953 25.6062 24.015L25.2087 24.0242C25.2087 24.0242 25.9206 23.3771 26.0632 23.2291C26.2249 23.0609 26.4141 22.7182 26.4141 22.1488C26.4141 22.0044 26.3958 18.6093 26.3958 18.6093H20.8621C18.9375 18.6093 18.5262 16.4735 18.5143 15.9014C18.5107 15.7332 18.5143 14.027 18.5143 13.7628C18.5143 13.4119 18.2895 12.8197 17.9313 12.6369H18.4741ZM29.3943 20.7076C29.2947 20.6016 28.7884 20.0788 28.7884 20.0788V18.347C28.7884 18.347 29.2481 18.7802 29.3203 18.8524C29.4528 18.9849 29.929 19.4263 29.929 20.1848V22.4431C29.929 23.2565 29.6895 24.1265 29.0425 24.7745C28.3945 25.4215 27.413 25.8812 26.3401 25.8812H25.2845L23.7081 24.504H26.3593C27.3774 24.504 28.1167 23.8057 28.3763 23.5526C29.8568 22.1086 29.8623 21.2048 29.3943 20.7076ZM23.4348 20.5568C23.4348 20.8593 22.4688 21.6617 22.4121 21.7184C22.3427 21.393 22.0987 21.033 21.3785 20.3128L22.4359 19.2554C23.1442 19.9646 23.4348 20.1154 23.4348 20.5568ZM21.2743 20.5614C21.2743 20.863 20.3083 21.6663 20.2517 21.723C20.1822 21.3967 19.9382 21.0375 19.2181 20.3164L20.2745 19.2591C20.9837 19.9682 21.2743 20.119 21.2743 20.5614ZM17.8143 17.3481C17.8143 17.3481 18.2182 17.3481 18.2173 18.8222V20.2561C18.2173 21.9999 19.7883 23.0362 20.9508 23.0079C21.1427 23.0024 23.9685 23.0015 24.1074 23.0015C24.7993 23.0015 25.3933 21.9788 24.6466 21.3894C24.4876 21.2642 24.1248 20.8785 24.1248 20.8785V19.1092C24.1248 19.1092 24.4931 19.4601 24.6265 19.5936C24.8358 19.8028 25.2681 20.1136 25.2681 20.8602V21.7239C25.2681 22.6076 24.9482 22.8809 24.6475 23.2172C24.5561 23.3177 24.3076 23.5974 24.1165 23.7674C23.5947 24.2298 23.2922 24.4391 22.4286 24.4391H20.9919C19.2711 24.4391 17.8545 22.8516 17.8545 21.1344V18.495C17.8545 17.668 17.2714 17.3481 17.2714 17.3481H17.8143ZM22.4514 26.1856C22.4514 26.5676 22.1352 26.8774 21.745 26.8774C21.3547 26.8774 21.0376 26.5676 21.0385 26.1856C21.0385 25.8035 21.3547 25.4937 21.745 25.4937C22.1352 25.4937 22.4514 25.8035 22.4514 26.1856ZM11.5422 32.1872C11.5422 32.5024 11.2579 33.0855 10.4437 33.0855H8.67163H8.09403H6.84839C6.84839 33.0855 6.40423 33.0544 6.40423 31.945L6.38687 27.5244C6.40423 26.4213 5.77087 25.8794 5.77087 25.8794H9.41735C11.2845 25.8794 11.4334 27.1588 11.4334 27.1588C10.6566 26.6416 9.90903 26.6562 8.94211 26.6553C8.87083 26.6553 7.82535 26.6516 7.82535 26.6516C7.99075 26.8518 7.99075 27.529 7.99075 27.529V27.8296V28.3067H8.77763C9.99127 28.3067 10.3998 29.291 10.3998 29.291C9.83227 28.9693 9.24919 29.0388 8.78035 29.0388C8.36179 29.0388 7.99167 29.0479 7.99167 29.0479V31.4743C8.03827 31.8526 7.99715 32.295 8.53087 32.295C8.72095 32.295 10.0498 32.2968 10.2216 32.2968C11.2954 32.2968 11.5541 31.764 11.5541 31.7631L11.5422 32.1872ZM18.8534 33.0718C18.8534 33.0718 18.4083 33.0828 18.4019 31.9248C18.401 31.6854 18.4037 29.1018 18.4037 29.1018C18.4129 28.6677 18.03 28.282 17.573 28.282C16.9991 28.282 16.7989 28.696 16.7423 28.866L16.7469 31.912C16.7469 32.666 17.3281 33.0754 17.3281 33.0754H15.8083C15.8083 33.0754 15.3568 33.0727 15.3568 31.9221L15.3577 29.0927C15.3669 28.6586 14.9602 28.2729 14.59 28.2729C13.9366 28.2729 13.7081 28.7335 13.6889 28.8688V31.913C13.6889 32.6478 14.2309 33.0563 14.2702 33.0764H12.7558C12.7558 33.0764 12.2989 33.0563 12.2989 31.923L12.2998 28.4895C12.2998 27.561 11.7679 27.3425 11.7679 27.3425L12.6864 27.3407C13.6241 27.3407 13.6515 28.4146 13.6515 28.4146C13.6515 28.4146 13.9476 27.3032 15.1155 27.3032C15.7333 27.3032 16.4873 27.6441 16.703 28.3972C16.8263 28.1194 17.1151 27.3115 18.0821 27.3115C18.8123 27.3115 19.792 27.6304 19.792 28.8304V31.923C19.792 32.6752 20.3732 33.0754 20.3732 33.0754C20.3732 33.0754 19.6448 33.0718 18.8534 33.0718ZM21.5174 33.0727C21.5174 33.0727 21.0531 33.08 21.0531 31.9303V31.9248L21.055 28.4822C21.055 27.5738 20.5286 27.3407 20.5286 27.3407H21.4471C21.7706 27.3407 22.445 27.3407 22.445 28.6248L22.4432 31.9157L22.4487 31.9221C22.4487 32.6843 23.0317 33.0764 23.0317 33.0764C23.0317 33.0764 22.3089 33.0727 21.5174 33.0727ZM25.7506 33.0746H24.2363C24.2363 33.0746 23.7793 33.0554 23.7793 31.9212L23.7811 28.4831C23.7811 27.5555 23.2483 27.337 23.2483 27.337L24.1668 27.3343C24.8385 27.3343 25.078 27.5984 25.1547 28.4913C25.1547 28.4913 25.3869 27.3617 26.3383 27.3617C26.967 27.3617 27.1133 27.7739 27.1133 27.7739H27.1142V28.7472C26.7239 28.2702 26.0421 28.1934 25.5432 28.5169C25.343 28.6458 25.2114 28.8422 25.1712 29.0972L25.1694 31.913C25.1694 32.6468 25.7113 33.0563 25.7506 33.0746ZM30.035 33.0718C30.035 33.0718 29.7124 33.0352 29.61 32.3973C29.4382 32.7291 29.027 33.0864 28.3425 33.0864C27.6387 33.0864 27.0776 32.8415 26.9122 32.0007C26.4918 29.8814 29.2326 29.7507 29.5845 29.1338C29.7773 28.7975 29.6996 28.5388 29.6987 28.537C29.7033 28.3451 29.6466 27.9612 28.8753 27.9612C28.0856 27.9612 27.774 28.7536 27.774 28.7536V27.7538C27.774 27.7538 28.3233 27.3334 29.196 27.3334C30.1045 27.3334 30.9589 27.9338 30.9589 28.7043V31.9267C30.9589 32.6834 31.5493 33.0746 31.5493 33.0746C31.5493 33.0746 30.8264 33.0718 30.035 33.0718ZM35.0752 28.2053C35.0752 28.2053 34.6923 27.9814 34.1795 27.9814C33.9301 27.9814 34.2051 27.9804 33.8057 27.9795L33.8039 31.9568C33.8039 32.6852 34.3888 33.0764 34.3888 33.0764C34.3888 33.0764 33.7071 33.0727 32.8763 33.0727C32.8763 33.0727 32.4139 33.0727 32.4139 31.9669L32.4157 27.9768L31.4543 27.9594C31.4543 27.9594 32.3572 27.5226 32.7877 27.1698C33.4722 26.6078 33.8067 26.0284 33.8067 26.0284L33.8057 27.3407H35.0797L35.0752 28.2053ZM37.4943 32.3078C37.7246 32.4147 38.6604 32.7519 39.2663 31.7064L39.2617 32.6322C39.2617 32.6322 38.8733 33.0837 37.6387 33.0837C36.1508 33.0837 35.1318 31.9139 35.1318 30.3274C35.1318 28.7673 35.9626 27.3197 37.5308 27.3115C39.068 27.3032 39.8997 28.5452 38.7838 29.7132C37.9339 30.6024 37.2676 30.4626 36.7339 31.1142C36.7339 31.1151 36.8198 31.997 37.4943 32.3078ZM41.3483 33.0782C40.4755 33.0782 39.9061 32.6724 39.9061 32.6724V31.648C39.9061 31.648 40.2213 32.4558 41.0111 32.4558C41.7815 32.4558 42.1443 31.9239 42.1359 31.5191C42.1303 31.2294 41.9695 30.9305 41.5299 30.6865C41.2275 30.5184 40.9671 30.3602 40.7479 30.1976C40.1949 29.7845 39.9088 29.3458 39.8951 28.6695C39.8787 27.8982 40.7039 27.2987 41.6123 27.2987C42.4851 27.2987 43.0607 27.7556 43.0607 27.7556L43.0635 28.7152C43.0635 28.7152 42.7427 27.9229 41.9907 27.9229C41.2183 27.9229 41.1259 28.3104 41.1343 28.5023C41.1379 28.611 41.2879 28.9208 41.5695 29.0945C42.0639 29.3988 42.7015 29.7269 43.0527 30.1967C43.2627 30.48 43.4007 30.809 43.4079 31.1946C43.4319 32.2904 42.3847 33.0782 41.3483 33.0782Z" fill="#14142B"/>
</g>
</g>
</g>
<defs>
<clipPath id="clip0_1_1524">
<rect width="48.4" height="40" fill="white" transform="translate(0.269958)"/>
</clipPath>
</defs>
</svg>
