<svg width="122" height="93" viewBox="0 0 122 93" fill="none" xmlns="http://www.w3.org/2000/svg">
<g clip-path="url(#clip0_1_122)">
<g clip-path="url(#clip1_1_122)">
<path d="M9.42115 64.4834L11.8675 56.5153H9.33201L6.36584 66.1777H12.7728L13.3396 64.4834H9.42115Z" fill="#231815"/>
<path d="M17.0102 56.5153L14.0434 66.1777H16.6134L19.579 56.5153H17.0102Z" fill="#231815"/>
<path d="M92.7237 56.4124L89.3897 66.2016H91.9585L95.2919 56.4124H92.7237Z" fill="#231815"/>
<path d="M27.1265 56.5153L25.2608 62.1294L23.8132 56.514H21.2902L18.3247 66.1778H20.6763L22.5376 60.6667L23.7937 66.1778H26.5126L29.4787 56.5153H27.1265Z" fill="#231815"/>
<path d="M29.3726 61.6089C29.1768 62.2467 29.0814 62.7866 29.0814 63.2674C29.082 63.8048 29.1975 64.2712 29.4398 64.7471C29.7273 65.302 30.1285 65.6931 30.6953 65.958C31.2622 66.2211 32.0017 66.3523 32.9471 66.3535C34.3847 66.3523 35.7545 66.0817 37.241 65.4138L38.6359 60.87H34.6866L34.1825 62.479H35.6408L35.0256 64.4784L34.9359 64.5098L34.9145 64.5167C34.5266 64.6447 34.1116 64.673 33.7186 64.673C33.2083 64.6743 32.7123 64.5939 32.4179 64.3001C32.1229 64.0076 31.8975 63.6447 31.8994 63.1331C31.8994 62.6698 32.0004 62.1249 32.1969 61.4852C32.5485 60.3371 33.072 59.5185 33.6245 58.9585C34.1756 58.396 34.9917 58.1311 35.8197 58.133H35.8222C36.6634 58.1342 37.376 58.2309 37.9001 58.7174L39.6623 57.3891C38.8656 56.7155 37.7256 56.3571 36.3697 56.3571C35.3401 56.3571 34.6138 56.4795 33.6496 56.8624C31.524 57.7055 30.0186 59.5059 29.3726 61.6102V61.6089Z" fill="#231815"/>
<path d="M65.2134 56.509L63.3502 62.1244L61.9019 56.509H59.3783L56.4122 66.1721H58.765L60.6244 60.6598L61.8818 66.1721H64.6L67.5656 56.509H65.2134Z" fill="#231815"/>
<path d="M67.3289 61.6032C67.1331 62.2404 67.037 62.779 67.037 63.2605C67.0376 63.7985 67.1538 64.2649 67.3955 64.7414C67.6836 65.2951 68.0841 65.6856 68.6516 65.9505C69.2178 66.2148 69.9573 66.3466 70.9034 66.3466C72.341 66.3466 73.7101 66.0748 75.1973 65.4068L76.5915 60.8637H72.6153L72.1388 62.4708H73.5958L72.9819 64.4715L72.8909 64.5022L72.8708 64.5098C72.4822 64.6366 72.0685 64.6661 71.6743 64.6661C71.1633 64.6667 70.668 64.5863 70.3729 64.2932C70.0791 64 69.8544 63.6378 69.8556 63.1262V63.1249C69.8556 62.6616 69.9573 62.1167 70.1526 61.4777C70.5054 60.3308 71.0277 59.5109 71.5801 58.9509C72.1307 58.3897 72.9474 58.1236 73.7754 58.1261H73.7798C74.6191 58.1279 75.3316 58.2227 75.857 58.7093L77.6198 57.3815C76.8232 56.708 75.6831 56.3489 74.3259 56.3489C73.297 56.3501 72.3045 56.4474 71.3409 56.8285C69.2147 57.6709 67.9743 59.4984 67.3295 61.6026L67.3289 61.6032Z" fill="#231815"/>
<path d="M41.8036 64.4835L44.2499 56.514H41.7138L38.7482 66.1778H45.1564L45.7208 64.4835H41.8036Z" fill="#231815"/>
<path d="M50.8289 64.7591C50.8037 64.7578 50.7855 64.7528 50.7724 64.749C50.783 64.7528 50.8037 64.7591 50.8289 64.7591Z" fill="#231815"/>
<path d="M50.7378 64.7327C50.741 64.7339 50.7429 64.7358 50.7485 64.739C50.7416 64.7346 50.7378 64.7321 50.7378 64.7321V64.7327Z" fill="#231815"/>
<path d="M56.3337 57.2121C55.7907 56.6923 54.8924 56.342 53.4642 56.3389C50.5175 56.3433 47.7955 58.1405 46.7202 61.6321C46.5274 62.2574 46.4345 62.8287 46.4345 63.3371C46.4383 64.2769 46.7434 64.9938 47.3498 65.4954C47.9575 65.9963 48.8935 66.2864 50.1741 66.2882C52.1811 66.2864 53.6105 65.6373 54.6645 64.641C55.7166 63.6435 56.3902 62.2856 56.8271 60.8644C56.9935 60.3233 57.0945 59.7608 57.0945 59.2297C57.0914 58.4406 56.8761 57.7306 56.3337 57.2115V57.2121ZM54.2633 59.2605C54.2621 59.7683 54.1265 60.4256 53.8553 61.3139C53.4573 62.614 53.0662 63.4508 52.586 63.9812C52.1516 64.464 51.6318 64.6692 51.0398 64.7006V64.705H50.8477C50.4133 64.7038 50.0253 64.6316 49.7309 64.3861C49.4359 64.1363 49.2952 63.742 49.2965 63.2229V63.216C49.2984 62.7075 49.4214 62.0596 49.6826 61.2097C49.9826 60.2335 50.3737 59.4187 50.8797 58.8361C51.3411 58.3031 51.9136 57.966 52.5772 57.9139V57.9064H52.763C53.1961 57.9076 53.5684 57.9685 53.8522 58.1933C54.1365 58.4193 54.2646 58.7846 54.264 59.2498V59.2598L54.2633 59.2605Z" fill="#231815"/>
<path d="M82.392 66.2016L85.0204 58.069H82.1987L82.7335 56.4124H90.5127L89.9779 58.069H87.2911L84.6626 66.2016H82.3926H82.392Z" fill="#231815"/>
<path d="M94.6176 66.2016L97.7816 56.4124H101.941C102.988 56.4124 103.719 56.5002 104.136 56.676C104.554 56.853 104.833 57.165 104.973 57.6145C105.112 58.064 105.087 58.5781 104.902 59.1575C104.664 59.8914 104.252 60.4978 103.665 60.9774C103.079 61.4558 102.335 61.7577 101.436 61.882C101.783 62.1319 102.047 62.4043 102.23 62.7031C102.411 63.0013 102.615 63.5312 102.841 64.2926L103.418 66.2023H101.055L100.314 64.0717C100.053 63.3108 99.8607 62.8318 99.7383 62.6328C99.6146 62.4351 99.4608 62.2995 99.275 62.226C99.0892 62.152 98.7697 62.1156 98.3152 62.1156H98.0534L96.7326 66.2023H94.6164L94.6176 66.2016ZM98.5594 60.5531H99.8833C100.831 60.5531 101.437 60.5129 101.698 60.4325C101.959 60.3528 102.189 60.2141 102.386 60.0182C102.583 59.8217 102.729 59.5775 102.823 59.2837C102.93 58.9542 102.928 58.6886 102.817 58.4858C102.708 58.2837 102.5 58.1556 102.198 58.1017C102.044 58.0797 101.567 58.069 100.765 58.069H99.3616L98.5587 60.5531H98.5594Z" fill="#231815"/>
<path d="M105.582 66.2016L108.745 56.4124H116.004L115.469 58.069H110.432L109.731 60.2379H114.401L113.868 61.8877H109.198L108.337 64.5519H113.56L113.029 66.201H105.583L105.582 66.2016Z" fill="#231815"/>
<path d="M31.7022 43.2055C32.362 47.0813 37.848 49.6187 45.7233 50.4046L46.2889 48.5986C41.3013 47.4667 38.2121 45.1767 37.7149 42.262C36.7714 36.7345 45.8576 29.966 60.2836 27.4048L60.679 26.1555C43.7546 28.8335 30.571 36.5613 31.7022 43.2055Z" fill="#004098"/>
<path d="M54.0373 47.6005L59.4267 30.2573H53.4159L46.6963 51.9502H67.2316L68.5587 47.6005H54.0373Z" fill="#004098"/>
<path d="M63.2428 41.8677L68.9266 23.4863L62.9195 23.4844L55.8817 46.2124H76.7309L78.0862 41.8677H63.2428Z" fill="#6FBA2C"/>
<path d="M91.7231 32.6899C91.2899 29.9805 88.4951 27.8963 84.1736 26.6232C80.3618 25.5008 75.4496 24.9741 69.8155 25.2076L69.371 26.6766C75.6536 26.7306 80.2915 27.9698 83.2031 30.02C84.7085 31.0803 85.635 32.4476 85.8767 33.9467C86.3764 37.0553 83.7153 40.5086 79.0505 43.2319L78.3769 45.3895C87.0098 41.7999 92.4111 36.9926 91.7237 32.6893L91.7231 32.6899Z" fill="#004098"/>
</g>
</g>
<defs>
<clipPath id="clip0_1_122">
<rect width="120.53" height="92" fill="white" transform="translate(0.920013 0.359985)"/>
</clipPath>
<clipPath id="clip1_1_122">
<rect width="120.53" height="92" fill="white" transform="translate(0.920013 0.359985)"/>
</clipPath>
</defs>
</svg>
