<svg width="111" height="93" viewBox="0 0 111 93" fill="none" xmlns="http://www.w3.org/2000/svg">
<g clip-path="url(#clip0_1_259)">
<g clip-path="url(#clip1_1_259)">
<g clip-path="url(#clip2_1_259)">
<mask id="mask0_1_259" style="mask-type:luminance" maskUnits="userSpaceOnUse" x="0" y="0" width="111" height="93">
<path d="M110.45 0.364136H0.0600433V92.3558H110.45V0.364136Z" fill="white"/>
</mask>
<g mask="url(#mask0_1_259)">
<mask id="mask1_1_259" style="mask-type:luminance" maskUnits="userSpaceOnUse" x="0" y="0" width="111" height="93">
<path d="M110.45 0.364136H0.0600433V92.3558H110.45V0.364136Z" fill="white"/>
</mask>
<g mask="url(#mask1_1_259)">
<path d="M27.1828 42.3242C25.61 44.5498 23.0282 46.0335 20.0905 46.0335C15.3128 46.0335 11.4551 42.1461 11.4551 37.3982C11.4551 32.6502 15.3128 28.7628 20.0905 28.7628C21.7819 28.7628 23.3547 29.2376 24.6604 30.0685L20.0905 37.3685L28.6961 32.4129C27.3014 30.2763 25.2539 28.6144 22.8205 27.7242C20.8916 27.012 18.8441 26.6262 16.6779 26.6262C14.5117 26.6262 12.4344 27.012 10.5352 27.7242C8.547 28.4661 6.82586 29.7124 5.52018 31.2852C4.12547 32.947 3.29457 35.0539 3.29457 37.3685C3.29457 39.6831 4.12547 41.79 5.4905 43.4519C6.7962 45.0543 8.547 46.3006 10.5055 47.0128C12.4344 47.725 14.5117 48.1108 16.6482 48.1108C18.0429 48.1108 19.3783 47.9624 20.6543 47.6656C23.325 47.0425 25.699 45.6181 27.5092 43.6596L27.1828 42.3242Z" fill="#BF1920"/>
<path d="M63.4452 30.3059C62.9704 30.3059 62.5253 30.4247 62.1099 30.6027L57.0949 32.947C56.8575 31.4633 55.5517 30.3356 54.0087 30.3356C53.5339 30.3356 53.0887 30.4543 52.6733 30.6324L46.5603 33.4812H50.8632V47.636H57.1542V35.0243C57.1542 34.1637 57.8664 33.4515 58.7269 33.4515C59.5875 33.4515 60.2997 34.1637 60.2997 35.0243V47.6063H66.5907V33.4515C66.5907 31.7007 65.196 30.3059 63.4452 30.3059Z" fill="#BF1920"/>
<path d="M102.883 30.3059C102.408 30.3059 101.963 30.4247 101.548 30.6027L96.5326 32.947C96.2953 31.4633 94.9899 30.3356 93.4169 30.3356C92.9422 30.3356 92.4969 30.4543 92.0811 30.6324L85.9685 33.4812H90.2713V47.636H96.5621V35.0243C96.5621 34.1637 97.275 33.4515 98.1351 33.4515C98.9952 33.4515 99.7082 34.1637 99.7082 35.0243V47.6063H105.999V33.4515C106.029 31.7007 104.634 30.3059 102.883 30.3059Z" fill="#BF1920"/>
<path d="M78.1045 30.3059C73.1784 30.3059 69.202 34.3121 69.202 39.2084C69.202 44.1047 73.1784 48.1108 78.1045 48.1108C83.0305 48.1108 87.0069 44.1344 87.0069 39.2084C87.0069 34.2823 83.0305 30.3059 78.1045 30.3059ZM80.152 46.8051C79.1134 47.0721 78.0154 46.4787 77.7484 45.4104L74.6919 34.0153C74.4248 32.9767 75.048 31.8787 76.0866 31.6116C77.1251 31.3149 78.2232 31.938 78.4902 33.0063L81.5467 44.4014C81.8138 45.4401 81.1906 46.5083 80.152 46.8051Z" fill="#BF1920"/>
<path d="M40.7737 42.3539C40.7737 44.075 39.3789 45.4994 37.6282 45.4994C35.907 45.4994 34.4826 44.1047 34.4826 42.3539C34.4826 40.6031 35.8774 39.2084 37.6282 39.2084C39.3789 39.2084 40.7737 40.6031 40.7737 42.3539ZM42.4057 47.6063H48.6969L45.0765 34.1043C44.483 31.938 42.4948 30.3059 40.1505 30.3059C39.5273 30.3059 38.9339 30.4247 38.3997 30.6027L30.5952 33.4515H38.6074L39.9725 38.5555C38.6371 37.3982 36.916 36.7157 35.0168 36.7157C33.5924 36.7157 32.2867 37.0718 31.1294 37.695C30.2391 38.1994 29.4676 38.9116 28.9335 39.8018C28.4883 40.5438 28.2213 41.4043 28.2213 42.3539C28.2213 43.3035 28.4883 44.1641 28.9335 44.9059C29.4676 45.7665 30.2391 46.5083 31.1294 47.0128C32.2867 47.6359 33.6221 47.992 35.0168 47.992C37.7172 47.992 40.1208 46.6567 41.6046 44.6389L42.4057 47.6063Z" fill="#BF1920"/>
<path d="M10.3274 58.1707C10.0604 56.8056 9.14042 56.0934 7.95343 56.0934C5.93555 56.0934 5.10466 57.9926 5.10466 60.0401C5.10466 62.2658 5.81685 64.1056 7.95343 64.1056C9.4075 64.1056 10.2384 62.9185 10.3571 61.3161H11.6628C11.4253 63.7198 10.2681 65.2035 7.86441 65.2035C5.07498 65.2035 3.82864 62.978 3.82864 60.1588C3.82864 57.3397 5.164 55.0548 7.98311 55.0548C9.91198 55.0548 11.3364 56.1527 11.6331 58.2003L10.3274 58.1707Z" fill="black"/>
<path d="M89.2623 58.1707C88.9953 56.8056 88.0754 56.0934 86.8884 56.0934C84.8706 56.0934 84.0396 57.9926 84.0396 60.0401C84.0396 62.2658 84.7518 64.1056 86.8884 64.1056C88.3424 64.1056 89.1734 62.9185 89.292 61.3161H90.5978C90.3603 63.7198 89.203 65.2035 86.7993 65.2035C84.01 65.2035 82.7636 62.978 82.7636 60.1588C82.7636 57.3397 84.0989 55.0548 86.918 55.0548C88.8469 55.0548 90.2713 56.1527 90.5681 58.2003L89.2623 58.1707Z" fill="black"/>
<path d="M33.978 55.025C36.8861 55.025 38.1621 57.4881 38.1621 60.0995C38.1621 62.7108 36.8861 65.1738 33.978 65.1738C31.0699 65.1738 29.7939 62.7108 29.7939 60.0995C29.7939 57.4881 31.0699 55.025 33.978 55.025ZM33.978 64.1055C36.1145 64.1055 36.8564 62.058 36.8564 60.0995C36.8564 58.1409 36.0849 56.0933 33.978 56.0933C31.871 56.0933 31.0995 58.1409 31.0995 60.0995C31.0995 62.058 31.8414 64.1055 33.978 64.1055Z" fill="black"/>
<path d="M63.0595 55.2627H69.2022V56.3607H64.3652V59.4468H68.8461V60.5449H64.3652V63.898H69.2615V64.9961H63.0891V55.2627H63.0595Z" fill="black"/>
<path d="M80.0038 55.2627H81.3096V64.9663H80.0038V55.2627Z" fill="black"/>
<path d="M100.182 55.2627H101.488V63.898H106.057V64.9961H100.212V55.2627H100.182Z" fill="black"/>
<path d="M18.9924 64.9663H20.3871L17.0042 55.2627H15.5798L12.1672 64.9663H13.4729L14.4521 62.0286H18.0428L18.9924 64.9663ZM16.2326 56.5387L17.657 60.9603H14.7785L16.2326 56.5387Z" fill="black"/>
<path d="M27.0343 62.9485H27.064V55.2627H28.2807V64.9663H26.8563L22.5238 57.3697H22.4941V64.9663H21.2775V55.2627H22.6424L27.0343 62.9485Z" fill="black"/>
<path d="M45.4326 62.9485H45.4624V55.2627H46.679V64.9663H45.2843L40.9517 57.3697H40.9221V64.9663H39.6758V55.2627H41.0705L45.4326 62.9485Z" fill="black"/>
<path d="M59.261 55.2627L56.5902 63.2453L53.9492 55.2627H52.1983V64.9663H53.415V57.0729H53.4447L56.0561 64.9663H57.154L59.7655 57.0729H59.7951V64.9663H61.0118V55.2627H59.261Z" fill="black"/>
<path d="M97.8978 64.9663H99.2924L95.8795 55.2627H94.4554L91.0428 64.9663H92.3488L93.3276 62.0286H96.9181L97.8978 64.9663ZM95.138 56.5387L96.5621 60.9603H93.6836L95.138 56.5387Z" fill="black"/>
<path d="M71.1901 55.2627H74.0388C77.036 55.2627 78.49 56.7464 78.49 59.892C78.49 63.0375 77.3031 64.9663 74.0388 64.9663H71.1901V55.2627ZM72.4661 63.898H74.2465C74.9587 63.898 77.1844 63.6607 77.1844 60.07C77.1844 57.7554 76.5019 56.3607 74.2763 56.3607H72.4661V63.898Z" fill="black"/>
</g>
</g>
</g>
</g>
</g>
<defs>
<clipPath id="clip0_1_259">
<rect width="110.39" height="92" fill="white" transform="translate(0.0600433 0.359985)"/>
</clipPath>
<clipPath id="clip1_1_259">
<rect width="110.39" height="92" fill="white" transform="translate(0.0600433 0.359985)"/>
</clipPath>
<clipPath id="clip2_1_259">
<rect width="110.39" height="91.9917" fill="white" transform="translate(0.0600433 0.364136)"/>
</clipPath>
</defs>
</svg>
