<svg width="111" height="93" viewBox="0 0 111 93" fill="none" xmlns="http://www.w3.org/2000/svg">
<g clip-path="url(#clip0_1_181)">
<g clip-path="url(#clip1_1_181)">
<g clip-path="url(#clip2_1_181)">
<path d="M40.9456 32.5613V39.7494L40.8132 39.7239C40.1792 39.6019 39.5197 39.5398 38.8531 39.5398C37.5779 39.5398 36.3078 39.7596 35.0835 40.1941C33.8603 40.6277 32.755 41.2933 31.7994 42.1716C30.8448 43.0509 30.0621 44.1428 29.4759 45.4191C28.8898 46.6912 28.5925 48.1924 28.5925 49.8777C28.5925 51.6658 28.9152 53.2301 29.5513 54.5297C30.1883 55.8303 31.0351 56.9081 32.066 57.7365C33.0989 58.5649 34.2754 59.1858 35.5639 59.5806C36.8553 59.9776 38.1713 60.177 39.4729 60.177C41.0636 60.177 42.5311 60.0345 43.8399 59.7526C45.1223 59.4768 46.4015 59.0575 47.6359 58.5079V32.5613H40.9456ZM40.9456 54.2712L40.859 54.2916C40.3868 54.4015 39.8953 54.4564 39.3966 54.4564C38.6821 54.4564 37.9982 54.2885 37.3642 53.9587C36.7261 53.626 36.2071 53.1141 35.8234 52.4383C35.4408 51.7645 35.2453 50.8893 35.2453 49.8381C35.2453 48.7633 35.4326 47.8688 35.802 47.1828C36.1745 46.4908 36.6945 45.9788 37.3479 45.6592C37.9942 45.3418 38.7229 45.181 39.5146 45.181C39.9737 45.181 40.4265 45.2339 40.8611 45.3397L40.9456 45.3601V54.2712ZM68.0228 44.147C67.1068 42.6194 65.8672 41.4449 64.3376 40.6552C63.5713 40.2582 62.7622 39.9621 61.9144 39.7627C61.0667 39.5631 60.1803 39.4624 59.2613 39.4624C57.4243 39.4624 55.7156 39.8634 54.1849 40.6552C52.6553 41.4449 51.4096 42.6194 50.4805 44.149C49.5493 45.6766 49.0791 47.5787 49.0791 49.8013C49.0791 52.024 49.5503 53.9262 50.4805 55.4538C51.4096 56.9834 52.6573 58.165 54.1849 58.9679C55.7156 59.7709 57.4233 60.178 59.2613 60.178C61.0728 60.178 62.7744 59.7709 64.3183 58.9679C65.8591 58.165 67.1068 56.9824 68.0228 55.4548C68.9407 53.9251 69.4047 52.023 69.4047 49.8003C69.4047 47.5787 68.9407 45.6766 68.0228 44.147ZM62.3327 52.4128C62.1668 52.7569 61.9745 53.0602 61.7566 53.3186C61.5389 53.575 61.2967 53.7878 61.029 53.9557C60.4957 54.2885 59.9003 54.4574 59.2603 54.4574C58.6201 54.4574 58.0247 54.2885 57.4915 53.9557C56.9572 53.6219 56.5186 53.1038 56.1877 52.4128C55.8581 51.73 55.6922 50.8506 55.6922 49.8013C55.6922 48.7267 55.8581 47.8413 56.1877 47.1685C56.5186 46.4928 56.9572 45.9808 57.4915 45.6471C58.0247 45.3143 58.6201 45.1454 59.2603 45.1454C59.9003 45.1454 60.4937 45.3143 61.029 45.6471C61.5623 45.9808 62.002 46.4938 62.3327 47.1685C62.6625 47.8423 62.8304 48.7277 62.8304 49.8013C62.8304 50.8496 62.6625 51.7279 62.3327 52.4128ZM89.067 45.1637C88.5194 43.9027 87.7632 42.8443 86.8219 42.0179C85.8794 41.1905 84.8261 40.5707 83.6934 40.1748C82.5577 39.7779 81.3863 39.5784 80.2149 39.5784C79.3193 39.5784 78.4797 39.6721 77.7143 39.8542L77.578 39.8868V32.5613H70.8479V58.5476C72.057 59.0972 73.3219 59.5084 74.6043 59.773C75.912 60.0417 77.3551 60.178 78.8939 60.178C80.2719 60.178 81.6397 59.9521 82.9566 59.5053C84.2705 59.0586 85.4673 58.3858 86.5145 57.5055C87.5587 56.6262 88.3932 55.5219 88.9916 54.2224C89.59 52.9217 89.8943 51.3819 89.8943 49.6447C89.8923 47.9349 89.6145 46.4256 89.067 45.1637ZM82.6981 52.3834C82.4936 52.7273 82.2554 53.0306 81.9857 53.2952C81.715 53.5577 81.4138 53.7796 81.083 53.9587C80.4205 54.3149 79.7111 54.4961 78.9702 54.4961C78.5398 54.4961 78.1001 54.4401 77.6604 54.3282L77.577 54.3058V45.4018L77.6635 45.3824C78.1326 45.2756 78.6375 45.2216 79.1646 45.2216C79.9035 45.2216 80.5945 45.3824 81.2163 45.7C81.8412 46.0196 82.3521 46.5183 82.7378 47.1818C83.1204 47.8443 83.3158 48.6992 83.3158 49.7241C83.3158 50.7997 83.1083 51.6954 82.6981 52.3834ZM109.662 45.0487C109.399 44.4564 109.091 43.9068 108.739 43.403C108.388 42.8992 107.989 42.4443 107.551 42.0352C106.672 41.22 105.665 40.5931 104.556 40.1728C103.449 39.7525 102.278 39.5388 101.081 39.5388C99.3218 39.5388 97.6807 39.9591 96.2024 40.7874C94.7241 41.6159 93.5236 42.8035 92.6313 44.3209C91.7384 45.8374 91.2855 47.654 91.2855 49.7231C91.2855 51.3575 91.5837 52.8383 92.1685 54.1237C92.7554 55.411 93.5751 56.5081 94.6072 57.3874C95.6403 58.2678 96.85 58.9476 98.2032 59.4066C99.5573 59.8666 101.048 60.0996 102.635 60.0996C103.784 60.0996 104.926 59.9704 106.028 59.7139C107.106 59.4646 108.148 59.086 109.128 58.5904V53.3145C108.123 53.7715 107.151 54.1358 106.239 54.3943C105.275 54.6671 104.272 54.8075 103.256 54.8075C102.157 54.8075 101.182 54.6202 100.357 54.2539C99.5251 53.8845 98.8545 53.3155 98.366 52.5615C98.217 52.3324 98.0873 52.0719 97.9769 51.7839L97.9208 51.6323H110.301C110.325 51.2893 110.355 50.9147 110.392 50.4904C110.431 50.0568 110.45 49.6141 110.45 49.1796C110.449 47.6224 110.184 46.2333 109.662 45.0487ZM97.8058 47.6194L97.8417 47.4809C97.9097 47.2133 97.9935 46.9721 98.0845 46.7635C98.4175 46.0216 98.8554 45.4628 99.3862 45.1036C99.9207 44.7444 100.519 44.5601 101.16 44.5601C101.719 44.5601 102.259 44.7026 102.766 44.9814C103.274 45.2624 103.707 45.7 104.052 46.2851C104.251 46.624 104.391 47.0291 104.466 47.4891L104.488 47.6184H97.8058V47.6194ZM15.1221 41.4592L10.1395 53.8367H16.1307L18.2282 59.8289H0.0600433L11.3485 32.8584H19.2031L30.455 59.8289H22.4608L15.1221 41.4592Z" fill="#FA0C00"/>
</g>
</g>
</g>
<defs>
<clipPath id="clip0_1_181">
<rect width="110.39" height="92" fill="white" transform="translate(0.0600433 0.359985)"/>
</clipPath>
<clipPath id="clip1_1_181">
<rect width="110.39" height="92" fill="white" transform="translate(0.0600433 0.359985)"/>
</clipPath>
<clipPath id="clip2_1_181">
<rect width="110.39" height="91.9917" fill="white" transform="translate(0.0600433 0.364136)"/>
</clipPath>
</defs>
</svg>
