<svg width="111" height="93" viewBox="0 0 111 93" fill="none" xmlns="http://www.w3.org/2000/svg">
<g clip-path="url(#clip0_1_79)">
<g clip-path="url(#clip1_1_79)">
<mask id="mask0_1_79" style="mask-type:luminance" maskUnits="userSpaceOnUse" x="1" y="25" width="108" height="42">
<path d="M108.932 25.6388H1.46436V66.6257H108.932V25.6388Z" fill="white"/>
</mask>
<g mask="url(#mask0_1_79)">
<path d="M15.7414 25.6388H1.46436V61.3931H15.7414C17.6319 61.4076 19.451 60.6725 20.8005 59.3486C22.1501 58.0247 22.9199 56.22 22.9415 54.3297V32.8115C22.9415 30.9115 22.1877 29.0892 20.8455 27.7444C19.5033 26.3997 17.6824 25.6424 15.7824 25.6388M8.59608 54.3297V32.8115H12.1893C12.6563 32.8097 13.1189 32.9003 13.5508 33.0782C13.9826 33.2561 14.3749 33.5177 14.7051 33.8479C15.0353 34.1781 15.2969 34.5705 15.4748 35.0022C15.6526 35.434 15.7433 35.8967 15.7414 36.3637V50.7228C15.7469 51.1945 15.6586 51.6627 15.4819 52.1C15.3051 52.5373 15.0433 52.9353 14.7117 53.2708C14.38 53.6063 13.9851 53.8726 13.5497 54.0544C13.1144 54.2362 12.6474 54.3297 12.1756 54.3297H8.59608Z" fill="#0090D7"/>
<path d="M101.773 61.393V29.2183C101.769 28.2773 102.137 27.3729 102.797 26.7025C103.458 26.032 104.357 25.6496 105.297 25.6388H108.891V57.8955C108.891 58.8425 108.516 59.7509 107.847 60.4218C107.179 61.0927 106.272 61.4715 105.325 61.475H101.773V61.393Z" fill="#0090D7"/>
<path d="M71.1428 45.135C69.4985 46.7776 67.4245 47.9235 65.1588 48.4412C65.5244 48.884 65.7782 49.4082 65.8987 49.9696C66.0192 50.5309 66.0029 51.1131 65.8512 51.6669C65.6995 52.2206 65.4167 52.7298 65.0269 53.1513C64.637 53.5729 64.1514 53.8944 63.6111 54.0889C63.0709 54.2834 62.4917 54.345 61.9227 54.2685C61.3536 54.1922 60.8112 53.98 60.3414 53.65C59.8715 53.3199 59.488 52.8817 59.2231 52.3722C58.9582 51.8627 58.8198 51.2971 58.8194 50.7229V48.7419H51.592V57.8956C51.6205 58.8331 52.013 59.7227 52.6864 60.3756C53.3597 61.0286 54.261 61.3936 55.199 61.3931H62.3443C64.2823 61.3953 66.185 60.8735 67.8508 59.8831C69.5167 58.8927 70.8839 57.4704 71.8078 55.7668C72.7318 54.0632 73.178 52.1414 73.0994 50.205C73.0208 48.2686 72.4204 46.3893 71.3615 44.7661L71.0882 45.0393" fill="#0090D7"/>
<path d="M58.7648 36.391C58.7639 35.7228 58.9487 35.0675 59.2985 34.4982C59.6483 33.9289 60.1494 33.4679 60.7458 33.1667V25.6388H51.592V38.3584H58.7511L58.7648 36.391Z" fill="#0090D7"/>
<path d="M33.6804 39.793V25.6388H30.1554C29.2084 25.6352 28.2986 26.0069 27.6251 26.6728C26.9517 27.3385 26.5695 28.2441 26.5623 29.1911V38.3858H30.1554C31.4816 38.3539 32.7673 38.8446 33.735 39.752" fill="#0090D7"/>
<path d="M48.0265 38.3584V29.2183C48.0193 28.2688 47.638 27.3605 46.9653 26.6903C46.2926 26.0202 45.3828 25.6423 44.4332 25.6388H40.8537V39.7929C41.8253 38.8918 43.1083 38.402 44.4332 38.4267L48.0265 38.3584Z" fill="#0090D7"/>
<path d="M76.7429 61.3934H80.3087C80.7799 61.3951 81.2468 61.3039 81.6827 61.1248C82.1186 60.9458 82.5148 60.6824 82.8487 60.3498C83.1825 60.0173 83.4474 59.622 83.6281 59.1868C83.8089 58.7517 83.9019 58.285 83.9019 57.8138V48.7421H76.7429V61.3934Z" fill="#0090D7"/>
<path d="M83.8472 38.3584V34.41V29.2183C83.8468 27.885 84.3606 26.6027 85.2818 25.6388H83.8472C81.9568 25.6568 80.1499 26.4205 78.8194 27.7636C77.489 29.1068 76.7428 30.9209 76.7429 32.8115V39.7929C77.7103 38.8938 78.9882 38.4041 80.3087 38.4267L83.8472 38.3584Z" fill="#0090D7"/>
<path d="M91.1303 48.7415H91.0211V57.8952C91.0211 58.8459 91.3976 59.7577 92.0688 60.4312C92.74 61.1047 93.6498 61.4848 94.6006 61.4884H98.1799V45.0936C97.3921 46.2398 96.3402 47.1804 95.1143 47.8365C93.8875 48.4925 92.5214 48.8451 91.1303 48.8645" fill="#0090D7"/>
<path d="M62.3437 25.6388V32.8115C63.2685 32.8146 64.1565 33.1743 64.8229 33.8155C65.4893 34.4567 65.8828 35.3302 65.9215 36.2542C65.9602 37.1783 65.6412 38.0816 65.0308 38.7764C64.4204 39.4711 63.5656 39.9037 62.6443 39.9842H44.4324C43.963 39.9825 43.4978 40.0734 43.0636 40.2518C42.6294 40.4301 42.2347 40.6925 41.9022 41.0238C41.5696 41.3551 41.3057 41.7488 41.1257 42.1824C40.9456 42.6159 40.8529 43.0806 40.8529 43.5501V54.3297H37.2188C36.2694 54.3297 35.3589 53.9525 34.6876 53.2812C34.0163 52.6099 33.6392 51.6995 33.6392 50.7501V43.5501C33.6392 42.6044 33.2635 41.6974 32.5947 41.0286C31.9261 40.3599 31.0191 39.9842 30.0733 39.9842H26.5075V54.3297C26.5291 56.2177 27.2943 58.0212 28.6371 59.3486C29.9799 60.6761 31.792 61.4206 33.6802 61.4204H40.8529C42.7552 61.4204 44.5797 60.6647 45.9247 59.3196C47.2699 57.9744 48.0257 56.15 48.0257 54.2477V47.075H62.3437C65.0229 46.8933 67.5375 45.7168 69.394 43.7765C71.2504 41.8362 72.3148 39.2722 72.3781 36.5876C72.4414 33.903 71.4992 31.2916 69.7361 29.2659C67.9732 27.2402 65.5168 25.9466 62.8492 25.6388H62.3437Z" fill="#BA2C87"/>
<path d="M60.4028 48.6874V50.6684C60.4028 51.1684 60.6016 51.648 60.9551 52.0016C61.3087 52.3551 61.7883 52.5538 62.2883 52.5538C62.8036 52.5616 63.3019 52.3697 63.6789 52.0182C64.0558 51.6668 64.2822 51.183 64.3103 50.6684C64.3364 50.1704 64.1641 49.6825 63.8313 49.3111C63.4985 48.9398 63.0321 48.7156 62.5342 48.6874H60.4028Z" fill="#BA2C87"/>
<path d="M37.8464 62.8683V64.7401C37.8436 65.1141 37.9523 65.4805 38.1584 65.7926C38.3645 66.1048 38.6588 66.3486 39.0039 66.493C39.3489 66.6374 39.7291 66.6759 40.0962 66.6036C40.4631 66.5313 40.8004 66.3514 41.0648 66.0869C41.3293 65.8224 41.5092 65.4852 41.5815 65.1182C41.6538 64.7512 41.6153 64.371 41.4709 64.0259C41.3266 63.6809 41.0828 63.3866 40.7707 63.1804C40.4585 62.9743 40.0921 62.8657 39.718 62.8683H37.8464Z" fill="#BA2C87"/>
<path d="M32.5469 62.8684V64.7402C32.5442 65.1136 32.6525 65.4794 32.858 65.7913C33.0635 66.1031 33.357 66.3469 33.7013 66.4917C34.0456 66.6365 34.4251 66.6758 34.7917 66.6046C35.1583 66.5334 35.4955 66.3549 35.7606 66.0918C36.0256 65.8287 36.2066 65.4928 36.2804 65.1267C36.3543 64.7606 36.3178 64.3808 36.1755 64.0354C36.0332 63.6902 35.7915 63.3949 35.4812 63.1871C35.1709 62.9793 34.8058 62.8684 34.4323 62.8684H32.5469Z" fill="#BA2C87"/>
<path d="M76.7429 43.5501C76.7429 42.6044 77.1185 41.6974 77.7873 41.0286C78.456 40.3599 79.363 39.9842 80.3087 39.9842H87.5361C88.4873 40.053 89.4268 39.7413 90.148 39.1173C90.8693 38.4935 91.3128 37.6086 91.3821 36.6574C91.4513 35.7063 91.1391 34.7667 90.5151 34.0455C89.8913 33.3242 89.0064 32.8804 88.0552 32.8115H85.596V29.2183C85.5954 28.2922 85.9537 27.4018 86.5956 26.7343C87.2377 26.0668 88.1135 25.6741 89.0389 25.6388H91.02C92.9167 25.6388 94.7354 26.3912 96.0769 27.7308C97.4194 29.0705 98.1753 30.8879 98.1789 32.7842V39.9842C98.1753 41.8818 97.4203 43.7007 96.0779 45.0425C94.7363 46.3843 92.9176 47.1396 91.02 47.1433H76.7429V43.5501Z" fill="#BA2C87"/>
</g>
</g>
</g>
<defs>
<clipPath id="clip0_1_79">
<rect width="110.2" height="92" fill="white" transform="translate(0.0800171 0.359985)"/>
</clipPath>
<clipPath id="clip1_1_79">
<rect width="110.2" height="92" fill="white" transform="translate(0.0800171 0.359985)"/>
</clipPath>
</defs>
</svg>
