<svg width="111" height="93" viewBox="0 0 111 93" fill="none" xmlns="http://www.w3.org/2000/svg">
<g clip-path="url(#clip0_1_147)">
<g clip-path="url(#clip1_1_147)">
<g clip-path="url(#clip2_1_147)">
<mask id="mask0_1_147" style="mask-type:luminance" maskUnits="userSpaceOnUse" x="0" y="0" width="111" height="93">
<path d="M110.91 0.364136H0.520012V92.3558H110.91V0.364136Z" fill="white"/>
</mask>
<g mask="url(#mask0_1_147)">
<path d="M21.48 20.7533H3.5136C1.86264 20.7533 0.520012 22.0946 0.520012 23.7481V41.7144C0.520012 43.3691 1.86264 44.708 3.5136 44.708H21.48C23.1347 44.708 24.4736 43.3691 24.4736 41.7144V23.7481C24.4748 22.0946 23.1347 20.7533 21.48 20.7533ZM12.4968 38.7208C9.18999 38.7208 6.50841 36.0393 6.50841 32.7324C6.50841 29.4219 9.18999 26.7429 12.4968 26.7429C15.8036 26.7429 18.4864 29.4219 18.4864 32.7324C18.4864 36.0393 15.8036 38.7208 12.4968 38.7208Z" fill="#83C461"/>
<path d="M31.9571 27.2467C32.032 30.406 33.425 32.0729 36.0132 32.0729C37.9798 32.0729 39.1985 31.0522 39.6714 28.9884H41.0889C40.5165 31.7498 38.701 33.2424 35.9887 33.2424C32.6057 33.2424 30.4658 30.8298 30.4658 27.0722C30.4658 23.2655 32.731 20.6023 35.9408 20.6023C39.1739 20.6023 41.2155 23.0898 41.2155 27.0464V27.2467H31.9571ZM39.7451 26.0772C39.5707 23.4153 38.1273 21.7975 35.9125 21.7975C33.3513 21.7975 32.231 23.8133 31.9571 26.0772H39.7451Z" fill="#045C8F"/>
<path d="M52.9297 32.8209C52.582 32.945 52.2075 32.9954 51.7849 32.9954C50.3169 32.9954 50.242 31.9254 50.242 30.8322C49.1475 32.5236 47.8048 33.2447 45.7141 33.2447C43.25 33.2447 41.7833 32.0249 41.7833 29.8618C41.7833 27.6961 43.2758 26.4529 46.2375 26.1532L48.252 25.9542C49.7199 25.7798 50.1683 25.4567 50.1683 24.4372C50.1683 22.3477 48.9252 21.8244 47.0347 21.8244C44.944 21.8244 43.9489 22.6708 43.7499 24.6362H42.357C42.481 22.0492 44.1983 20.6058 47.2079 20.6058C50.4668 20.6058 51.5871 21.9251 51.5871 24.8106V30.1087C51.5871 31.6257 51.662 31.8013 52.3831 31.8013C52.5833 31.8013 52.657 31.7767 52.931 31.7019V32.8209H52.9297ZM50.1683 26.4026C49.7458 26.776 49.3232 26.8755 48.1033 27.0487L46.8848 27.2232C45.3665 27.4221 43.352 27.8448 43.352 29.761C43.352 31.1798 44.3715 32.0753 46.0643 32.0753C48.3294 32.0753 50.1695 30.6331 50.1695 28.3434V26.4026H50.1683Z" fill="#045C8F"/>
<path d="M58.032 33.2447C54.9218 33.2447 53.1799 31.7768 53.1062 29.0153H54.5237C54.6981 31.1294 55.8418 32.0753 58.032 32.0753C60.0221 32.0753 61.3413 31.154 61.3413 29.7365C61.3413 28.0695 59.3759 27.7218 58.0566 27.3976C56.0912 26.9504 53.4551 26.6249 53.4551 23.99C53.4551 21.8993 55.0962 20.6058 57.7827 20.6058C60.6448 20.6058 62.1864 21.876 62.3854 24.4126H60.9679C60.7456 22.6216 59.7984 21.8244 57.7335 21.8244C55.9413 21.8244 54.9218 22.5467 54.9218 23.8144C54.9218 25.5316 57.0125 25.7294 58.3305 26.0538C60.3218 26.5267 62.7835 27.0991 62.7835 29.6124C62.7835 31.7756 60.8696 33.2447 58.032 33.2447Z" fill="#045C8F"/>
<path d="M68.8324 33.3433C68.1605 35.1343 67.6384 37.4241 65.2983 37.4241C64.8254 37.4241 64.479 37.3995 64.0048 37.3245V36.0556C64.5785 36.1551 64.7529 36.1797 65.0747 36.1797C65.9211 36.1797 66.5673 35.6072 66.991 34.439L67.6114 32.8213L62.8353 20.9293H64.4274L68.3595 31.1801L72.041 20.9293H73.5334L68.8324 33.3433Z" fill="#045C8F"/>
<path d="M44.5573 55.8673V41.7863L39.9545 55.8673H37.5899L32.6149 41.9104V55.8673H30.1029V39.2988H34.1566L38.7839 52.6845L43.2638 39.2988H47.3187V55.8673H44.5573Z" fill="#045C8F"/>
<path d="M61.0036 55.889C60.2089 56.088 59.8108 56.163 59.2876 56.163C58.1427 56.163 57.4966 55.6901 57.3467 54.7454C56.1761 55.7392 54.8826 56.163 53.0916 56.163C50.6029 56.163 49.06 54.7957 49.06 52.6056C49.06 50.5406 50.3535 49.3454 52.9675 48.9978L54.4342 48.8C57.0224 48.4757 57.2447 48.3271 57.2447 47.2572C57.2447 45.9883 56.4733 45.4158 54.7573 45.4158C53.04 45.4158 52.2943 45.9624 52.0953 47.5544H49.582C49.8314 44.8446 51.5978 43.4995 54.8567 43.4995C58.2656 43.4995 59.8576 44.7684 59.8329 46.8591L59.758 53.2025C59.758 53.9248 59.9067 54.0981 60.43 54.0981H60.6535C60.7285 54.0981 60.8526 54.0747 61.0011 54.0476V55.889H61.0036ZM57.1968 49.8454C56.5495 50.2433 56.3996 50.2188 54.4108 50.4915C52.4466 50.7151 51.7993 51.2617 51.7993 52.4815C51.7993 53.6497 52.5707 54.297 53.9625 54.297C56.2768 54.297 57.1968 53.4519 57.1968 51.2617V49.8454Z" fill="#045C8F"/>
<path d="M68.6679 46.1374C68.195 46.1128 68.0206 46.0883 67.7478 46.0883C66.7774 46.0883 65.9802 46.3856 65.3844 46.9838C64.5148 47.8547 64.2641 48.7257 64.2641 51.0645V55.8663H61.628V43.8489H64.1401L64.1155 46.2615C65.0368 44.3956 66.3057 43.5751 68.1962 43.5751C68.3706 43.5751 68.4456 43.5996 68.6691 43.5996V46.1374H68.6679Z" fill="#045C8F"/>
<path d="M77.675 55.8637L74.018 50.067L72.4003 51.5595V55.8637H69.812V39.2953H72.4003V48.749L77.202 43.8477H80.4621L75.8594 48.2514L80.9105 55.8637H77.675Z" fill="#045C8F"/>
<path d="M83.598 50.4909C83.6728 52.9784 84.8423 54.3222 86.9073 54.3222C88.4009 54.3222 89.1969 53.6503 89.7681 52.1333H92.3073C91.6844 54.7203 89.6687 56.2373 86.8581 56.2373C83.3019 56.2373 80.9373 53.7756 80.9373 50.0167C80.9373 46.2358 83.3756 43.5248 86.7598 43.5248C90.2681 43.5248 92.4817 46.1363 92.4817 50.217V50.4909H83.598ZM89.8197 48.7491C89.6453 46.7333 88.5017 45.4902 86.734 45.4902C84.9676 45.4902 83.8989 46.6338 83.625 48.7491H89.8197Z" fill="#045C8F"/>
<path d="M99.5987 55.8887C98.803 55.9637 98.5031 55.9882 97.8316 55.9882C96.0156 55.9882 95.0709 55.5411 94.7471 54.4712C94.5475 53.8754 94.5474 53.502 94.5474 51.5107V45.8135H92.5328V43.8726H94.5474V40.2404H97.1849V43.8726H99.5987V45.7889H97.1849V52.1077C97.1849 53.6015 97.3596 53.8496 98.6282 53.8496H99.101C99.251 53.8496 99.4249 53.825 99.6006 53.8005V55.8887H99.5987Z" fill="#045C8F"/>
<path d="M105.47 56.2158C102.06 56.2158 100.244 54.8227 100.071 52.0368H102.632C102.806 53.6042 103.702 54.3007 105.493 54.3007C107.085 54.3007 108.104 53.6288 108.104 52.5576C108.104 51.6375 107.631 51.2641 105.243 50.7421C103.152 50.1955 100.342 49.897 100.342 47.111C100.342 44.8471 102.159 43.5032 105.218 43.5032C108.378 43.5032 110.071 44.7967 110.295 47.3603H107.781C107.556 45.9907 106.786 45.4428 105.168 45.4428C103.775 45.4428 102.979 45.9415 102.979 46.8628C102.979 47.7829 103.402 47.9819 106.064 48.5776C108.155 49.026 110.716 49.5973 110.716 52.2616C110.718 54.7233 108.728 56.2158 105.47 56.2158Z" fill="#045C8F"/>
<path d="M109.055 41.5881C108.018 41.5881 107.2 40.7454 107.2 39.7333C107.2 38.6952 108.017 37.8759 109.055 37.8759C110.068 37.8759 110.911 38.6952 110.911 39.7333C110.911 40.7466 110.068 41.5881 109.055 41.5881ZM109.055 38.2137C108.212 38.2137 107.538 38.8881 107.538 39.7333C107.538 40.5759 108.212 41.2515 109.055 41.2515C109.899 41.2515 110.574 40.5759 110.574 39.7333C110.574 38.8881 109.9 38.2137 109.055 38.2137ZM109.529 40.6521C109.487 40.5599 109.479 40.5341 109.469 40.399C109.446 39.9777 109.387 39.9199 109.057 39.9199H108.634V40.6619H108.23V38.8058H109.191C109.655 38.8058 109.882 38.9827 109.882 39.3279C109.882 39.5305 109.791 39.673 109.612 39.7664C109.772 39.8597 109.825 39.9433 109.849 40.1803L109.865 40.3486C109.891 40.5427 109.899 40.5697 109.992 40.6619L109.529 40.6521ZM109.098 39.1165H108.625V39.6239H109.055C109.366 39.6239 109.477 39.5564 109.477 39.3611C109.479 39.1842 109.377 39.1165 109.098 39.1165Z" fill="#045C8F"/>
<path d="M33.6718 70.3075C31.5025 70.3075 30.2397 69.2535 30.2286 67.4268H31.6376C31.6745 68.6037 32.3857 69.1921 33.7456 69.1921C34.8609 69.1921 35.4985 68.7265 35.4985 67.9047C35.4985 67.304 35.1054 66.9736 34.076 66.7156L33.5981 66.5928C33.2185 66.4945 32.7039 66.3729 32.3108 66.2378C31.7715 66.0535 31.4411 65.9061 31.1831 65.6985C30.7298 65.3423 30.5087 64.8398 30.5087 64.1913C30.5087 62.7578 31.6978 61.8009 33.5478 61.8009C35.4223 61.8009 36.5377 62.7209 36.588 64.3866H35.227C35.1176 63.4063 34.5661 62.9396 33.4507 62.9396C32.4693 62.9396 31.8808 63.3572 31.8808 64.0795C31.8808 64.6925 32.2125 64.9001 33.4372 65.1949L33.9642 65.3177C35.1901 65.6113 35.7048 65.7955 36.1335 66.1518C36.6482 66.5682 36.9062 67.1074 36.9062 67.7696C36.9086 69.3382 35.6704 70.3075 33.6718 70.3075Z" fill="#045C8F"/>
<path d="M38.1431 61.9231H39.4428V63.2104H38.1431V61.9231ZM38.1431 64.2153H39.4428V70.1348H38.1431V64.2153Z" fill="#045C8F"/>
<path d="M48.2773 70.1357V66.5083C48.2773 65.5157 47.9948 65.1607 47.2234 65.1607C46.2922 65.1607 45.9237 65.6754 45.9237 66.9627V70.1369H44.6252V66.4345C44.6252 65.5035 44.344 65.1595 43.6451 65.1595C42.7139 65.1595 42.284 65.7355 42.284 66.9615V70.1357H40.9856V64.216H42.2225V65.0501C42.7495 64.3525 43.2888 64.0576 44.086 64.0576C44.8709 64.0576 45.4225 64.3881 45.7284 65.0624C46.2308 64.3757 46.8179 64.0576 47.6397 64.0576C48.3264 64.0576 48.9394 64.3389 49.2698 64.8167C49.5032 65.1484 49.588 65.5035 49.588 66.1029V70.1357H48.2773Z" fill="#045C8F"/>
<path d="M54.3156 70.2809C53.4705 70.2809 52.8207 69.9738 52.392 69.3621V72.3274H51.1047V64.2139H52.3183V64.9988C52.7593 64.3613 53.4079 64.0432 54.2543 64.0432C55.8966 64.0432 56.9629 65.2925 56.9629 67.2051C56.9629 69.0672 55.9212 70.2809 54.3156 70.2809ZM53.9852 65.0959C52.9558 65.0959 52.3429 65.8686 52.3429 67.1424C52.3429 68.4653 52.9436 69.238 54.0098 69.238C55.0269 69.238 55.6399 68.4653 55.6399 67.2038C55.6399 65.9177 55.0146 65.0959 53.9852 65.0959Z" fill="#045C8F"/>
<path d="M59.5462 61.9734H58.2466V70.136H59.5462V61.9734Z" fill="#045C8F"/>
<path d="M64.1166 70.0247C63.6879 71.1647 63.5406 71.5073 63.2825 71.7899C62.9275 72.2186 62.5234 72.3905 61.8981 72.3905C61.6415 72.3905 61.4572 72.3783 61.0039 72.3168V71.226C61.3834 71.2875 61.5186 71.2998 61.6783 71.2998C62.1562 71.2998 62.548 70.7851 62.6954 69.9522L60.4277 64.2157H61.8613L63.43 68.7754L64.9385 64.2157H66.3105L64.1166 70.0247Z" fill="#045C8F"/>
<path d="M75.7798 70.136V66.4717H72.054V70.136H70.6205V61.9734H72.054V65.2089H75.7798V61.9734H77.2146V70.136H75.7798Z" fill="#045C8F"/>
<path d="M81.5857 70.3178C79.7714 70.3178 78.5836 69.0918 78.5836 67.1805C78.5836 65.2679 79.7727 64.0432 81.5981 64.0432C83.4124 64.0432 84.5646 65.2569 84.5646 67.1805C84.5646 69.1041 83.4123 70.3178 81.5857 70.3178ZM81.5735 65.0713C80.5441 65.0713 79.9065 65.8673 79.9065 67.1792C79.9065 68.5022 80.5196 69.2994 81.5981 69.2994C82.6275 69.2994 83.2404 68.5034 83.2404 67.167C83.2404 65.8563 82.6151 65.0713 81.5735 65.0713Z" fill="#045C8F"/>
<path d="M89.672 70.1357V66.7036C89.672 65.5391 89.3907 65.1595 88.5444 65.1595C87.9682 65.1595 87.4781 65.4408 87.2693 65.9198C87.1353 66.2257 87.085 66.5451 87.085 67.1814V70.1357H85.7866V64.216H87.0125V65.087C87.5395 64.3635 88.1034 64.0576 88.9853 64.0576C89.7334 64.0576 90.3943 64.3757 90.7014 64.9027C90.9336 65.2713 90.9827 65.6017 90.9827 66.362V70.1369H89.672V70.1357Z" fill="#045C8F"/>
<path d="M93.4804 67.4861C93.5171 68.712 94.093 69.3728 95.1104 69.3728C95.8455 69.3728 96.2383 69.0412 96.5198 68.2943H97.7699C97.4645 69.5694 96.4719 70.3175 95.0856 70.3175C93.3332 70.3175 92.1685 69.1038 92.1685 67.2527C92.1685 65.3892 93.37 64.054 95.0369 64.054C96.7635 64.054 97.8564 65.3401 97.8564 67.3509V67.4861H93.4804ZM96.5455 66.6286C96.459 65.6361 95.8951 65.0231 95.0258 65.0231C94.1565 65.0231 93.6275 65.587 93.4942 66.6286H96.5455Z" fill="#045C8F"/>
<path d="M101.285 70.3067C99.6061 70.3067 98.7119 69.62 98.6255 68.248H99.8885C99.975 69.0206 100.416 69.3633 101.298 69.3633C102.082 69.3633 102.584 69.0328 102.584 68.5046C102.584 68.0514 102.352 67.8683 101.175 67.6104C100.145 67.3402 98.7607 67.194 98.7607 65.8207C98.7607 64.7053 99.6567 64.0432 101.163 64.0432C102.72 64.0432 103.554 64.6807 103.664 65.9435H102.426C102.316 65.2691 101.935 64.9988 101.14 64.9988C100.452 64.9988 100.061 65.2445 100.061 65.6978C100.061 66.1511 100.269 66.2494 101.58 66.5429C102.61 66.7641 103.873 67.0454 103.873 68.3573C103.871 69.5709 102.891 70.3067 101.285 70.3067Z" fill="#045C8F"/>
<path d="M107.915 70.1463C107.523 70.1832 107.376 70.1955 107.045 70.1955C106.149 70.1955 105.684 69.9743 105.526 69.4473C105.427 69.1538 105.427 68.9695 105.427 67.9893V65.1824H104.435V64.2255H105.427V62.437H106.727V64.2255H107.916V65.1702H106.727V68.2829C106.727 69.0174 106.813 69.1415 107.438 69.1415H107.67C107.744 69.1415 107.83 69.1292 107.916 69.1169L107.915 70.1463Z" fill="#045C8F"/>
<path d="M110.681 68.5889H109.089V70.1329H110.681V68.5889Z" fill="#045C8F"/>
</g>
</g>
</g>
</g>
<defs>
<clipPath id="clip0_1_147">
<rect width="110.39" height="92" fill="white" transform="translate(0.520012 0.359985)"/>
</clipPath>
<clipPath id="clip1_1_147">
<rect width="110.39" height="92" fill="white" transform="translate(0.520012 0.359985)"/>
</clipPath>
<clipPath id="clip2_1_147">
<rect width="110.39" height="91.9917" fill="white" transform="translate(0.520012 0.364136)"/>
</clipPath>
</defs>
</svg>
