<svg width="111" height="93" viewBox="0 0 111 93" fill="none" xmlns="http://www.w3.org/2000/svg">
<g clip-path="url(#clip0_1_103)">
<g clip-path="url(#clip1_1_103)">
<path d="M55.255 78.557C73.037 78.557 87.4521 64.1419 87.4521 46.3599C87.4521 28.5779 73.037 14.1628 55.255 14.1628C37.473 14.1628 23.058 28.5779 23.058 46.3599C23.058 64.1419 37.473 78.557 55.255 78.557Z" fill="black"/>
<path d="M76.4323 51.5428H77.2522V51.6868H76.9245V52.3846H76.76V51.6868H76.4323V51.5428ZM38.0281 54.7774H36.1738C35.7561 54.7774 35.5517 54.5487 35.5517 54.0925V53.3613C35.5517 53.1519 35.6031 52.9822 35.7226 52.846C35.8345 52.7097 35.9835 52.6416 36.1738 52.6416H37.6285C37.9704 52.6416 38.2042 52.8074 38.3083 53.1441L38.5101 53.8522H39.8428V53.0708C39.8428 52.5504 39.6718 52.1225 39.321 51.7742C38.9663 51.4298 38.5332 51.2563 38.0281 51.2563H35.8743C35.368 51.2563 34.9272 51.4349 34.561 51.7973C34.2062 52.1559 34.0263 52.589 34.0263 53.0927V54.3482C34.0263 54.861 34.2062 55.2966 34.561 55.6591C34.9259 56.0214 35.3667 56.1988 35.8743 56.1988H37.73C38.14 56.1988 38.3456 56.4365 38.3456 56.903V57.854C38.3456 58.0545 38.2903 58.2305 38.1811 58.3629C38.0628 58.5017 37.9138 58.5672 37.73 58.5672H36.2534C35.8808 58.5672 35.6546 58.3976 35.5646 58.0673L35.368 57.2667H34.0263V58.1303C34.0263 58.6572 34.1972 59.0851 34.5455 59.4321C34.8925 59.7778 35.3256 59.9513 35.8435 59.9513H38.0268C38.5319 59.9513 38.9727 59.7701 39.3326 59.4077C39.6872 59.0517 39.8646 58.6135 39.8646 58.0981V56.6267C39.8646 56.123 39.6872 55.6925 39.3236 55.3249C38.9624 54.9587 38.528 54.7749 38.0268 54.7749L38.0281 54.7774ZM46.916 51.7986C47.2732 52.1533 47.4557 52.5877 47.4557 53.0888V54.9163C47.4557 55.4277 47.2732 55.8621 46.916 56.2206C46.5484 56.5792 46.1077 56.7617 45.5987 56.7617H43.202V59.9539H41.6663V51.2576H45.5987C46.1077 51.2576 46.5484 51.4362 46.916 51.7986ZM45.9174 53.3741C45.9174 53.1621 45.857 52.9963 45.7426 52.8613C45.6296 52.7252 45.4779 52.6609 45.2993 52.6609H43.202V55.3597H45.2993C45.4766 55.3597 45.6283 55.2915 45.7426 55.1578C45.8583 55.0204 45.9174 54.8533 45.9174 54.6438V53.3741ZM61.2192 56.3607L62.7446 59.9539H61.1099L59.6937 56.5509H58.2352V59.9539H56.6969V51.2576H60.542C61.0573 51.2576 61.4942 51.4362 61.8515 51.7986C62.21 52.1533 62.3925 52.5902 62.3925 53.0888V54.6052C62.3925 54.9985 62.2833 55.3597 62.0674 55.6757C61.8412 55.9893 61.5546 56.213 61.2205 56.3607H61.2192ZM60.8491 53.3741C60.8491 53.1672 60.7964 52.9963 60.6846 52.8613C60.5728 52.7252 60.4263 52.6609 60.2477 52.6609H58.2352V55.1489H60.2477C60.425 55.1489 60.5728 55.0833 60.6846 54.9561C60.7964 54.8224 60.8491 54.6528 60.8491 54.4459V53.3741ZM63.3614 52.6609H65.5719V59.9539H67.1114V52.6609H69.3424V51.2576H63.3614V52.6609ZM74.4597 54.7774H72.6091C72.1979 54.7774 71.9884 54.5487 71.9884 54.0925V53.3613C71.9884 53.1519 72.0462 52.9822 72.1568 52.846C72.266 52.7097 72.4215 52.6416 72.6078 52.6416H74.0664C74.4083 52.6416 74.637 52.8074 74.7449 53.1441L74.9467 53.8522H76.2832V53.0708C76.2832 52.5504 76.1059 52.1225 75.7576 51.7742C75.403 51.4298 74.975 51.2563 74.4597 51.2563H72.3122C71.8008 51.2563 71.36 51.4349 71.0053 51.7973C70.648 52.1559 70.4617 52.589 70.4617 53.0927V54.3482C70.4617 54.861 70.648 55.2966 71.0053 55.6591C71.36 56.0214 71.8008 56.1988 72.3122 56.1988H74.1641C74.5792 56.1988 74.7822 56.4365 74.7822 56.903V57.854C74.7822 58.0545 74.727 58.2305 74.6177 58.3629C74.5047 58.5017 74.3504 58.5672 74.1641 58.5672H72.69C72.32 58.5672 72.095 58.3976 72.0013 58.0673L71.8008 57.2667H70.4617V58.1303C70.4617 58.6572 70.6378 59.0851 70.9834 59.4321C71.3368 59.7778 71.7635 59.9513 72.284 59.9513H74.4597C74.975 59.9513 75.4119 59.7701 75.7756 59.4077C76.1329 59.0517 76.3128 58.6135 76.3128 58.0981V56.6267C76.3128 56.123 76.1329 55.6925 75.7589 55.3249C75.4017 54.9587 74.9673 54.7749 74.461 54.7749L74.4597 54.7774ZM78.2533 51.5428L77.9218 52.0517L77.5927 51.5428H77.4514V52.3846H77.5927V51.8654C77.5927 51.8358 77.5748 51.8076 77.5748 51.7742C77.5927 51.8037 77.6121 51.8358 77.6261 51.859L77.8999 52.2792H77.9256L78.1929 51.8667C78.2148 51.8371 78.2186 51.8089 78.234 51.7755C78.2301 51.8179 78.2301 51.8448 78.2301 51.8667V52.3859H78.3818V51.5441H78.2533V51.5428ZM54.2784 51.7921C54.6484 52.143 54.8232 52.5838 54.8232 53.0876V58.0854C54.8232 58.6148 54.6484 59.0517 54.2784 59.409C53.9146 59.7714 53.4867 59.9526 52.9688 59.9526H50.8921C50.3741 59.9526 49.936 59.7714 49.5748 59.409C49.2151 59.053 49.0313 58.6148 49.0313 58.0854V53.0876C49.0313 52.589 49.2151 52.1533 49.5748 51.7973C49.936 51.4349 50.3754 51.2563 50.8921 51.2563H52.9688C53.4867 51.2563 53.9146 51.4349 54.2784 51.7921ZM53.2888 53.3741C53.2888 53.1672 53.2309 52.9963 53.1115 52.8613C52.9984 52.7252 52.848 52.6609 52.6706 52.6609H51.1966C51.0039 52.6609 50.8574 52.7265 50.7417 52.8613C50.6299 52.9963 50.5773 53.1672 50.5773 53.3741V57.8322C50.5773 58.0339 50.6299 58.2023 50.7417 58.3385C50.8574 58.4785 51.0052 58.5519 51.1966 58.5519H52.6706C52.848 58.5519 52.9984 58.4798 53.1115 58.3385C53.2309 58.2023 53.2888 58.0339 53.2888 57.8322V53.3741ZM59.7735 29.0625H43.2225L40.6922 33.0875L57.2379 33.0784L59.7748 29.0625H59.7735ZM66.0435 41.1309H63.562L61.0161 45.1649H68.5868L71.1312 49.1873H75.9633L63.1571 28.9249L52.8699 45.1674H41.6175L44.1992 41.1374H51.1876L53.736 37.1124H38.1476L35.6018 41.1374H39.3441L34.2461 49.1923L55.2075 49.1873L63.1584 36.5572L66.0447 41.1309H66.0435Z" fill="white"/>
</g>
</g>
<defs>
<clipPath id="clip0_1_103">
<rect width="110.39" height="92" fill="white" transform="translate(0.0600433 0.359985)"/>
</clipPath>
<clipPath id="clip1_1_103">
<rect width="110.39" height="92" fill="white" transform="translate(0.0600433 0.359985)"/>
</clipPath>
</defs>
</svg>
