<svg width="110" height="93" viewBox="0 0 110 93" fill="none" xmlns="http://www.w3.org/2000/svg">
<g clip-path="url(#clip0_1_57)">
<g clip-path="url(#clip1_1_57)">
<path d="M89.2617 46.7423C89.2617 27.6261 73.7662 12.1306 54.65 12.1306C54.1288 12.1306 53.6102 12.1438 53.0943 12.1675L46.0145 31.6259H52.1808C55.849 31.6259 57.826 34.4505 56.5703 37.9002L47.8374 61.8995L40.5049 61.8981L49.8762 36.1747H44.3627L34.9915 61.8981H27.6564L38.6755 31.6259L45.3051 13.4086C30.7297 17.4862 20.0383 30.8652 20.0383 46.7423C20.0383 63.0906 31.3747 76.7908 46.6147 80.4142L53.0376 62.7628H53.0429L64.374 31.6259H77.8793C81.5515 31.6259 83.5271 34.4505 82.2714 37.9002L74.5981 58.9789C74.0137 60.5846 72.1381 61.8981 70.4297 61.8981H60.6952L53.622 81.3382C53.963 81.3474 54.3064 81.354 54.65 81.354C73.7662 81.354 89.2617 65.8572 89.2617 46.7423Z" fill="#0096D6"/>
<path d="M75.593 36.1562H70.0821L62.364 57.3322H67.8748L75.593 36.1562Z" fill="#0096D6"/>
</g>
</g>
<defs>
<clipPath id="clip0_1_57">
<rect width="109.3" height="92" fill="white" transform="translate(0 0.969971)"/>
</clipPath>
<clipPath id="clip1_1_57">
<rect width="109.3" height="92" fill="white" transform="translate(0 0.969971)"/>
</clipPath>
</defs>
</svg>
