<svg width="40" height="41" viewBox="0 0 40 41" fill="none" xmlns="http://www.w3.org/2000/svg">
<g clip-path="url(#clip0_1_1500)">
<path d="M24.91 7.29333C24.9484 7.39333 24.9717 7.50333 24.96 7.64C25.3317 7.81333 25.3684 8.11167 25.2817 8.42167C25.1817 8.79333 24.96 9.055 24.3784 8.91667C24.3665 9.05766 24.4046 9.19833 24.4859 9.3141C24.5672 9.42987 24.6867 9.51337 24.8234 9.55C24.9372 9.57845 25.0569 9.57241 25.1673 9.53264C25.2777 9.49287 25.3738 9.42118 25.4434 9.32667C25.4434 9.28833 25.455 9.24 25.455 9.20167C25.4969 9.0461 25.5984 8.91334 25.7376 8.8322C25.8768 8.75107 26.0424 8.72812 26.1984 8.76833C26.3539 8.8102 26.4867 8.91175 26.5678 9.05093C26.649 9.1901 26.6719 9.35567 26.6317 9.51167C26.6096 9.60582 26.5623 9.69222 26.495 9.76167C26.4825 9.87852 26.5053 9.99644 26.5606 10.1001C26.6159 10.2039 26.701 10.2886 26.805 10.3433C26.965 10.43 27.1384 10.4433 27.3 10.38C26.8667 10.1567 26.855 9.84667 26.9784 9.51333C27.0294 9.34772 27.1337 9.20359 27.275 9.10333C27.1344 8.58373 26.8266 8.1249 26.3991 7.79774C25.9716 7.47058 25.4483 7.29332 24.91 7.29333ZM26.8917 7.12C26.545 6.5 25.975 6.02833 25.0717 5.57C25.0717 5.83 24.985 6.00333 24.8367 6.115C25.0834 6.165 25.2817 6.37667 25.32 6.63667C25.3817 6.63667 25.405 6.68667 25.405 6.76C26.1367 6.88333 26.7434 7.24333 27.1767 7.74C27.1048 7.52348 27.0092 7.31556 26.8917 7.12ZM15.2034 6.59833C15.1784 6.71 15.1667 6.82167 15.1534 6.93333C15.29 6.98333 15.4017 7.08333 15.4767 7.26833C15.885 7.24333 16.0584 7.48 16.1317 7.80167C16.2317 8.17333 16.1567 8.50833 15.575 8.66833C15.6321 8.79728 15.7332 8.90176 15.8602 8.96311C15.9872 9.02447 16.1318 9.03872 16.2684 9.00333C16.3941 8.97335 16.5062 8.90236 16.5871 8.80156C16.668 8.70076 16.713 8.57589 16.715 8.44667C16.6656 8.36626 16.6356 8.27547 16.6274 8.18147C16.6192 8.08747 16.6329 7.99284 16.6675 7.90506C16.7022 7.81729 16.7567 7.73877 16.8269 7.67572C16.8971 7.61268 16.981 7.56682 17.072 7.54179C17.163 7.51676 17.2586 7.51323 17.3511 7.53149C17.4437 7.54975 17.5308 7.5893 17.6054 7.647C17.6801 7.70471 17.7403 7.77899 17.7813 7.86397C17.8223 7.94896 17.843 8.04232 17.8417 8.13667C17.8403 8.19523 17.8319 8.25343 17.8167 8.31C17.8526 8.43257 17.9275 8.54007 18.0301 8.61617C18.1327 8.69228 18.2573 8.73283 18.385 8.73167C18.5261 8.7343 18.6633 8.68526 18.7707 8.59378C18.8782 8.5023 18.9485 8.3747 18.9684 8.235C18.3734 8.235 18.2117 7.91333 18.2117 7.52833C18.2117 7.20667 18.3234 6.93333 18.72 6.84667C18.7817 6.51333 18.8817 6.37667 19.1417 6.32667C19.0493 6.28406 18.971 6.21592 18.9161 6.13028C18.8612 6.04464 18.8319 5.94507 18.8317 5.84333C18.51 5.65667 18.1884 5.62 17.8284 5.62C16.8664 5.63172 15.9384 5.97758 15.2034 6.59833ZM15.4884 5.68167C16.2317 5.27333 17.0117 5.04833 17.8534 5.04833C18.2367 5.04833 18.5967 5.09833 18.9434 5.18667V5.06167C18.8835 4.97456 18.8532 4.8706 18.8567 4.765C18.8567 4.65333 18.8934 4.55333 18.9434 4.46667V3.98333C18.8835 3.89623 18.8532 3.79227 18.8567 3.68667C17.2967 3.53667 16.07 4.41667 15.4884 5.68167ZM12.665 11.3217C12.4917 11.3967 12.3067 11.3217 12.22 11.1483C12.17 11.0483 12.1834 10.95 12.22 10.8517C12.0526 10.9059 11.8742 10.9172 11.7012 10.8846C11.5282 10.852 11.3662 10.7765 11.23 10.665C10.92 10.875 10.5967 10.7767 10.35 10.59C10.09 10.3917 9.88002 9.92167 10.19 9.66167C9.95335 9.35167 10.0167 8.94167 10.3 8.75667C10.2454 8.66232 10.2156 8.55566 10.2134 8.44667C10.2134 8.14833 10.425 7.91333 10.6967 7.85167C10.5484 7.765 10.4617 7.59 10.4617 7.39167C10.4631 7.24153 10.5192 7.09707 10.6196 6.98538C10.7199 6.87369 10.8576 6.80244 11.0067 6.785C10.9466 6.69328 10.9124 6.58703 10.9078 6.47749C10.9031 6.36794 10.9282 6.25917 10.9803 6.16269C11.0323 6.06621 11.1095 5.98559 11.2037 5.92938C11.2978 5.87316 11.4054 5.84343 11.515 5.84333C11.5692 5.84513 11.6229 5.85353 11.675 5.86833C11.6392 5.79001 11.6221 5.70442 11.625 5.61833C11.6252 5.51476 11.6518 5.41294 11.7023 5.32253C11.7529 5.23211 11.8256 5.1561 11.9138 5.10168C12.0019 5.04727 12.1025 5.01626 12.2059 5.01159C12.3094 5.00692 12.4123 5.02875 12.505 5.075C12.4917 4.64167 12.765 4.36833 13.0984 4.36833C13.2234 4.36833 13.3467 4.405 13.445 4.48C13.4743 4.34369 13.5492 4.22146 13.6574 4.13356C13.7656 4.04566 13.9006 3.99736 14.04 3.99667C14.1415 3.99717 14.2413 4.02343 14.3299 4.07298C14.4185 4.12253 14.4931 4.19376 14.5467 4.28C14.6032 4.21775 14.6722 4.16808 14.7491 4.1342C14.8261 4.10032 14.9093 4.08299 14.9934 4.08333C15.0434 4.08333 15.08 4.08333 15.13 4.095C15.1032 4.02367 15.0902 3.94787 15.0917 3.87167C15.0917 3.53833 15.365 3.265 15.6984 3.265C15.8234 3.265 15.9217 3.30167 16.02 3.35167C16.0084 2.91833 16.28 2.645 16.615 2.645C16.7452 2.64596 16.8716 2.68925 16.975 2.76833C17.0045 2.63345 17.0797 2.51287 17.1878 2.42695C17.2959 2.34102 17.4303 2.29501 17.5684 2.29667C17.7417 2.29667 17.89 2.36 18.0017 2.47167C18.0498 2.36761 18.1266 2.2795 18.2232 2.21777C18.3198 2.15604 18.4321 2.12327 18.5467 2.12333C18.62 2.12333 18.6834 2.13667 18.745 2.16167C18.8931 2.02437 19.0648 1.91484 19.2517 1.83833V1.38H18.795V0.908333H19.2517V0.5H19.7467V0.908333H20.205V1.38H19.7484V1.83833C20.0067 1.93833 20.1434 2.025 20.255 2.14833C20.3181 2.12312 20.3855 2.11065 20.4534 2.11167C20.7017 2.11167 20.8984 2.26167 20.9984 2.45833C21.0552 2.4018 21.1229 2.35732 21.1974 2.32754C21.2718 2.29776 21.3515 2.28329 21.4317 2.285C21.715 2.285 21.965 2.485 22.025 2.75667C22.1143 2.68768 22.2213 2.64529 22.3337 2.63437C22.446 2.62344 22.5591 2.64442 22.6601 2.69489C22.761 2.74537 22.8457 2.82329 22.9043 2.91971C22.963 3.01613 22.9933 3.12715 22.9917 3.24C23.0784 3.27667 23.19 3.24 23.3 3.24C23.635 3.24 23.9067 3.51167 23.9067 3.84667C23.9067 3.92167 23.895 3.99667 23.87 4.07C23.92 4.05833 23.9567 4.05833 24.0067 4.05833C24.18 4.05833 24.34 4.13167 24.4517 4.25667C24.5055 4.1701 24.5803 4.09856 24.6692 4.04872C24.7581 3.99888 24.8581 3.97237 24.96 3.97167C25.2434 3.97167 25.4934 4.18167 25.5534 4.455C25.6539 4.38141 25.7755 4.34225 25.9 4.34333C26.235 4.34333 26.5084 4.615 26.5084 4.95C26.5817 5 26.6817 4.975 26.78 4.975C26.8814 4.9749 26.9812 5.00014 27.0703 5.04841C27.1594 5.09668 27.2351 5.16646 27.2904 5.25141C27.3457 5.33636 27.3789 5.43379 27.387 5.53483C27.3951 5.63588 27.3778 5.73734 27.3367 5.83C27.3892 5.81462 27.4436 5.80621 27.4984 5.805C27.6081 5.8052 27.7158 5.8351 27.8099 5.89152C27.9041 5.94794 27.9812 6.02879 28.0332 6.12549C28.0851 6.22219 28.1099 6.33114 28.105 6.44079C28.1 6.55044 28.0655 6.65671 28.005 6.74833C28.1557 6.7618 28.2958 6.83187 28.3969 6.94443C28.498 7.057 28.5527 7.2037 28.55 7.355C28.5517 7.44837 28.5312 7.54081 28.4904 7.6248C28.4495 7.70879 28.3895 7.78195 28.315 7.83833C28.5867 7.9 28.7984 8.13667 28.7984 8.43333C28.8004 8.54292 28.7703 8.65071 28.7117 8.74333C29.0084 8.93 29.07 9.32667 28.8234 9.64833C29.1317 9.90833 28.91 10.38 28.6617 10.5783C28.415 10.765 28.0917 10.8633 27.7834 10.6533C27.6437 10.7589 27.4814 10.8305 27.3093 10.8626C27.1372 10.8947 26.96 10.8864 26.7917 10.8383C26.8132 10.8851 26.8244 10.936 26.8244 10.9875C26.8244 11.039 26.8132 11.0899 26.7917 11.1367C26.7726 11.1775 26.7456 11.2141 26.7121 11.2444C26.6787 11.2746 26.6396 11.2979 26.597 11.3128C26.5545 11.3277 26.5094 11.3339 26.4644 11.3312C26.4194 11.3284 26.3754 11.3167 26.335 11.2967C24.2026 10.2864 21.8713 9.7659 19.5117 9.77333C17.1442 9.7884 14.8082 10.3156 12.665 11.3217ZM11.7367 9.10333C11.8644 9.20623 11.9593 9.34406 12.01 9.5C12.1334 9.83333 12.12 10.145 11.6867 10.3667C11.8484 10.43 12.0217 10.4167 12.1834 10.33C12.2856 10.2729 12.369 10.1874 12.4238 10.0839C12.4785 9.98041 12.5021 9.86328 12.4917 9.74667C12.4305 9.67442 12.3845 9.59051 12.3567 9.5C12.3165 9.344 12.3394 9.17844 12.4206 9.03926C12.5017 8.90008 12.6345 8.79853 12.79 8.75667C12.9458 8.71695 13.1109 8.74015 13.2497 8.82124C13.3885 8.90233 13.4898 9.0348 13.5317 9.19C13.5427 9.23014 13.5472 9.27177 13.545 9.31333C13.6162 9.40916 13.7143 9.4816 13.8268 9.52138C13.9393 9.56116 14.0611 9.56648 14.1767 9.53667C14.3134 9.50003 14.4328 9.41653 14.5141 9.30077C14.5955 9.185 14.6335 9.04432 14.6217 8.90333C14.0384 9.05333 13.8167 8.78 13.7184 8.40833C13.6317 8.09833 13.6684 7.80167 14.04 7.62833C14.0254 7.50867 14.0469 7.38737 14.1017 7.28C12.8517 7.31833 12.0217 8.13667 11.7367 9.10333ZM13.68 6.63667C13.6932 6.50907 13.7474 6.3892 13.8346 6.29511C13.9217 6.20102 14.0371 6.13781 14.1634 6.115C14.091 6.05675 14.0324 5.98321 13.9917 5.89965C13.9511 5.81609 13.9295 5.72457 13.9284 5.63167C13 6.02833 12.43 6.51167 12.0834 7.15667C12.0043 7.3347 11.9342 7.5166 11.8734 7.70167C12.3067 7.21833 12.9 6.86 13.6317 6.735L13.6817 6.635L13.68 6.63667ZM20.13 5.855C20.1335 5.95882 20.1046 6.06115 20.0472 6.14777C19.9899 6.23439 19.907 6.30099 19.81 6.33833C20.07 6.38833 20.1684 6.525 20.23 6.86C20.6267 6.93333 20.7384 7.20667 20.7384 7.54167C20.7384 7.925 20.5884 8.235 19.9834 8.24833C20.0334 8.53167 20.2667 8.74333 20.565 8.74333C20.6927 8.7445 20.8174 8.70395 20.9199 8.62784C21.0225 8.55174 21.0974 8.44424 21.1334 8.32167C21.1068 8.23762 21.0988 8.1488 21.11 8.06137C21.1212 7.97394 21.1512 7.88997 21.198 7.81529C21.2448 7.74061 21.3073 7.677 21.3812 7.62886C21.455 7.58071 21.5384 7.54919 21.6256 7.53647C21.7129 7.52374 21.8018 7.53013 21.8863 7.55517C21.9708 7.58022 22.0489 7.62333 22.1151 7.68153C22.1813 7.73972 22.234 7.81161 22.2697 7.89221C22.3054 7.97281 22.3231 8.0602 22.3217 8.14833C22.3243 8.25775 22.2947 8.36553 22.2367 8.45833C22.2425 8.59211 22.293 8.72006 22.3803 8.8216C22.4676 8.92315 22.5865 8.99238 22.7179 9.01815C22.8493 9.04393 22.9856 9.02477 23.1048 8.96373C23.2239 8.9027 23.3191 8.80335 23.375 8.68167C22.7917 8.53167 22.7317 8.185 22.8184 7.815C22.905 7.50333 23.065 7.25667 23.4734 7.28167C23.5362 7.13399 23.6513 7.01471 23.7967 6.94667C23.7861 6.83418 23.7694 6.72235 23.7467 6.61167C23.0071 5.97392 22.0616 5.62577 21.085 5.63167C20.7466 5.62962 20.4093 5.67164 20.0817 5.75667L20.1317 5.85667L20.13 5.855ZM23.5117 5.69333C22.9417 4.41667 21.7284 3.525 20.1317 3.61C20.1317 3.785 20.1067 3.885 20.045 3.97167V4.455C20.1049 4.54205 20.1353 4.64605 20.1317 4.75167C20.1297 4.85702 20.0997 4.95995 20.045 5.05V5.17333C20.4019 5.08743 20.768 5.046 21.135 5.05C21.9693 5.05681 22.7879 5.27837 23.5117 5.69333ZM13.94 10.0333C13.7172 10.0175 13.5032 9.94016 13.3217 9.81C13.2612 9.8604 13.189 9.89479 13.1117 9.91C12.9867 10.1433 12.8884 10.355 12.7284 10.5167C13.1252 10.3385 13.5295 10.1773 13.94 10.0333ZM23.8834 8.81667C23.8157 8.98334 23.7079 9.13068 23.5694 9.24555C23.431 9.36042 23.2663 9.43925 23.09 9.475C23.4867 9.56167 23.8834 9.66167 24.2667 9.77333C24.1249 9.66151 24.0149 9.5145 23.9477 9.34694C23.8804 9.17939 23.8582 8.99713 23.8834 8.81833V8.81667ZM22.2617 9.31333C22.0396 9.17346 21.8698 8.96436 21.7784 8.71833C21.6784 8.71833 21.6284 8.70667 21.5667 8.69333C21.4164 8.91013 21.1992 9.07171 20.9484 9.15333C21.3817 9.19 21.8267 9.24 22.26 9.31333H22.2617ZM18.0517 9.15333C17.8026 9.06756 17.586 8.9069 17.4317 8.69333C17.37 8.70667 17.3217 8.71833 17.2584 8.71833C17.1531 8.96309 16.9766 9.17045 16.7517 9.31333C17.1717 9.24 17.6184 9.19 18.0517 9.15333ZM15.13 8.81667C15.1474 8.99385 15.1229 9.17265 15.0583 9.33857C14.9937 9.50449 14.891 9.65287 14.7584 9.77167C15.1417 9.66 15.5384 9.56 15.9334 9.47333C15.7546 9.4413 15.587 9.36417 15.4465 9.24926C15.3059 9.13434 15.197 8.98545 15.13 8.81667ZM18.8934 9.1C19.0917 9.08833 19.3017 9.08833 19.5117 9.08833C19.7234 9.08833 19.92 9.08833 20.1317 9.10167C19.9709 9.02115 19.831 8.90418 19.7234 8.76008C19.6158 8.61598 19.5433 8.44874 19.5117 8.27167C19.4803 8.44858 19.408 8.61572 19.3007 8.7598C19.1934 8.90389 19.0539 9.01928 18.8934 9.1ZM25.0717 10.0317C25.48 10.18 25.8884 10.3417 26.285 10.515C26.1305 10.3494 26.027 10.1429 25.9867 9.92C25.8821 9.90016 25.7817 9.86238 25.69 9.80833C25.5113 9.94369 25.2957 10.0216 25.0717 10.0317ZM27.56 9.585C27.4855 9.72004 27.4671 9.87901 27.5089 10.0275C27.5507 10.176 27.6493 10.302 27.7834 10.3783C27.9181 10.4532 28.0769 10.4718 28.2253 10.43C28.3736 10.3881 28.4993 10.2893 28.575 10.155C28.6473 10.0183 28.6632 9.8587 28.6193 9.71042C28.5753 9.56215 28.4751 9.43696 28.34 9.36167C28.2746 9.32322 28.2021 9.29847 28.1268 9.28892C28.0515 9.27937 27.9751 9.28521 27.9021 9.3061C27.8292 9.32698 27.7613 9.36248 27.7024 9.41042C27.6436 9.45836 27.5952 9.51776 27.56 9.585ZM23.5367 7.85C23.4997 7.99935 23.523 8.15727 23.6016 8.28954C23.6803 8.42181 23.8078 8.51778 23.9567 8.55667C24.1063 8.59406 24.2646 8.57069 24.397 8.49167C24.5295 8.41266 24.6252 8.28442 24.6634 8.135C24.7003 7.98542 24.6767 7.8273 24.5978 7.69499C24.5188 7.56268 24.3909 7.46686 24.2417 7.42833C24.1677 7.40771 24.0902 7.40235 24.0141 7.41259C23.9379 7.42282 23.8646 7.44844 23.7987 7.48788C23.7328 7.52732 23.6755 7.57976 23.6305 7.64202C23.5854 7.70427 23.5535 7.77503 23.5367 7.85ZM11.5267 9.525C11.452 9.38931 11.3269 9.28844 11.1785 9.24416C11.0301 9.19988 10.8702 9.21575 10.7334 9.28833C10.5979 9.36328 10.4975 9.48859 10.4538 9.63709C10.4101 9.78559 10.4267 9.94532 10.5 10.0817C10.5744 10.2172 10.6992 10.3181 10.8473 10.3624C10.9955 10.4067 11.1551 10.3908 11.2917 10.3183C11.3609 10.2834 11.4222 10.2347 11.4718 10.1752C11.5215 10.1157 11.5584 10.0466 11.5802 9.97222C11.6021 9.89786 11.6085 9.81981 11.599 9.74288C11.5895 9.66596 11.566 9.5918 11.5267 9.525ZM15.4634 7.85C15.4252 7.70094 15.3297 7.573 15.1977 7.49402C15.0656 7.41505 14.9077 7.39144 14.7584 7.42833C14.6092 7.46686 14.4812 7.56268 14.4023 7.69499C14.3233 7.8273 14.2998 7.98542 14.3367 8.135C14.3748 8.28442 14.4706 8.41266 14.603 8.49167C14.7354 8.57069 14.8937 8.59406 15.0434 8.55667C15.118 8.53902 15.1883 8.50652 15.2502 8.46113C15.312 8.41573 15.364 8.35835 15.4032 8.29241C15.4424 8.22647 15.4679 8.15332 15.4783 8.07732C15.4886 8.00131 15.4835 7.924 15.4634 7.85ZM20.0817 7.40333C20.0819 7.24907 20.0208 7.10103 19.9119 6.99179C19.803 6.88255 19.6551 6.82105 19.5009 6.82083C19.3466 6.82061 19.1986 6.88168 19.0893 6.99061C18.9801 7.09954 18.9186 7.2474 18.9184 7.40167C18.9184 7.55593 18.9796 7.70388 19.0887 7.81297C19.1978 7.92205 19.3458 7.98333 19.5 7.98333C19.6543 7.98333 19.8022 7.92205 19.9113 7.81297C20.0204 7.70388 20.0817 7.55593 20.0817 7.40167V7.40333ZM26.1984 12.04L26.31 12.4983L25.8517 12.7583C25.925 12.8083 25.9517 12.895 25.9134 12.9817C25.9045 13.0021 25.8917 13.0206 25.8756 13.036C25.8595 13.0515 25.8406 13.0636 25.8198 13.0717C25.799 13.0797 25.7769 13.0836 25.7546 13.083C25.7323 13.0824 25.7104 13.0775 25.69 13.0683C23.7549 12.1544 21.6401 11.6841 19.5 11.6917C17.2834 11.6917 15.1917 12.1883 13.31 13.0683C13.2234 13.105 13.1367 13.0683 13.0867 12.9817C13.05 12.9067 13.0867 12.8083 13.1484 12.7583L12.69 12.5L12.8017 12.0417C12.7673 12.0488 12.7315 12.0441 12.7 12.0283C12.6686 12.0126 12.6433 11.9868 12.6284 11.955C12.6189 11.9379 12.6129 11.9191 12.6109 11.8996C12.6089 11.8802 12.6108 11.8605 12.6165 11.8418C12.6223 11.8232 12.6318 11.8058 12.6444 11.7909C12.657 11.776 12.6726 11.7638 12.69 11.755C14.8199 10.7525 17.146 10.2362 19.5 10.2433C21.9384 10.2433 24.23 10.7883 26.2967 11.7567C26.3717 11.7933 26.3967 11.88 26.3584 11.955C26.3449 11.985 26.3219 12.0097 26.293 12.0254C26.2641 12.041 26.2308 12.0468 26.1984 12.0417V12.04ZM19.4984 13.8117C12.6784 13.8117 7.10669 19.3783 7.10669 26.2217C7.10669 33.0517 12.6784 38.63 19.5 38.63C26.3217 38.63 31.8934 33.0517 31.8934 26.22C31.8934 19.3783 26.32 13.8117 19.4984 13.8117ZM19.4984 12.1517C27.2384 12.1517 33.54 18.4733 33.54 26.2217C33.54 33.955 27.2384 40.2783 19.5 40.2783C11.7617 40.2783 5.46002 33.9567 5.46002 26.2217C5.46002 18.4717 11.76 12.1517 19.4984 12.1517ZM31.2617 26.1467C31.2662 28.9029 30.297 31.5722 28.525 33.6833L27.175 32.3333C28.625 30.5717 29.565 28.8233 29.565 26.0333C29.565 23.0967 28.0317 19.75 25.565 18.0517L23.9934 19.6633C24.8367 20.2967 25.505 20.9517 26.0617 21.845L24.725 22.9983C24.2417 22.13 23.5984 21.4983 22.78 20.94L19.5 24.4133L16.095 20.905C14.3617 22.1067 13.3584 23.88 13.31 26.0117C13.26 28.85 15.08 30.8833 17.6684 31.7517V25.9367H21.7784V27.2267H19.3134V28.69H21.7417V30.1517H19.3134V32.0233C21.085 32.11 23.0167 31.0317 24.155 29.7567L25.43 31.045C23.9084 32.8417 21.655 33.785 19.3267 33.7967V35.5933H17.68V33.6C14.1267 32.7067 11.5634 29.5467 11.6134 25.84C11.65 23.3117 12.9867 21.1783 14.9567 19.7033L13.3584 18.0417C10.8084 20.1383 9.43335 22.7167 9.32335 26.025C9.23669 29.0133 10.7967 31.3933 11.75 32.3733L10.56 33.5883C8.80335 31.5417 7.76336 29.025 7.76336 26.1383C7.76336 21.7867 10.1634 17.9433 13.7184 15.91L16.4917 18.81C17.4618 18.4303 18.4949 18.2375 19.5367 18.2417C20.5374 18.2499 21.5279 18.4432 22.4584 18.8117L22.595 18.675L25.295 15.885C28.8467 17.9317 31.2617 21.7617 31.2617 26.15V26.1467ZM21.1717 20.1967C20.6017 20.06 20.0567 19.935 19.4634 19.9233C18.88 19.8983 18.2984 20.0233 17.7417 20.1467L19.3517 21.8083L19.525 21.9317L21.1717 20.1967ZM21.135 23.37L27.9434 30.4233C27.56 31.0567 27.09 31.6883 26.52 32.37L28.2284 34.0683C27.0911 35.3083 25.7131 36.3036 24.1784 36.9933L21.32 34.055C23.2017 33.6217 24.8234 32.5433 26.075 31.005L24.13 29.035C23.09 30.275 21.4934 31.4267 19.81 31.5383V30.6217H22.2367V28.1917H19.81V27.6967H22.2734V25.44H17.1967V29.8283L13.805 26.3567C13.805 26.245 13.7917 26.1217 13.805 26.01C13.8147 25.14 14.0226 24.2837 14.4131 23.5062C14.8036 22.7287 15.3663 22.0506 16.0584 21.5233L19.24 24.82L19.5117 25.0933L21.135 23.37ZM11.39 23.9033L10.375 22.8617C10.945 21.2867 11.91 19.8983 13.2967 18.695L14.2134 19.6383C12.8884 20.73 11.86 22.2167 11.39 23.9033Z" fill="black"/>
</g>
<defs>
<clipPath id="clip0_1_1500">
<rect width="40" height="40" fill="white" transform="translate(0 0.5)"/>
</clipPath>
</defs>
</svg>
