<svg width="111" height="93" viewBox="0 0 111 93" fill="none" xmlns="http://www.w3.org/2000/svg">
<g clip-path="url(#clip0_1_20)">
<g clip-path="url(#clip1_1_20)">
<g clip-path="url(#clip2_1_20)">
<mask id="mask0_1_20" style="mask-type:luminance" maskUnits="userSpaceOnUse" x="0" y="0" width="111" height="93">
<path d="M110.84 0.584167H0.450012V92.5758H110.84V0.584167Z" fill="white"/>
</mask>
<g mask="url(#mask0_1_20)">
<mask id="mask1_1_20" style="mask-type:luminance" maskUnits="userSpaceOnUse" x="1" y="0" width="110" height="93">
<path d="M110.658 0.584167H1.1799V92.5758H110.658V0.584167Z" fill="white"/>
</mask>
<g mask="url(#mask1_1_20)">
<mask id="mask2_1_20" style="mask-type:luminance" maskUnits="userSpaceOnUse" x="1" y="5" width="110" height="84">
<path d="M110.658 5.18378H1.1799V88.5932H110.658V5.18378Z" fill="white"/>
</mask>
<g mask="url(#mask2_1_20)">
<path d="M86.1701 68.0818C86.7433 67.0141 87.1956 64.3007 85.2362 64.4478C82.9663 64.6202 83.3978 70.707 83.3978 70.707C84.1565 69.8767 85.2967 69.7065 86.1701 68.0818Z" fill="#D71A21"/>
<path d="M63.9229 73.4813C63.9229 74.3283 64.4857 75.1543 65.2736 75.1543C66.6784 75.1543 66.9995 74.6898 67.3164 74.4061L67.31 68.8553C66.5951 69.7338 63.9229 70.1899 63.9229 73.4813Z" fill="#D71A21"/>
<path d="M69.8217 40.0061C71.36 41.2525 72.0895 39.9137 71.0578 38.4845C70.6493 37.9191 69.0671 38.0809 68.6002 38.5812C68.6002 38.5812 69.4277 39.6888 69.8217 40.0061Z" fill="#D71A21"/>
<path d="M56.4836 32.8809C55.7332 31.5568 53.3591 29.0998 53.3591 29.0998C53.3591 29.0998 49.2007 33.4127 49.0631 33.5598C48.4023 34.2576 48.2877 34.43 47.6707 34.8041H55.2121C57.2549 34.8041 56.8484 33.5241 56.4836 32.8809Z" fill="#D71A21"/>
<path d="M1.1799 5.18378V88.5932H110.658V5.18378H1.1799ZM60.0792 33.7828C60.0855 33.4507 60.0792 24.1818 60.0792 23.7951C60.0792 22.1789 60.9339 20.8736 61.1778 20.6172C61.4799 20.2998 64.7213 17.3511 64.9401 17.1283L65.8489 17.1556C65.6446 17.3741 64.4857 18.3493 64.1356 18.7445C63.7916 19.1313 63.1266 19.9299 63.1266 21.3696C63.1266 21.7564 63.1204 30.5376 63.1204 30.9664C63.1204 32.7886 62.1679 33.9488 61.7676 34.407C61.4612 34.7601 58.5243 37.3853 58.2429 37.6564L57.38 37.6417C57.5134 37.4946 59.0391 36.0968 59.2871 35.8467C59.6394 35.4936 60.0667 34.489 60.0792 33.7828ZM44.6045 33.7512C44.9485 34.1527 45.2965 34.6214 46.1408 34.6088C46.7994 34.5983 47.4915 34.0771 47.677 33.89C47.8687 33.6946 52.7421 28.5578 52.7421 28.5578C52.7421 28.5578 50.4597 26.4245 48.9568 25.4092C48.223 24.9132 47.2497 25.5396 47.1017 26.1932C46.641 28.2362 47.1017 31.3006 47.1017 31.3006C47.1017 31.3006 45.6113 29.802 45.2528 29.4405C44.5087 28.6881 44.5357 26.9877 45.4216 26.0924C45.5613 25.9494 46.912 24.4088 48.6295 24.4088H51.3017C53.0965 24.4088 55.0579 26.21 55.0579 26.21C55.0579 26.21 55.3455 25.8927 55.3455 25.5838C55.3455 24.6568 55.3101 22.1578 55.3101 22.1578C53.9615 20.7959 53.778 19.394 54.4243 18.7424C55.6311 17.5255 56.0708 17.0967 56.0708 17.0967C56.0708 17.0967 56.0563 18.5764 57.4653 19.9951C57.9489 20.4827 58.9912 21.8047 58.3658 22.4352C57.8135 22.9923 56.9588 23.875 56.9588 23.875C56.9151 23.5555 56.1146 22.7904 56.1146 22.7904C56.1146 22.7904 56.1231 25.1381 56.1146 25.4282C56.0876 26.4875 55.6916 26.7901 55.6916 26.7901C55.6916 26.7901 57.6342 28.7343 57.6342 31.2291C57.6342 32.4397 57.6384 33.5537 57.6384 33.7933C57.6384 34.304 57.5112 34.7012 57.1569 35.0943C56.9818 35.2898 55.1829 37.1142 54.9078 37.3622C54.3867 37.835 53.8386 37.9149 53.4258 37.9149H46.7306C45.676 37.9149 44.5899 37.0847 44.5899 36.2545C44.5899 36.0464 44.6045 33.7512 44.6045 33.7512ZM41.9699 29.6465C42.1116 29.7075 42.8891 30.0227 42.8891 33.0366C42.8891 33.0366 42.8369 36.5403 42.8369 36.7274C42.8369 38.2554 44.0417 40.0062 45.7802 40.0062C46.1366 40.0062 60.0647 39.9915 60.0647 39.9915C60.0771 39.6048 60.4607 38.1356 61.1465 37.358C61.5362 36.9208 64.6004 34.0939 64.9505 33.8227L65.8573 33.8122C65.7218 33.9383 64.2418 35.2772 63.9104 35.6303C63.5082 36.0569 63.1246 37.1036 63.1246 38.0243V39.9894H65.1027C65.8719 39.9894 66.8849 39.2832 67.1058 38.9111C67.1183 38.8838 67.1058 36.9607 67.1058 36.9607C67.1058 36.9607 67.6144 37.6942 68.1626 38.0809C68.3689 37.8182 70.1677 35.6177 71.6769 35.6051C74.1928 35.584 73.6259 38.7871 72.5961 39.8107C72.2627 40.1407 70.7764 41.5152 70.3158 41.9566C69.1278 43.098 67.0933 42.5514 67.0933 39.6026C67.0933 39.6026 64.9088 41.6939 64.5815 41.9692C64.2522 42.2467 63.1266 43.4489 63.1266 43.4489V48.6298C63.1266 51.1141 62.3159 51.9486 61.6426 52.6947C61.382 52.9848 58.6077 55.5384 58.2366 55.8137L57.3298 55.8348C57.3298 55.8348 58.9537 54.3467 59.2789 54.0062C59.6478 53.6195 60.0792 52.8313 60.0792 51.5219C60.0792 51.1898 60.0375 43.3817 60.0375 43.3817H47.4164C43.0266 43.3817 42.0887 38.4698 42.0615 37.1541C42.0532 36.7674 42.0615 32.8433 42.0615 32.2359C42.0615 31.4288 41.5488 30.0669 40.7317 29.6465H41.9699ZM66.8765 48.2074C66.6493 47.9636 65.4946 46.7613 65.4946 46.7613V42.7785C65.4946 42.7785 66.5431 43.7747 66.7077 43.9407C67.0098 44.2455 68.0959 45.2607 68.0959 47.0051V52.1987C68.0959 54.0692 67.5497 56.0702 66.074 57.5603C64.5962 59.0484 62.3576 60.1056 59.9105 60.1056H57.503L53.9073 56.9382H59.9542C62.2762 56.9382 63.9625 55.3324 64.5545 54.7503C67.9312 51.4294 67.9437 49.3507 66.8765 48.2074ZM53.284 47.8605C53.284 48.5563 51.0807 50.4016 50.9516 50.5319C50.7931 49.7837 50.2366 48.9556 48.5941 47.2994L51.0058 44.8676C52.6212 46.4986 53.284 46.8454 53.284 47.8605ZM48.3565 47.871C48.3565 48.5647 46.1533 50.4121 46.0241 50.5425C45.8657 49.7921 45.309 48.9661 43.6666 47.3078L46.0761 44.8761C47.6936 46.507 48.3565 46.8538 48.3565 47.871ZM40.4649 40.4812C40.4649 40.4812 41.3862 40.4812 41.3841 43.8714V47.169C41.3841 51.1793 44.9672 53.5627 47.6186 53.4975C48.0562 53.4849 54.5014 53.4829 54.8182 53.4829C56.3961 53.4829 57.751 51.1309 56.0479 49.7753C55.6853 49.4873 54.8577 48.6004 54.8577 48.6004V44.5314C54.8577 44.5314 55.6978 45.3384 56.0021 45.6453C56.4795 46.1266 57.4653 46.8412 57.4653 48.5584V50.5446C57.4653 52.577 56.7358 53.2054 56.05 53.9789C55.8416 54.2101 55.2747 54.8532 54.839 55.2442C53.6489 56.3077 52.9589 56.789 50.9891 56.789H47.7125C43.7875 56.789 40.5566 53.1382 40.5566 49.1889V43.1189C40.5566 41.2168 39.2267 40.4812 39.2267 40.4812H40.4649ZM51.0412 60.8055C51.0412 61.684 50.32 62.3965 49.43 62.3965C48.5399 62.3965 47.8166 61.684 47.8187 60.8055C47.8187 59.9269 48.5399 59.2144 49.43 59.2144C50.32 59.2144 51.0412 59.9269 51.0412 60.8055ZM26.1596 74.608C26.1596 75.333 25.5113 76.674 23.6541 76.674H19.6124H18.295H15.454C15.454 76.674 14.441 76.6025 14.441 74.0509L14.4014 63.8846C14.441 61.3477 12.9964 60.1014 12.9964 60.1014H21.3133C25.5717 60.1014 25.9115 63.0439 25.9115 63.0439C24.1397 61.8542 22.4346 61.8879 20.2293 61.8858C20.0668 61.8858 17.6823 61.8774 17.6823 61.8774C18.0595 62.3376 18.0595 63.8951 18.0595 63.8951V64.5866V65.6838H19.8542C22.6222 65.6838 23.554 67.9474 23.554 67.9474C22.2596 67.2075 20.9297 67.3673 19.8604 67.3673C18.9057 67.3673 18.0616 67.3883 18.0616 67.3883V72.9686C18.1679 73.8386 18.074 74.856 19.2914 74.856C19.7249 74.856 22.7557 74.8601 23.1476 74.8601C25.5968 74.8601 26.1867 73.6348 26.1867 73.6327L26.1596 74.608ZM42.8348 76.6424C42.8348 76.6424 41.8198 76.6676 41.8052 74.0047C41.8031 73.454 41.8093 67.5123 41.8093 67.5123C41.8302 66.514 40.9569 65.627 39.9146 65.627C38.6057 65.627 38.1491 66.5791 38.0199 66.97L38.0303 73.9752C38.0303 75.7093 39.356 76.6508 39.356 76.6508H35.8896C35.8896 76.6508 34.86 76.6446 34.86 73.9984L34.862 67.4913C34.8829 66.4929 33.9553 65.6059 33.111 65.6059C31.6206 65.6059 31.0996 66.6653 31.0558 66.9763V73.9773C31.0558 75.6672 32.2918 76.6068 32.3815 76.6529H28.9276C28.9276 76.6529 27.8855 76.6068 27.8855 74.0005L27.8874 66.1041C27.8874 63.9687 26.6743 63.4663 26.6743 63.4663L28.7693 63.4622C30.9079 63.4622 30.9704 65.9318 30.9704 65.9318C30.9704 65.9318 31.6458 63.376 34.3097 63.376C35.7187 63.376 37.4383 64.1599 37.9303 65.8918C38.2116 65.2529 38.8703 63.3949 41.0756 63.3949C42.7411 63.3949 44.9755 64.1284 44.9755 66.888V74.0005C44.9755 75.7303 46.3012 76.6508 46.3012 76.6508C46.3012 76.6508 44.64 76.6424 42.8348 76.6424ZM48.9109 76.6446C48.9109 76.6446 47.852 76.6614 47.852 74.0173V74.0047L47.8563 66.0872C47.8563 63.9981 46.6556 63.4622 46.6556 63.4622H48.7505C49.4884 63.4622 51.0266 63.4622 51.0266 66.4152L51.0225 73.9837L51.035 73.9984C51.035 75.7513 52.3648 76.6529 52.3648 76.6529C52.3648 76.6529 50.716 76.6446 48.9109 76.6446ZM58.5659 76.6488H55.1121C55.1121 76.6488 54.0699 76.6046 54.0699 73.9963L54.074 66.0893C54.074 63.9561 52.8588 63.4537 52.8588 63.4537L54.9537 63.4474C56.4857 63.4474 57.0318 64.0549 57.2068 66.1083C57.2068 66.1083 57.7364 63.5104 59.9062 63.5104C61.3403 63.5104 61.6739 64.4584 61.6739 64.4584H61.676V66.6968C60.7859 65.5997 59.2308 65.4231 58.0928 66.1672C57.6364 66.4635 57.3362 66.9153 57.2445 67.5018L57.2402 73.9773C57.2402 75.6651 58.4763 76.6068 58.5659 76.6488ZM68.3377 76.6424C68.3377 76.6424 67.6019 76.5584 67.3684 75.0913C66.9765 75.8543 66.0386 76.6761 64.4774 76.6761C62.8723 76.6761 61.5925 76.1128 61.2152 74.1792C60.2564 69.3051 66.5076 69.0046 67.3101 67.5859C67.7498 66.8124 67.5726 66.2176 67.5706 66.2133C67.5811 65.772 67.4518 64.8892 65.6926 64.8892C63.8916 64.8892 63.1808 66.7115 63.1808 66.7115V64.4121C63.1808 64.4121 64.4336 63.4453 66.4242 63.4453C68.4962 63.4453 70.445 64.8262 70.445 66.5981V74.0089C70.445 75.7492 71.7916 76.6488 71.7916 76.6488C71.7916 76.6488 70.1428 76.6424 68.3377 76.6424ZM79.8333 65.4505C79.8333 65.4505 78.9599 64.9355 77.7905 64.9355C77.2215 64.9355 77.8489 64.9334 76.938 64.9313L76.9338 74.0783C76.9338 75.7534 78.2679 76.6529 78.2679 76.6529C78.2679 76.6529 76.7129 76.6446 74.8181 76.6446C74.8181 76.6446 73.7635 76.6446 73.7635 74.1014L73.7676 64.925L71.5748 64.8851C71.5748 64.8851 73.6342 63.8804 74.6159 63.0691C76.1772 61.7765 76.9401 60.444 76.9401 60.444L76.938 63.4622H79.8437L79.8333 65.4505ZM85.3507 74.8853C85.876 75.1313 88.0104 75.9068 89.3924 73.5024L89.3819 75.6314C89.3819 75.6314 88.4961 76.6698 85.68 76.6698C82.2866 76.6698 79.9625 73.9795 79.9625 70.3308C79.9625 66.743 81.8572 63.4138 85.434 63.3949C88.9401 63.376 90.8369 66.2323 88.2918 68.9184C86.3533 70.9634 84.8338 70.6418 83.6165 72.1405C83.6165 72.1425 83.8124 74.1707 85.3507 74.8853ZM94.1408 76.6572C92.1503 76.6572 90.8515 75.724 90.8515 75.724V73.3679C90.8515 73.3679 91.5706 75.2259 93.3717 75.2259C95.1288 75.2259 95.9567 74.0026 95.9374 73.0715C95.9245 72.4052 95.5574 71.7179 94.5556 71.1568C93.8657 70.7701 93.2714 70.4064 92.7719 70.0323C91.5102 69.0823 90.8577 68.0734 90.8265 66.5181C90.789 64.7442 92.6717 63.3655 94.7433 63.3655C96.734 63.3655 98.0467 64.4164 98.0467 64.4164L98.0532 66.6233C98.0532 66.6233 97.3209 64.801 95.6062 64.801C93.8446 64.801 93.6339 65.6921 93.6532 66.1335C93.6615 66.3836 94.0037 67.0961 94.6458 67.4954C95.7727 68.1954 97.2271 68.9499 98.0283 70.0303C98.5076 70.6817 98.8222 71.4384 98.8388 72.3254C98.8931 74.8454 96.505 76.6572 94.1408 76.6572Z" fill="#D71A21"/>
</g>
</g>
</g>
</g>
</g>
</g>
<defs>
<clipPath id="clip0_1_20">
<rect width="110.39" height="92" fill="white" transform="translate(0.450012 0.580017)"/>
</clipPath>
<clipPath id="clip1_1_20">
<rect width="110.39" height="92" fill="white" transform="translate(0.450012 0.580017)"/>
</clipPath>
<clipPath id="clip2_1_20">
<rect width="110.39" height="91.9917" fill="white" transform="translate(0.450012 0.584167)"/>
</clipPath>
</defs>
</svg>
