<svg width="112" height="93" viewBox="0 0 112 93" fill="none" xmlns="http://www.w3.org/2000/svg">
<g clip-path="url(#clip0_1_239)">
<g clip-path="url(#clip1_1_239)">
<path d="M40.4375 54.5674H36.404V70.552H40.4375V54.5674Z" fill="#049FD9"/>
<path d="M72.9627 59.1475C72.7981 59.0624 71.4976 58.2939 69.5684 58.2939C66.9608 58.2939 65.1512 60.1093 65.1512 62.5571C65.1512 64.9322 66.8832 66.8241 69.5684 66.8241C71.465 66.8241 72.7847 66.0719 72.9627 65.9753V70.2662C72.4564 70.4088 71.0784 70.8356 69.287 70.8356C64.7502 70.8356 60.7674 67.7073 60.7674 62.5571C60.7674 57.783 64.3713 54.2834 69.287 54.2834C71.1789 54.2834 72.5808 54.7437 72.9627 54.8556V59.1475Z" fill="#049FD9"/>
<path d="M30.8591 59.1475C30.6965 59.0624 29.3988 58.2939 27.4706 58.2939C24.8581 58.2939 23.0505 60.1093 23.0505 62.5571C23.0505 64.9322 24.7835 66.8241 27.4706 66.8241C29.3673 66.8241 30.6859 66.0719 30.8591 65.9753V70.2662C30.3577 70.4088 28.9826 70.8356 27.1806 70.8356C22.6466 70.8356 18.6686 67.7073 18.6686 62.5571C18.6686 57.783 22.2725 54.2834 27.1806 54.2834C29.0782 54.2834 30.4792 54.7437 30.8591 54.8556V59.1475Z" fill="#049FD9"/>
<path d="M94.0986 62.5571C94.0986 67.1304 90.567 70.8356 85.6512 70.8356C80.7354 70.8356 77.2091 67.1304 77.2091 62.5571C77.2091 57.9915 80.7354 54.2834 85.6512 54.2834C90.567 54.2834 94.0986 57.9915 94.0986 62.5571ZM85.6512 58.3532C83.2579 58.3532 81.4818 60.2365 81.4818 62.5571C81.4818 64.8825 83.2589 66.7648 85.6512 66.7648C88.0416 66.7648 89.8235 64.8835 89.8235 62.5571C89.8235 60.2365 88.0416 58.3532 85.6512 58.3532Z" fill="#049FD9"/>
<path d="M55.7356 58.2014C55.6753 58.1823 53.9777 57.7134 52.5825 57.7134C50.9652 57.7134 50.0867 58.255 50.0867 59.0235C50.0867 59.9966 51.2724 60.3364 51.9356 60.5459L53.0485 60.9C55.6657 61.7325 56.8591 63.5249 56.8591 65.4732C56.8591 69.4885 53.3279 70.8368 50.2408 70.8368C48.0944 70.8368 46.0858 70.4426 45.8877 70.4004V66.722C46.2437 66.8119 47.9337 67.3162 49.6972 67.3162C51.7039 67.3162 52.6274 66.7296 52.6274 65.8244C52.6274 65.0148 51.8293 64.5468 50.8284 64.232C50.5834 64.1507 50.2169 64.0359 49.9671 63.9536C47.7202 63.2435 45.8475 61.9239 45.8475 59.277C45.8475 56.2875 48.0858 54.2799 51.8045 54.2799C53.7681 54.2799 55.616 54.7564 55.7365 54.789L55.7356 58.2014Z" fill="#049FD9"/>
<path d="M14.3916 37.3916C14.3916 36.2902 13.4921 35.3964 12.3886 35.3964C11.2872 35.3964 10.3858 36.2902 10.3858 37.3916V41.5878C10.3858 42.6959 11.2863 43.5888 12.3886 43.5888C13.4921 43.5888 14.3916 42.695 14.3916 41.5878V37.3916Z" fill="#049FD9"/>
<path d="M25.391 31.8838C25.391 30.7824 24.4915 29.8877 23.3882 29.8877C22.2848 29.8877 21.3852 30.7824 21.3852 31.8838V41.5872C21.3852 42.6953 22.2848 43.5881 23.3882 43.5881C24.4915 43.5881 25.391 42.6943 25.391 41.5872V31.8838Z" fill="#049FD9"/>
<path d="M36.3923 24.3476C36.3923 23.2461 35.4928 22.3523 34.3895 22.3523C33.2861 22.3523 32.3865 23.2461 32.3865 24.3476V45.5734C32.3865 46.6815 33.2861 47.5743 34.3895 47.5743C35.4928 47.5743 36.3923 46.6806 36.3923 45.5734V24.3476Z" fill="#049FD9"/>
<path d="M47.39 31.8838C47.39 30.7824 46.4904 29.8877 45.3871 29.8877C44.2837 29.8877 43.3842 30.7824 43.3842 31.8838V41.5872C43.3842 42.6953 44.2837 43.5881 45.3871 43.5881C46.4904 43.5881 47.39 42.6943 47.39 41.5872V31.8838Z" fill="#049FD9"/>
<path d="M58.3788 37.3916C58.3788 36.2902 57.485 35.3964 56.3883 35.3964C55.285 35.3964 54.3855 36.2902 54.3855 37.3916V41.5878C54.3855 42.6959 55.285 43.5888 56.3883 43.5888C57.485 43.5888 58.3788 42.695 58.3788 41.5878V37.3916Z" fill="#049FD9"/>
<path d="M69.3827 31.8838C69.3827 30.7824 68.4889 29.8877 67.3865 29.8877C66.286 29.8877 65.3904 30.7824 65.3904 31.8838V41.5872C65.3904 42.6953 66.286 43.5881 67.3865 43.5881C68.4898 43.5881 69.3827 42.6943 69.3827 41.5872V31.8838Z" fill="#049FD9"/>
<path d="M80.3893 24.3476C80.3893 23.2461 79.4955 22.3523 78.3932 22.3523C77.2899 22.3523 76.397 23.2461 76.397 24.3476V45.5734C76.397 46.6815 77.2908 47.5743 78.3932 47.5743C79.4966 47.5743 80.3893 46.6806 80.3893 45.5734V24.3476Z" fill="#049FD9"/>
<path d="M91.3958 31.8838C91.3958 30.7824 90.502 29.8877 89.3747 29.8877C88.2714 29.8877 87.3785 30.7824 87.3785 31.8838V41.5872C87.3785 42.6953 88.2723 43.5881 89.3747 43.5881C90.5029 43.5881 91.3958 42.6943 91.3958 41.5872V31.8838Z" fill="#049FD9"/>
<path d="M102.377 37.3916C102.377 36.2902 101.481 35.3964 100.381 35.3964C99.2777 35.3964 98.3817 36.2902 98.3817 37.3916V41.5878C98.3817 42.6959 99.2777 43.5888 100.381 43.5888C101.481 43.5888 102.377 42.695 102.377 41.5878V37.3916Z" fill="#049FD9"/>
</g>
</g>
<defs>
<clipPath id="clip0_1_239">
<rect width="110.39" height="92" fill="white" transform="translate(0.980011 0.359985)"/>
</clipPath>
<clipPath id="clip1_1_239">
<rect width="110.39" height="92" fill="white" transform="translate(0.980011 0.359985)"/>
</clipPath>
</defs>
</svg>
