<svg width="111" height="93" viewBox="0 0 111 93" fill="none" xmlns="http://www.w3.org/2000/svg">
<g clip-path="url(#clip0_1_186)">
<g clip-path="url(#clip1_1_186)">
<path d="M52.2527 45.0276V46.2458C53.1451 46.2585 54.0404 46.2585 54.9268 46.374C55.682 46.4718 56.4737 46.6089 57.1153 47.0473C57.7086 47.453 58.0324 48.0995 58.0324 48.8152V54.8672C58.0324 55.0252 57.9711 55.1771 57.8596 55.2877C56.5309 56.5956 55.1736 57.2185 53.8479 57.2185C50.6013 57.2185 48.317 53.6974 47.9173 47.7708C47.8907 47.3681 47.8472 46.0661 47.9153 45.308C48.3319 38.9588 50.859 35.4032 54.0957 35.4032C56.7906 35.4032 59.1033 37.4238 60.7341 42.7404H61.5238L61.4655 36.8701C60.3668 35.3716 57.4993 33.9985 54.0237 33.9985C50.8876 33.9985 47.9804 35.4308 46.1 37.946C43.5315 41.3812 42.8859 46.0384 43.95 50.1389C44.644 52.814 46.0763 55.3549 48.3388 57.0033C49.8244 58.0852 51.6496 58.713 53.4916 58.713C54.8321 58.713 56.3118 58.2402 57.5516 57.4288C58.3304 56.9195 59.3235 56.8701 60.131 57.333L61.5938 58.173H62.2849V48.8162C62.2849 47.0325 62.9334 46.4609 64.954 46.2467V45.0286H52.2527V45.0276Z" fill="black"/>
<path d="M24.2425 49.5971C21.8646 52.8586 20.4292 54.6946 19.3345 55.7449C18.4284 56.6067 17.5982 56.7192 16.0879 56.7192L11.1947 56.7182C11.096 56.7182 11.0359 56.6105 11.0871 56.5266L23.5713 36.0637L22.9534 34.5376H7.67861L5.21475 42.5284L5.88303 42.8512C8.17414 39.7092 9.5571 37.9393 10.6113 36.9285C11.4839 36.0982 12.2846 35.9897 13.7395 35.9897L18.3652 35.9887C18.4639 35.9887 18.5241 36.0963 18.4728 36.1802L5.98372 56.6491L6.57995 58.1703H22.366L24.9108 49.9199L24.2425 49.5971Z" fill="black"/>
<path d="M35.1072 46.4245C34.3412 46.2083 32.1014 46.2439 32.1014 46.2439C31.976 46.2439 31.8733 46.3456 31.8733 46.4719V56.4931C31.8733 56.6185 31.9751 56.7211 32.1014 56.7211H35.0105C36.2602 56.7211 36.9472 56.6284 37.6964 55.9146C38.6026 55.046 39.7891 53.5268 41.7565 50.829L42.4247 51.1518L40.26 58.1703H25.4907V57.0883C25.4907 57.0883 25.9348 57.0873 26.2784 57.0341C26.686 56.9531 27.0681 56.7843 27.3218 56.4388C27.537 56.1456 27.6189 55.7745 27.6248 55.4152V37.2937C27.6189 36.9333 27.537 36.5632 27.3218 36.27C27.0681 35.9235 26.686 35.7547 26.2784 35.6748C25.9348 35.6215 25.4907 35.6205 25.4907 35.6205V34.5376H40.2659L42.4267 41.558L41.7584 41.8818C39.7911 39.184 38.6036 37.6638 37.6984 36.7962C36.9492 36.0825 36.2612 35.9897 35.0125 35.9897H32.1014C31.976 35.9897 31.8733 36.0913 31.8733 36.2177V44.7987C31.8733 44.9241 31.9751 45.0268 32.1014 45.0268C32.1014 45.0268 33.8546 45.0573 34.5781 44.9181C35.4428 44.7375 35.8376 44.2735 35.8693 43.3891C35.891 42.788 35.5978 41.4702 35.5455 41.2984H36.6353L39.185 49.5793H38.0537C37.3242 48.0039 36.9067 46.9793 35.1072 46.4245Z" fill="black"/>
<path d="M67.2312 37.2265C66.1315 35.892 65.554 35.6284 63.9924 35.6284V34.5376H70.9625L81.5572 52.671C81.6046 52.7519 81.729 52.7184 81.729 52.6246L81.7281 38.6361C81.7172 37.9886 81.5701 37.3223 81.1831 36.7942C80.7173 36.1585 80.0104 35.8555 79.2602 35.7143C79.2602 35.7143 78.8091 35.6333 77.9009 35.6245V34.5386H86.3399V35.6264C85.3478 35.7034 84.33 35.966 83.7211 36.7962C83.3331 37.3243 83.187 37.9906 83.1761 38.6381V58.1722H79.6985L69.0089 40.0329C68.9615 39.952 68.8372 39.9855 68.8372 40.0793L68.8382 54.0718C68.849 54.7124 68.9961 55.3727 69.3831 55.8959C70.1688 56.9561 71.6337 57.0804 72.8469 57.0825V58.1703H64.2264V57.0825C65.2184 57.0055 66.2361 56.7428 66.8452 55.9127C67.2331 55.3846 67.3783 54.7183 67.3901 54.0707V37.6707C67.3901 37.5088 67.3328 37.3519 67.2312 37.2265Z" fill="black"/>
<path d="M102.989 54.438L96.4573 34.5376H90.2497V35.6254C91.5201 35.6235 91.6584 35.7153 91.8804 35.809C92.302 36.0203 92.6893 36.4734 92.9193 37.3026C92.9193 37.3026 92.9828 37.4812 92.9175 37.6875L87.2785 54.7538C86.7148 56.3638 86.0169 56.9195 84.7534 57.0834V58.1712H91.9337V57.0834C89.8825 57.1061 89.1619 56.6432 89.1619 56.6432C88.3179 56.1447 88.772 54.817 88.772 54.817L89.6575 52.1439C89.7117 51.981 89.8637 51.8705 90.0365 51.8705H97.3211C97.4941 51.8705 97.6486 51.982 97.7001 52.1468L98.5676 54.8338C98.6807 55.2266 98.8114 55.6501 98.7037 56.0588C98.5299 56.7211 97.7581 56.9087 97.1693 56.9946C96.7176 57.0597 96.3294 57.0825 95.8722 57.0825V58.1703H106.406V57.0825C104.456 56.8722 103.631 56.1812 102.989 54.438ZM97.0056 50.4964H90.3682C90.2862 50.4964 90.229 50.4164 90.2547 50.3394L93.6442 40.0951C93.6718 40.0102 93.7923 40.0112 93.819 40.0961L97.1187 50.3414C97.1445 50.4174 97.0865 50.4964 97.0056 50.4964Z" fill="black"/>
</g>
</g>
<defs>
<clipPath id="clip0_1_186">
<rect width="110.39" height="92" fill="white" transform="translate(0.590027 0.359985)"/>
</clipPath>
<clipPath id="clip1_1_186">
<rect width="110.39" height="92" fill="white" transform="translate(0.590027 0.359985)"/>
</clipPath>
</defs>
</svg>
