<svg width="111" height="93" viewBox="0 0 111 93" fill="none" xmlns="http://www.w3.org/2000/svg">
<g clip-path="url(#clip0_1_223)">
<g clip-path="url(#clip1_1_223)">
<path d="M9.64917 67.5181H14.4283C17.2268 67.5181 18.6835 68.847 18.6835 71.0321C18.6835 73.4216 17.1117 74.5973 13.9938 74.5973H9.64917V67.5181ZM13.6232 73.2811C15.8212 73.2811 16.9073 72.7955 16.9073 70.9554C16.9073 69.486 16.0895 68.7959 14.4411 68.7959H11.3871V73.2811H13.6232Z" fill="#1F4FA2"/>
<path d="M22.6839 67.5181H24.3451L28.6131 74.6101H26.6708L25.789 73.0511H21.0994L20.2176 74.6101H18.4926L22.6839 67.5181ZM25.0862 71.7604L23.425 68.8087L21.8278 71.7604H25.0862Z" fill="#1F4FA2"/>
<path d="M29.6483 67.5181H31.3863V70.3804L35.5264 67.5181H38.0182L33.1241 70.8021L38.5677 74.6101H35.8459L31.3863 71.4155V74.6101H29.6483V67.5181Z" fill="#1F4FA2"/>
<path d="M44.0366 74.5957H42.3115V68.7815H38.8997V67.5037H47.474V68.7815H44.0366V74.5957Z" fill="#1F4FA2"/>
<path d="M48.7639 67.5181H55.1403C56.2776 67.5181 56.8014 67.9014 56.8014 68.8981V70.5721C56.8014 71.5433 56.2776 71.9266 55.1403 71.9266H54.1691L57.5298 74.6101H55.0507L52.0862 71.9266H50.4633V74.6101H48.7511V67.5181H48.7639ZM50.4761 68.732V70.6999H54.4119C54.9358 70.6999 55.2041 70.5977 55.2041 70.1248V69.307C55.2041 68.8343 54.9358 68.732 54.4119 68.732H50.4761Z" fill="#1F4FA2"/>
<path d="M60.1874 67.5181H65.6692C67.0621 67.5181 67.5094 67.8376 67.5094 69.192V72.9233C67.5094 74.265 67.0621 74.5973 65.6692 74.5973H60.1874C58.7817 74.5973 58.3473 74.265 58.3473 72.9233V69.192C58.3473 67.8376 58.8073 67.5181 60.1874 67.5181ZM65.7843 73.2428V68.8215H60.0724V73.2428H65.7843Z" fill="#1F4FA2"/>
<path d="M69.0934 67.5181H70.2818L76.3005 72.2205V67.5181H77.8594V74.6101H76.671L70.6779 69.8309V74.6101H69.1062V67.5181H69.0934Z" fill="#1F4FA2"/>
<path d="M80.0839 67.5181H81.809V74.6101H80.0839V67.5181Z" fill="#1F4FA2"/>
<path d="M85.6807 68.8215V73.2428H90.332V71.735L92.0698 72.0799V72.9233C92.0698 74.2522 91.6227 74.5973 90.2043 74.5973H85.8084C84.3901 74.5973 83.9684 74.2267 83.9684 72.9233V69.192C83.9684 67.863 84.4028 67.5181 85.8084 67.5181H90.2298C91.6354 67.5181 92.0954 67.8503 92.0954 69.192V69.8821L90.3576 70.1376V68.8342H85.6807V68.8215Z" fill="#1F4FA2"/>
<path d="M95.2005 68.7939V70.2889H99.8001C101.206 70.2889 101.641 70.6212 101.641 71.9629V72.934C101.641 74.2631 101.206 74.608 99.8001 74.608H95.2005C93.7949 74.608 93.3349 74.2503 93.3349 72.934V72.7296L94.8804 72.4485V73.2919H100.094V71.669H95.5068C94.1141 71.669 93.6412 71.3368 93.6412 69.995V69.2028C93.6412 67.8611 94.1141 67.5288 95.5068 67.5288H99.7108C101.014 67.5288 101.576 67.8355 101.576 69.075V69.2411L100.082 69.5605V68.8067H95.2005V68.7939Z" fill="#1F4FA2"/>
<path d="M66.2429 17.9862H23.7803V28.6051C29.6456 28.6051 34.3992 33.3587 34.3992 39.2239C34.3992 45.0892 29.6456 49.8427 23.7803 49.8427V60.4615H66.2429C77.9735 60.4615 87.4679 50.9545 87.4679 39.2366C87.4679 27.4806 77.9607 17.9862 66.2429 17.9862ZM55.624 49.8299C49.7588 49.8299 45.0053 45.0764 45.0053 39.2111C45.0053 33.3459 49.7588 28.5923 55.624 28.5923C61.4893 28.5923 66.2429 33.3459 66.2429 39.2111C66.2429 45.0764 61.4893 49.8299 55.624 49.8299Z" fill="#1F4FA2"/>
<path d="M81.8087 57.637C81.8087 56.0397 83.1121 54.8513 84.6456 54.8513C86.1662 54.8513 87.4695 56.0269 87.4695 57.637C87.4695 59.2598 86.1662 60.4354 84.6456 60.4354C83.1121 60.4482 81.8087 59.2598 81.8087 57.637ZM84.6456 59.9754C85.9106 59.9754 86.9073 58.9915 86.9073 57.637C86.9073 56.3208 85.9106 55.3113 84.6456 55.3113C83.3677 55.3113 82.371 56.308 82.371 57.637C82.371 58.9915 83.3677 59.9754 84.6456 59.9754ZM84.0577 59.2598H83.5721V56.0397H84.7989C85.5528 56.0397 85.9361 56.3208 85.9361 56.9597C85.9361 57.5347 85.5784 57.7904 85.1055 57.8414L86.0256 59.2598H85.4761L84.6328 57.867H84.0705V59.2598H84.0577ZM84.6456 57.4581C85.0672 57.4581 85.425 57.4325 85.425 56.9342C85.425 56.5381 85.0672 56.4614 84.7222 56.4614H84.0577V57.4581H84.6456Z" fill="#1F4FA2"/>
</g>
</g>
<defs>
<clipPath id="clip0_1_223">
<rect width="110.39" height="92" fill="white" transform="translate(0.450012 0.359985)"/>
</clipPath>
<clipPath id="clip1_1_223">
<rect width="110.39" height="92" fill="white" transform="translate(0.450012 0.359985)"/>
</clipPath>
</defs>
</svg>
