<svg width="16" height="17" viewBox="0 0 16 17" fill="none" xmlns="http://www.w3.org/2000/svg">
<g clip-path="url(#clip0_1_76)">
<path fill-rule="evenodd" clip-rule="evenodd" d="M7.99999 2.22995C6.47234 2.22995 5.00727 2.83681 3.92706 3.91702C2.84685 4.99723 2.23999 6.4623 2.23999 7.98995C2.23999 8.54035 2.43839 9.17715 2.81023 9.87411C3.17951 10.566 3.69663 11.2757 4.27967 11.9605C5.44639 13.3288 6.82687 14.5378 7.65887 15.222C7.86047 15.3884 8.13887 15.3884 8.34111 15.222C9.17311 14.5378 10.5536 13.3288 11.7203 11.9599C12.3034 11.2757 12.8211 10.566 13.1898 9.87411C13.561 9.17651 13.76 8.53971 13.76 7.98995C13.76 6.4623 13.1531 4.99723 12.0729 3.91702C10.9927 2.83681 9.52764 2.22995 7.99999 2.22995ZM0.959991 7.98995C0.959991 4.10195 4.11199 0.949951 7.99999 0.949951C11.888 0.949951 15.04 4.10195 15.04 7.98995C15.04 8.83091 14.743 9.68147 14.3194 10.4764C13.8918 11.277 13.3133 12.0642 12.6944 12.7906C11.4573 14.2421 10.0115 15.5061 9.15455 16.2108C8.8299 16.4797 8.42156 16.6268 7.99999 16.6268C7.57843 16.6268 7.17008 16.4797 6.84543 16.2108C5.98847 15.5061 4.54271 14.2421 3.30559 12.7906C2.68671 12.0642 2.10751 11.277 1.68063 10.4764C1.25695 9.68147 0.959991 8.83091 0.959991 7.98995ZM7.99999 6.70995C7.66051 6.70995 7.33494 6.84481 7.09489 7.08485C6.85485 7.3249 6.71999 7.65047 6.71999 7.98995C6.71999 8.32943 6.85485 8.655 7.09489 8.89505C7.33494 9.13509 7.66051 9.26995 7.99999 9.26995C8.33947 9.26995 8.66504 9.13509 8.90509 8.89505C9.14513 8.655 9.27999 8.32943 9.27999 7.98995C9.27999 7.65047 9.14513 7.3249 8.90509 7.08485C8.66504 6.84481 8.33947 6.70995 7.99999 6.70995ZM5.43999 7.98995C5.43999 7.311 5.7097 6.65985 6.1898 6.17976C6.66989 5.69966 7.32104 5.42995 7.99999 5.42995C8.67895 5.42995 9.33009 5.69966 9.81018 6.17976C10.2903 6.65985 10.56 7.311 10.56 7.98995C10.56 8.66891 10.2903 9.32005 9.81018 9.80014C9.33009 10.2802 8.67895 10.55 7.99999 10.55C7.32104 10.55 6.66989 10.2802 6.1898 9.80014C5.7097 9.32005 5.43999 8.66891 5.43999 7.98995Z" fill="black"/>
</g>
<defs>
<clipPath id="clip0_1_76">
<rect width="16" height="16" fill="white" transform="translate(0 0.949951)"/>
</clipPath>
</defs>
</svg>
