<svg width="111" height="93" viewBox="0 0 111 93" fill="none" xmlns="http://www.w3.org/2000/svg">
<g clip-path="url(#clip0_1_66)">
<g clip-path="url(#clip1_1_66)">
<mask id="mask0_1_66" style="mask-type:luminance" maskUnits="userSpaceOnUse" x="0" y="0" width="111" height="93">
<path d="M110.84 0.364136H0.450012V92.3558H110.84V0.364136Z" fill="white"/>
</mask>
<g mask="url(#mask0_1_66)">
<path d="M57.6688 60.3427L55.645 54.0873L53.6212 60.3427H46.9058L52.3333 64.2064L50.2175 70.4618L55.645 66.5981L61.0725 70.4618L58.9567 64.2064L64.3842 60.3427H57.6688Z" fill="#DB0812"/>
<path d="M39.3625 59.3308L37.6146 54.0873L35.8668 59.3308H30.2553L34.7629 62.5505L33.1071 67.794L37.6146 64.5743L42.1222 67.794L40.3744 62.5505L44.974 59.3308H39.3625Z" fill="#DB0812"/>
<path d="M23.2639 58.5029L21.7921 54.0873L20.3202 58.5029H15.6286L19.4003 61.2626L18.0204 65.6782L21.7921 62.9185L25.6557 65.6782L24.1839 61.2626L28.0475 58.5029H23.2639Z" fill="#DB0812"/>
<path d="M75.4232 59.3308L73.6754 54.0873L71.9275 59.3308H66.316L70.9156 62.5505L69.1678 67.794L73.6754 64.5743L78.183 67.794L76.5271 62.5505L81.0347 59.3308H75.4232Z" fill="#DB0812"/>
<path d="M90.9698 58.5029L89.4979 54.0873L88.0261 58.5029H83.3345L87.1062 61.2626L85.6343 65.6782L89.4979 62.9185L93.2696 65.6782L91.7977 61.2626L95.6614 58.5029H90.9698Z" fill="#DB0812"/>
<path d="M80.6667 45.9C79.5628 44.0602 78.4589 37.7128 82.3226 33.7571C84.0704 37.4368 84.1624 41.6684 80.6667 45.9ZM44.238 43.2323C42.4902 43.2323 40.7424 41.2085 40.7424 38.9087C40.7424 36.6089 42.7662 34.4931 44.238 34.4931V43.2323ZM34.5789 43.4163V43.6002C33.659 44.0602 31.7272 44.5202 31.7272 40.1966C31.7272 35.8729 31.7272 40.8405 31.7272 38.2647V27.0417C31.7272 24.374 29.0594 23.4541 27.5876 23.4541H25.6557L21.6081 27.0417C21.6081 24.466 19.1243 23.4541 17.5605 23.4541H15.5366L11.489 26.9498C11.489 24.374 8.54528 23.4541 7.44138 23.4541H5.50955L0.450012 27.8697C0.450012 27.8697 4.12968 27.5017 4.12968 32.0093C4.12968 36.5169 4.12968 46.084 4.12968 48.5678H11.581V28.6056C13.1449 28.6056 14.3408 28.9736 14.3408 30.9054C14.3408 33.5732 14.3408 48.5678 14.3408 48.5678H21.7001V28.6976C23.08 28.6976 24.4598 28.9736 24.4598 30.8134V43.1403C24.4598 50.5916 30.4393 48.6598 30.4393 48.6598L35.2229 44.4282C35.9588 45.6241 38.1666 48.5678 41.5703 48.5678C43.4101 46.82 43.8701 46.36 44.422 45.9C45.158 47.2799 46.9978 49.5797 49.9415 48.5678C52.8853 45.808 54.0812 44.7041 54.0812 44.7041V48.4758H60.7965V36.5169C62.0844 36.5169 63.6483 36.5169 63.6483 38.3567V44.1522C63.6483 47.2799 66.0401 49.2117 69.7197 48.7518C69.7197 48.7518 71.9275 46.636 73.8594 44.8881C75.2392 46.728 77.723 49.0278 81.7706 48.7518C85.7263 48.4758 91.1538 44.4282 89.8659 35.229C90.7858 35.229 91.9817 34.953 91.9817 36.2409V44.2442C91.9817 44.2442 92.4417 49.4877 97.8692 48.6598C98.9731 47.6479 100.353 46.268 101.457 45.2561C102.193 46.82 103.665 48.3838 107.068 48.5678C107.896 47.8319 109.736 46.176 110.932 44.9801C110.932 44.9801 107.896 45.4401 107.896 42.1284C107.896 40.5645 107.896 30.2615 107.896 30.2615H101.181V43.9682C100.077 44.9801 98.6971 45.9 98.6971 43.0483V32.9292C98.6051 31.2734 97.2252 29.8935 95.0174 29.5255C94.1895 30.2615 89.4979 34.4011 89.4979 34.4011C89.222 33.6651 88.946 32.9292 88.762 32.4693L79.1949 29.7095C76.5271 31.0894 71.0996 34.6771 73.3074 43.9682C72.2035 45.1641 70.3637 45.9 70.3637 43.5083V33.6651C70.3637 32.1013 69.3518 30.0775 66.776 29.8935C66.592 30.0775 60.8885 35.137 60.8885 35.137V27.8697C60.7965 25.1099 59.3247 22.2582 56.105 22.2582H55.553L50.4935 26.6738C50.4935 26.6738 54.1731 26.3058 54.1731 30.7214C54.1731 35.137 54.1731 43.3243 54.1731 43.3243C52.8853 44.6122 51.1374 45.4401 51.1374 42.7723V30.5374H44.33C41.4783 30.4454 32.4631 32.7452 34.5789 43.0483C34.5789 43.1403 34.5789 43.2323 34.5789 43.3243" fill="#DB0812"/>
</g>
</g>
</g>
<defs>
<clipPath id="clip0_1_66">
<rect width="110.39" height="92" fill="white" transform="translate(0.450012 0.359985)"/>
</clipPath>
<clipPath id="clip1_1_66">
<rect width="110.39" height="91.9917" fill="white" transform="translate(0.450012 0.364136)"/>
</clipPath>
</defs>
</svg>
