<svg width="111" height="93" viewBox="0 0 111 93" fill="none" xmlns="http://www.w3.org/2000/svg">
<g clip-path="url(#clip0_1_196)">
<g clip-path="url(#clip1_1_196)">
<mask id="mask0_1_196" style="mask-type:luminance" maskUnits="userSpaceOnUse" x="0" y="0" width="111" height="93">
<path d="M110.52 0.364136H0.130066V92.3558H110.52V0.364136Z" fill="white"/>
</mask>
<g mask="url(#mask0_1_196)">
<path d="M26.3927 32.281H24.188V46.6396H31.9615V45.0983H26.3927V32.281Z" fill="#14142B"/>
<path d="M36.2548 32.281H34.0502V46.6396H41.8236V45.0983H36.2548V32.281Z" fill="#14142B"/>
<path d="M55.6527 44.9478C55.3746 44.3249 55.0631 43.6164 54.7171 42.8239C54.371 42.0313 54.0018 41.1742 53.6084 40.2512C53.215 39.3294 52.8216 38.4007 52.4293 37.4651C52.036 36.5295 51.6494 35.6042 51.2699 34.6894L50.1636 32.0187H49.4852L43.1469 46.6414H44.9166L47.0636 41.2503H51.7776C51.9402 41.6622 52.1155 42.0948 52.3002 42.5458L52.9001 44.0099C53.095 44.4898 53.275 44.9489 53.4365 45.3874C53.5969 45.8223 53.726 46.1996 53.8195 46.5064L53.8611 46.6414H56.4787L56.3265 46.3599C56.1522 46.0345 55.925 45.5604 55.6527 44.9478ZM51.331 39.9316H47.5885L49.3733 35.4508L51.331 39.9316Z" fill="#14142B"/>
<path d="M21.0175 44.9478C20.7395 44.3249 20.4279 43.6164 20.0819 42.8239C19.7358 42.0313 19.3666 41.1742 18.9732 40.2512C18.5798 39.3294 18.1864 38.4007 17.7941 37.4651C17.4008 36.5295 17.0143 35.6042 16.6347 34.6894L15.5284 32.0187H14.85L8.51172 46.6414H10.2814L12.4284 41.2503H17.1423C17.305 41.6622 17.4803 42.0948 17.6661 42.5458L18.266 44.0099C18.461 44.4898 18.6409 44.9489 18.8024 45.3874C18.9628 45.82 19.0908 46.1961 19.1855 46.5064L19.227 46.6414H21.8458L21.6935 46.3599C21.517 46.0357 21.2909 45.5604 21.0175 44.9478ZM16.6958 39.9316H12.9533L14.7381 35.4508L16.6958 39.9316Z" fill="#14142B"/>
<path d="M69.88 34.1419C69.3193 33.5466 68.5925 33.0817 67.7215 32.7609C66.9843 32.4898 66.0937 32.3341 65.0692 32.296L58.2592 32.281V46.6396H64.0194L64.2097 46.6349V46.6303C64.9389 46.6038 65.6957 46.485 66.464 46.2762C67.3592 46.0339 68.1899 45.6151 68.9329 45.0313C69.677 44.4464 70.2976 43.6688 70.7765 42.7194C71.2552 41.7688 71.4986 40.5863 71.4986 39.2053C71.4986 38.1463 71.3694 37.1807 71.1144 36.3327C70.856 35.4755 70.4407 34.7383 69.88 34.1419ZM60.5942 33.6989C60.969 33.6539 61.3879 33.6135 61.8424 33.5777C62.3638 33.5373 62.9338 33.5177 63.5372 33.5177C64.3586 33.5177 65.1246 33.602 65.811 33.7669C66.4836 33.9285 67.0686 34.2227 67.5519 34.6414C68.033 35.0579 68.4195 35.6381 68.6998 36.3662C68.9813 37.101 69.1244 38.0562 69.1244 39.2065C69.1244 40.517 68.9421 41.5957 68.581 42.4148C68.221 43.2316 67.7538 43.8824 67.1897 44.3484C66.6255 44.8156 65.9772 45.1387 65.263 45.3071C64.024 45.6001 62.7388 45.5978 61.5771 45.5159C61.1814 45.4882 60.8514 45.449 60.5953 45.3994V33.6989H60.5942Z" fill="#14142B"/>
<path d="M76.185 32.281H73.8097V46.6396H76.185V32.281Z" fill="#14142B"/>
<path d="M89.8319 32.281V37.1137L89.8354 37.2568C89.8492 37.9606 89.8561 38.692 89.8561 39.4499C89.8561 39.909 89.8492 40.3856 89.8354 40.8793C89.8227 41.3639 89.7754 41.8403 89.6957 42.296C89.6173 42.7471 89.4881 43.1843 89.3116 43.5962C89.1396 43.9977 88.8916 44.353 88.5732 44.6507C88.256 44.9495 87.8464 45.1895 87.3584 45.3625C86.9247 45.5159 86.3767 45.6024 85.7387 45.6186C85.0903 45.6024 84.5423 45.5159 84.1085 45.3625C83.6194 45.1883 83.211 44.9495 82.8937 44.6507C82.5753 44.3519 82.3273 43.9977 82.1554 43.5962C81.9788 43.1843 81.8497 42.7471 81.7712 42.296C81.6916 41.8403 81.6443 41.3639 81.6316 40.8793C81.6178 40.3867 81.6109 39.9102 81.6109 39.4499C81.6109 38.692 81.6178 37.9606 81.6316 37.2556L81.6351 32.281H79.5411L79.563 40.7778L79.5619 40.9555C79.5619 42.9928 80.0464 44.5099 81.0017 45.464C81.9558 46.4192 83.4937 46.9026 85.5714 46.9026C85.606 46.9026 85.6383 46.9014 85.6717 46.8991L85.7317 46.8968L85.7975 46.8991C85.8298 46.9003 85.8633 46.9026 85.8978 46.9026C87.9757 46.9026 89.5135 46.4181 90.4687 45.464C91.424 44.5087 91.9085 42.9917 91.9085 40.9555L91.9073 40.7801L91.9293 32.281H89.8319Z" fill="#14142B"/>
<path d="M108.807 32.0162H108.259L108.205 32.1155C107.866 32.7395 107.5 33.4099 107.107 34.1286C106.713 34.8484 106.316 35.5811 105.916 36.3275C105.516 37.0739 105.122 37.8099 104.736 38.5356C104.349 39.2613 103.987 39.935 103.648 40.558C103.309 41.1821 103.01 41.7359 102.753 42.217C102.588 42.5262 102.447 42.7881 102.332 43.0049L96.6073 32.015H95.9799L93.9524 46.6378H95.7692L96.7397 36.6852L101.671 46.4913L101.725 46.5962H102.142L107.23 36.6736L108.22 46.6378H110.519L108.807 32.0162Z" fill="#14142B"/>
<path d="M9.50936 35.9093C9.50936 35.3164 9.42169 34.8099 9.24975 34.4015C9.07785 33.9931 8.84828 33.647 8.56562 33.3724C8.28528 33.099 7.96687 32.8879 7.62077 32.7425C7.28505 32.6029 6.94126 32.4967 6.59862 32.4264C6.25829 32.3572 5.93064 32.3145 5.62262 32.3006C5.4934 32.2949 5.37688 32.2902 5.26844 32.2879L0.174988 32.281V46.6396H2.36812V45.6624H2.38772V40.3313C2.59077 40.3486 2.79151 40.359 2.98533 40.3636C3.6556 40.3821 4.51971 40.3879 5.5557 40.2078C6.20522 40.096 6.8282 39.8768 7.40619 39.5561C7.99225 39.2307 8.49294 38.7739 8.89442 38.1959C9.30282 37.6098 9.50936 36.8403 9.50936 35.9093ZM2.38888 33.4151H4.02939C4.54393 33.4151 5.01117 33.452 5.42072 33.5235C5.81182 33.5927 6.14523 33.7231 6.41288 33.9088C6.67476 34.0911 6.88127 34.3518 7.02894 34.6841C7.18006 35.0233 7.2562 35.4767 7.2562 36.0304C7.2562 36.6869 7.14431 37.228 6.9228 37.6387C6.70129 38.0493 6.41403 38.3758 6.06908 38.6077C5.71837 38.8442 5.32728 39.0092 4.90504 39.098C4.01325 39.2873 3.1653 39.2723 2.38888 39.1107V33.4151Z" fill="#14142B"/>
<path d="M16.5995 55.2847C16.3376 55.0424 16.0216 54.8544 15.6593 54.7287C14.9452 54.4818 14.0119 54.4784 13.2886 54.7287C12.9263 54.8556 12.609 55.0424 12.3483 55.2847C12.0864 55.5282 11.8799 55.8292 11.7357 56.18C11.5915 56.5296 11.5176 56.9299 11.5176 57.3729C11.5176 57.8159 11.5915 58.2162 11.7357 58.5658C11.8799 58.9165 12.0864 59.2176 12.3483 59.4611C12.6101 59.7045 12.9274 59.8879 13.2909 60.0067C13.6484 60.1244 14.0453 60.1832 14.4699 60.1832C14.8991 60.1832 15.2982 60.1244 15.6559 60.0067C16.0204 59.8879 16.3376 59.7045 16.5995 59.4611C16.8614 59.2176 17.068 58.9165 17.2122 58.5658C17.3564 58.2174 17.429 57.8159 17.429 57.3729C17.429 56.9299 17.3564 56.5284 17.2122 56.18C17.068 55.8292 16.8614 55.5282 16.5995 55.2847ZM12.6898 58.4031C12.5905 58.1159 12.5398 57.7697 12.5398 57.3718C12.5398 56.9749 12.5905 56.6276 12.6898 56.3404C12.7879 56.0578 12.9251 55.8223 13.097 55.6412C13.2689 55.4601 13.4731 55.3239 13.705 55.2375C13.9403 55.1486 14.1976 55.1036 14.4699 55.1036C14.7467 55.1036 15.0063 55.1486 15.2416 55.2375C15.4725 55.3251 15.6766 55.4601 15.8485 55.6412C16.0216 55.8235 16.1589 56.0589 16.257 56.3404C16.3561 56.6265 16.4069 56.9737 16.4069 57.3718C16.4069 57.7697 16.3561 58.1159 16.257 58.4031C16.1589 58.6846 16.0216 58.92 15.8485 59.1034C15.6766 59.2845 15.4725 59.4195 15.2416 59.5072C14.7744 59.6825 14.1814 59.686 13.705 59.5072C13.4743 59.4207 13.2689 59.2845 13.097 59.1034C12.9251 58.9211 12.7879 58.6858 12.6898 58.4031Z" fill="#14142B"/>
<path d="M87.8553 55.2852C87.5946 55.0429 87.2785 54.856 86.9151 54.7291C86.201 54.4811 85.2677 54.4788 84.5455 54.7291C84.1832 54.856 83.8671 55.0418 83.604 55.2852C83.3422 55.5297 83.1357 55.8309 82.9915 56.1805C82.8473 56.53 82.7734 56.9303 82.7734 57.3733C82.7734 57.8163 82.8473 58.2166 82.9915 58.5662C83.1357 58.9157 83.341 59.218 83.604 59.4614C83.8659 59.7048 84.1844 59.8883 84.5478 60.0071C84.9054 60.1248 85.3023 60.1837 85.7268 60.1837C86.156 60.1837 86.5551 60.1248 86.9128 60.0071C87.2774 59.8883 87.5946 59.7048 87.8553 59.4614C88.1183 59.218 88.3238 58.9169 88.4691 58.5662C88.6133 58.2166 88.6871 57.8163 88.6871 57.3733C88.6871 56.9303 88.6133 56.53 88.4691 56.1805C88.3238 55.8297 88.1172 55.5286 87.8553 55.2852ZM83.9467 58.4035C83.8475 58.1174 83.7968 57.7702 83.7968 57.3721C83.7968 56.9742 83.8475 56.628 83.9467 56.3408C84.0448 56.0581 84.1821 55.8228 84.3551 55.6417C84.527 55.4605 84.7312 55.3244 84.9619 55.2379C85.1984 55.149 85.4557 55.1041 85.7268 55.1041C86.0037 55.1041 86.2632 55.149 86.4986 55.2379C86.7294 55.3256 86.9336 55.4605 87.1054 55.6417C87.2785 55.8239 87.4158 56.0593 87.5139 56.3408C87.6131 56.6269 87.6638 56.973 87.6638 57.3721C87.6638 57.7702 87.6131 58.1174 87.5139 58.4035C87.4158 58.685 87.2785 58.9203 87.1066 59.1027C86.9347 59.2838 86.7294 59.4199 86.4986 59.5064C86.0314 59.6818 85.4384 59.6853 84.9619 59.5064C84.7312 59.4188 84.527 59.2838 84.3551 59.1027C84.1821 58.9215 84.0448 58.685 83.9467 58.4035Z" fill="#14142B"/>
<path d="M1.24682 60.0869L1.25489 57.4865H3.98332L3.97986 60.0857H5.00201V54.6393H3.97986V56.8486H1.24682V54.6393H0.224664V59.9346L0.223511 60.0869" fill="#14142B"/>
<path d="M25.6955 60.0822V55.3996H27.3048V54.6393H23.1423V55.3996H24.7125V60.0869H25.6955V60.0822Z" fill="#14142B"/>
<path d="M34.6223 59.1894C34.62 59.0047 34.6188 58.7694 34.6188 58.4856V57.7415C34.6188 57.6907 34.6188 57.6469 34.62 57.6065H36.4508V56.8624H34.6234L34.6211 56.6582C34.6188 56.4736 34.6177 56.2844 34.6177 56.0894C34.6177 55.9072 34.6211 55.7445 34.6292 55.6014C34.6327 55.5299 34.6361 55.4538 34.6396 55.3765H36.624V54.6393H33.6567V60.0857H36.662V59.3716H34.6258C34.6246 59.3185 34.6234 59.2586 34.6223 59.1894Z" fill="#14142B"/>
<path d="M44.2457 54.6393H43.2225V60.0857H46.2808V59.3716H44.2365L44.2457 54.6393Z" fill="#14142B"/>
<path d="M62.4716 55.645C62.654 55.4627 62.8708 55.3266 63.1177 55.2389C63.5203 55.0959 64.0222 55.0601 64.4387 55.1638C64.5967 55.2042 64.7421 55.2562 64.8689 55.3197C64.997 55.382 65.1147 55.4569 65.2174 55.5388C65.3212 55.6219 65.4089 55.7061 65.4793 55.7892L65.522 55.84H65.785L66.0226 55.0439L65.9153 54.9897C65.8231 54.9435 65.7192 54.895 65.6004 54.8432C65.4804 54.7913 65.3432 54.7428 65.1816 54.6943C65.0224 54.6482 64.8389 54.6101 64.6359 54.5813C64.4329 54.5525 64.1964 54.5386 63.9357 54.5386C63.4823 54.5386 63.0612 54.6021 62.6851 54.7266C62.3055 54.8524 61.9756 55.0393 61.7067 55.2816C61.4368 55.525 61.2257 55.8261 61.0769 56.178C60.9303 56.5275 60.8553 56.929 60.8553 57.372C60.8553 57.8288 60.9269 58.2384 61.0688 58.5903C61.2118 58.9456 61.4183 59.2456 61.6848 59.4844C61.9502 59.7232 62.2755 59.902 62.6528 60.015C63.0231 60.1258 63.4419 60.1824 63.8987 60.1824C64.0475 60.1824 64.216 60.1708 64.4006 60.1478C64.5794 60.1258 64.7594 60.0993 64.9382 60.0716C65.1204 60.0439 65.2947 60.007 65.4573 59.9631C65.62 59.9194 65.7561 59.8755 65.8658 59.8351L65.958 59.7993V58.1149C65.9626 57.8715 65.9696 57.6927 65.9799 57.5796L65.9822 57.3685L65.8058 57.4239H65.0097V59.4278C64.9728 59.4451 64.9347 59.4601 64.8955 59.4728C64.8079 59.5017 64.7144 59.5248 64.6117 59.5432C64.5079 59.5617 64.4017 59.5767 64.2922 59.5859C63.8191 59.6275 63.4235 59.5801 63.0842 59.4451C62.827 59.3437 62.6066 59.1971 62.429 59.0102C62.2513 58.8234 62.114 58.5892 62.0217 58.3158C61.9271 58.0366 61.8787 57.7193 61.8787 57.3697C61.8787 56.9729 61.9329 56.6279 62.039 56.3418C62.1441 56.0626 62.2894 55.8273 62.4716 55.645Z" fill="#14142B"/>
<path d="M76.5037 59.5423C76.3895 59.4086 76.2672 59.2609 76.1392 59.0982C76.0088 58.9356 75.875 58.7659 75.7342 58.5883L75.3281 58.0772C75.1989 57.9146 75.0813 57.7669 74.9763 57.6319C74.9393 57.5835 74.9047 57.5396 74.8724 57.4992C74.9601 57.4773 75.0513 57.4484 75.147 57.415C75.3362 57.3481 75.5173 57.2535 75.6834 57.1335C75.8531 57.0101 75.9984 56.8532 76.1149 56.6651C76.236 56.4702 76.2983 56.236 76.2983 55.9695C76.2983 55.7214 76.251 55.508 76.1565 55.3372C76.063 55.1665 75.9326 55.0269 75.7711 54.922C75.6143 54.8192 75.4296 54.7465 75.2231 54.7028C75.1101 54.6785 74.9866 54.6624 74.8378 54.652L72.7369 54.6393V60.0857H73.7603V57.6146H73.781C73.9253 57.7669 74.0867 57.9514 74.261 58.1661C74.4525 58.4026 74.6417 58.6414 74.8263 58.8802C75.0109 59.119 75.1793 59.3439 75.3305 59.5539C75.4827 59.7639 75.597 59.9208 75.6719 60.0258L75.7146 60.0857H77.0205L76.7759 59.8411C76.7056 59.7743 76.6156 59.6739 76.5037 59.5423ZM73.7592 55.2254C73.8029 55.2208 73.8514 55.2173 73.9033 55.2138C74.0948 55.2023 74.3959 55.1804 74.6994 55.2415C74.8182 55.2657 74.9255 55.3095 75.0259 55.3753C75.1227 55.4388 75.1989 55.5219 75.2612 55.6303C75.3212 55.7353 75.3512 55.8737 75.3512 56.0433C75.3512 56.2406 75.312 56.4032 75.2347 56.5267C75.1539 56.6559 75.0524 56.7586 74.9312 56.8348C74.8044 56.9131 74.6647 56.9685 74.5148 56.9997C74.2564 57.0539 73.9968 57.0551 73.7937 57.0424C73.7822 57.0412 73.7718 57.0412 73.7603 57.0401V55.2254H73.7592Z" fill="#14142B"/>
<path d="M110.348 55.4665C110.28 55.3061 110.19 55.17 110.079 55.0627C109.969 54.9554 109.844 54.8723 109.708 54.8146C109.58 54.7615 109.448 54.7212 109.317 54.6935C109.183 54.667 109.062 54.6508 108.946 54.6462C108.886 54.6439 108.831 54.6416 108.776 54.6405L106.859 54.6393V60.0857H107.882V57.7646C107.91 57.7669 107.94 57.768 107.967 57.768C108.219 57.7749 108.546 57.7761 108.93 57.7092C109.179 57.6665 109.416 57.5823 109.636 57.46C109.863 57.3343 110.056 57.1577 110.21 56.9362C110.369 56.7078 110.45 56.4101 110.45 56.0502C110.448 55.8229 110.415 55.6268 110.348 55.4665ZM107.881 55.2035H108.354C108.539 55.2035 108.708 55.2161 108.854 55.2427C108.988 55.2668 109.102 55.3107 109.191 55.373C109.277 55.433 109.344 55.5173 109.394 55.6291C109.446 55.7457 109.472 55.9025 109.472 56.0963C109.472 56.3259 109.435 56.5152 109.358 56.6559C109.281 56.799 109.185 56.9085 109.067 56.9881C108.945 57.0701 108.809 57.1277 108.662 57.1577C108.395 57.2143 108.141 57.2212 107.882 57.1808V55.2035H107.881Z" fill="#14142B"/>
<path d="M99.1333 55.8979C99.137 56.2533 99.1379 56.7032 99.1379 57.2489C99.1379 57.3608 99.1352 57.4842 99.1333 57.6308L99.1306 57.7623C99.126 57.9387 99.1094 58.1211 99.079 58.3056C99.0505 58.4821 99.0027 58.6529 98.9383 58.8155C98.8776 58.9702 98.7902 59.1086 98.6826 59.2263C98.5749 59.3428 98.4342 59.4386 98.2631 59.5112C98.092 59.5839 97.9512 59.622 97.6936 59.622C97.4296 59.622 97.2043 59.5908 97.0276 59.5273C96.8547 59.4663 96.7103 59.382 96.5989 59.277C96.4867 59.1721 96.4002 59.0486 96.3405 58.9067C96.2761 58.7578 96.2291 58.5998 96.2006 58.4372C96.1767 58.2976 96.1675 58.1522 96.1592 58.023L96.1776 54.6393H95.2411V58.1107C95.2669 58.8155 95.4518 59.3451 95.7903 59.6843C96.1601 60.0546 96.7517 60.2427 97.5474 60.2427C97.9062 60.2427 98.23 60.1907 98.5105 60.0903C98.7966 59.9866 99.0413 59.8319 99.2373 59.63C99.4323 59.4293 99.5841 59.1825 99.6908 58.8963C99.7901 58.6264 99.8453 58.3149 99.8536 57.9641V54.6474H99.1306V55.8979H99.1333Z" fill="#14142B"/>
<path d="M110.497 50.0145H0.130066V51.2155H110.497V50.0145Z" fill="#14142B"/>
</g>
</g>
</g>
<defs>
<clipPath id="clip0_1_196">
<rect width="110.39" height="92" fill="white" transform="translate(0.130066 0.359985)"/>
</clipPath>
<clipPath id="clip1_1_196">
<rect width="110.39" height="91.9917" fill="white" transform="translate(0.130066 0.364136)"/>
</clipPath>
</defs>
</svg>
