<svg width="16" height="17" viewBox="0 0 16 17" fill="none" xmlns="http://www.w3.org/2000/svg">
<g clip-path="url(#clip0_1_71)">
<path fill-rule="evenodd" clip-rule="evenodd" d="M4.66666 0.77002C4.84347 0.77002 5.01304 0.840257 5.13806 0.965282C5.26309 1.09031 5.33332 1.25988 5.33332 1.43669V2.10335H10.6667V1.43669C10.6667 1.25988 10.7369 1.09031 10.8619 0.965282C10.9869 0.840257 11.1565 0.77002 11.3333 0.77002C11.5101 0.77002 11.6797 0.840257 11.8047 0.965282C11.9298 1.09031 12 1.25988 12 1.43669V2.10335H12.6667C13.3739 2.10335 14.0522 2.3843 14.5523 2.8844C15.0524 3.3845 15.3333 4.06278 15.3333 4.77002V13.4367C15.3333 14.1439 15.0524 14.8222 14.5523 15.3223C14.0522 15.8224 13.3739 16.1034 12.6667 16.1034H3.33332C2.62608 16.1034 1.9478 15.8224 1.44771 15.3223C0.947608 14.8222 0.666656 14.1439 0.666656 13.4367V4.77002C0.666656 4.06278 0.947608 3.3845 1.44771 2.8844C1.9478 2.3843 2.62608 2.10335 3.33332 2.10335H3.99999V1.43669C3.99999 1.25988 4.07023 1.09031 4.19525 0.965282C4.32028 0.840257 4.48985 0.77002 4.66666 0.77002ZM3.33332 3.43669C2.9797 3.43669 2.64056 3.57716 2.39051 3.82721C2.14047 4.07726 1.99999 4.4164 1.99999 4.77002V5.43669H14V4.77002C14 4.4164 13.8595 4.07726 13.6095 3.82721C13.3594 3.57716 13.0203 3.43669 12.6667 3.43669H3.33332ZM14 6.77002H1.99999V13.4367C1.99999 13.7903 2.14047 14.1294 2.39051 14.3795C2.64056 14.6295 2.9797 14.77 3.33332 14.77H12.6667C13.0203 14.77 13.3594 14.6295 13.6095 14.3795C13.8595 14.1294 14 13.7903 14 13.4367V6.77002ZM4.33332 9.43669C4.33332 9.25988 4.40356 9.09031 4.52859 8.96528C4.65361 8.84026 4.82318 8.77002 4.99999 8.77002H6.33332C6.51013 8.77002 6.6797 8.84026 6.80473 8.96528C6.92975 9.09031 6.99999 9.25988 6.99999 9.43669C6.99999 9.6135 6.92975 9.78307 6.80473 9.90809C6.6797 10.0331 6.51013 10.1034 6.33332 10.1034H4.99999C4.82318 10.1034 4.65361 10.0331 4.52859 9.90809C4.40356 9.78307 4.33332 9.6135 4.33332 9.43669ZM8.99999 9.43669C8.99999 9.25988 9.07023 9.09031 9.19525 8.96528C9.32028 8.84026 9.48985 8.77002 9.66666 8.77002H11C11.1768 8.77002 11.3464 8.84026 11.4714 8.96528C11.5964 9.09031 11.6667 9.25988 11.6667 9.43669C11.6667 9.6135 11.5964 9.78307 11.4714 9.90809C11.3464 10.0331 11.1768 10.1034 11 10.1034H9.66666C9.48985 10.1034 9.32028 10.0331 9.19525 9.90809C9.07023 9.78307 8.99999 9.6135 8.99999 9.43669ZM4.33332 12.1034C4.33332 11.9265 4.40356 11.757 4.52859 11.6319C4.65361 11.5069 4.82318 11.4367 4.99999 11.4367H6.33332C6.51013 11.4367 6.6797 11.5069 6.80473 11.6319C6.92975 11.757 6.99999 11.9265 6.99999 12.1034C6.99999 12.2802 6.92975 12.4497 6.80473 12.5748C6.6797 12.6998 6.51013 12.77 6.33332 12.77H4.99999C4.82318 12.77 4.65361 12.6998 4.52859 12.5748C4.40356 12.4497 4.33332 12.2802 4.33332 12.1034ZM8.99999 12.1034C8.99999 11.9265 9.07023 11.757 9.19525 11.6319C9.32028 11.5069 9.48985 11.4367 9.66666 11.4367H11C11.1768 11.4367 11.3464 11.5069 11.4714 11.6319C11.5964 11.757 11.6667 11.9265 11.6667 12.1034C11.6667 12.2802 11.5964 12.4497 11.4714 12.5748C11.3464 12.6998 11.1768 12.77 11 12.77H9.66666C9.48985 12.77 9.32028 12.6998 9.19525 12.5748C9.07023 12.4497 8.99999 12.2802 8.99999 12.1034Z" fill="black"/>
</g>
<defs>
<clipPath id="clip0_1_71">
<rect width="16" height="16" fill="white" transform="translate(0 0.77002)"/>
</clipPath>
</defs>
</svg>
